%TF.GenerationSoftware,KiCad,Pcbnew,7.0.8*%
%TF.CreationDate,2023-10-20T14:12:00-05:00*%
%TF.ProjectId,breakout1,62726561-6b6f-4757-9431-2e6b69636164,rev?*%
%TF.SameCoordinates,Original*%
%TF.FileFunction,Legend,Bot*%
%TF.FilePolarity,Positive*%
%FSLAX46Y46*%
G04 Gerber Fmt 4.6, Leading zero omitted, Abs format (unit mm)*
G04 Created by KiCad (PCBNEW 7.0.8) date 2023-10-20 14:12:00*
%MOMM*%
%LPD*%
G01*
G04 APERTURE LIST*
%ADD10C,0.150000*%
%ADD11C,0.120000*%
G04 APERTURE END LIST*
D10*
X199663220Y-113704819D02*
X199663220Y-112704819D01*
X199663220Y-113085771D02*
X199567982Y-113038152D01*
X199567982Y-113038152D02*
X199377506Y-113038152D01*
X199377506Y-113038152D02*
X199282268Y-113085771D01*
X199282268Y-113085771D02*
X199234649Y-113133390D01*
X199234649Y-113133390D02*
X199187030Y-113228628D01*
X199187030Y-113228628D02*
X199187030Y-113514342D01*
X199187030Y-113514342D02*
X199234649Y-113609580D01*
X199234649Y-113609580D02*
X199282268Y-113657200D01*
X199282268Y-113657200D02*
X199377506Y-113704819D01*
X199377506Y-113704819D02*
X199567982Y-113704819D01*
X199567982Y-113704819D02*
X199663220Y-113657200D01*
X198758458Y-113704819D02*
X198758458Y-113038152D01*
X198758458Y-113228628D02*
X198710839Y-113133390D01*
X198710839Y-113133390D02*
X198663220Y-113085771D01*
X198663220Y-113085771D02*
X198567982Y-113038152D01*
X198567982Y-113038152D02*
X198472744Y-113038152D01*
X197758458Y-113657200D02*
X197853696Y-113704819D01*
X197853696Y-113704819D02*
X198044172Y-113704819D01*
X198044172Y-113704819D02*
X198139410Y-113657200D01*
X198139410Y-113657200D02*
X198187029Y-113561961D01*
X198187029Y-113561961D02*
X198187029Y-113181009D01*
X198187029Y-113181009D02*
X198139410Y-113085771D01*
X198139410Y-113085771D02*
X198044172Y-113038152D01*
X198044172Y-113038152D02*
X197853696Y-113038152D01*
X197853696Y-113038152D02*
X197758458Y-113085771D01*
X197758458Y-113085771D02*
X197710839Y-113181009D01*
X197710839Y-113181009D02*
X197710839Y-113276247D01*
X197710839Y-113276247D02*
X198187029Y-113371485D01*
X196853696Y-113704819D02*
X196853696Y-113181009D01*
X196853696Y-113181009D02*
X196901315Y-113085771D01*
X196901315Y-113085771D02*
X196996553Y-113038152D01*
X196996553Y-113038152D02*
X197187029Y-113038152D01*
X197187029Y-113038152D02*
X197282267Y-113085771D01*
X196853696Y-113657200D02*
X196948934Y-113704819D01*
X196948934Y-113704819D02*
X197187029Y-113704819D01*
X197187029Y-113704819D02*
X197282267Y-113657200D01*
X197282267Y-113657200D02*
X197329886Y-113561961D01*
X197329886Y-113561961D02*
X197329886Y-113466723D01*
X197329886Y-113466723D02*
X197282267Y-113371485D01*
X197282267Y-113371485D02*
X197187029Y-113323866D01*
X197187029Y-113323866D02*
X196948934Y-113323866D01*
X196948934Y-113323866D02*
X196853696Y-113276247D01*
X196377505Y-113704819D02*
X196377505Y-112704819D01*
X196282267Y-113323866D02*
X195996553Y-113704819D01*
X195996553Y-113038152D02*
X196377505Y-113419104D01*
X195425124Y-113704819D02*
X195520362Y-113657200D01*
X195520362Y-113657200D02*
X195567981Y-113609580D01*
X195567981Y-113609580D02*
X195615600Y-113514342D01*
X195615600Y-113514342D02*
X195615600Y-113228628D01*
X195615600Y-113228628D02*
X195567981Y-113133390D01*
X195567981Y-113133390D02*
X195520362Y-113085771D01*
X195520362Y-113085771D02*
X195425124Y-113038152D01*
X195425124Y-113038152D02*
X195282267Y-113038152D01*
X195282267Y-113038152D02*
X195187029Y-113085771D01*
X195187029Y-113085771D02*
X195139410Y-113133390D01*
X195139410Y-113133390D02*
X195091791Y-113228628D01*
X195091791Y-113228628D02*
X195091791Y-113514342D01*
X195091791Y-113514342D02*
X195139410Y-113609580D01*
X195139410Y-113609580D02*
X195187029Y-113657200D01*
X195187029Y-113657200D02*
X195282267Y-113704819D01*
X195282267Y-113704819D02*
X195425124Y-113704819D01*
X194234648Y-113038152D02*
X194234648Y-113704819D01*
X194663219Y-113038152D02*
X194663219Y-113561961D01*
X194663219Y-113561961D02*
X194615600Y-113657200D01*
X194615600Y-113657200D02*
X194520362Y-113704819D01*
X194520362Y-113704819D02*
X194377505Y-113704819D01*
X194377505Y-113704819D02*
X194282267Y-113657200D01*
X194282267Y-113657200D02*
X194234648Y-113609580D01*
X193901314Y-113038152D02*
X193520362Y-113038152D01*
X193758457Y-112704819D02*
X193758457Y-113561961D01*
X193758457Y-113561961D02*
X193710838Y-113657200D01*
X193710838Y-113657200D02*
X193615600Y-113704819D01*
X193615600Y-113704819D02*
X193520362Y-113704819D01*
X191853695Y-113704819D02*
X192187028Y-113228628D01*
X192425123Y-113704819D02*
X192425123Y-112704819D01*
X192425123Y-112704819D02*
X192044171Y-112704819D01*
X192044171Y-112704819D02*
X191948933Y-112752438D01*
X191948933Y-112752438D02*
X191901314Y-112800057D01*
X191901314Y-112800057D02*
X191853695Y-112895295D01*
X191853695Y-112895295D02*
X191853695Y-113038152D01*
X191853695Y-113038152D02*
X191901314Y-113133390D01*
X191901314Y-113133390D02*
X191948933Y-113181009D01*
X191948933Y-113181009D02*
X192044171Y-113228628D01*
X192044171Y-113228628D02*
X192425123Y-113228628D01*
X191044171Y-113657200D02*
X191139409Y-113704819D01*
X191139409Y-113704819D02*
X191329885Y-113704819D01*
X191329885Y-113704819D02*
X191425123Y-113657200D01*
X191425123Y-113657200D02*
X191472742Y-113561961D01*
X191472742Y-113561961D02*
X191472742Y-113181009D01*
X191472742Y-113181009D02*
X191425123Y-113085771D01*
X191425123Y-113085771D02*
X191329885Y-113038152D01*
X191329885Y-113038152D02*
X191139409Y-113038152D01*
X191139409Y-113038152D02*
X191044171Y-113085771D01*
X191044171Y-113085771D02*
X190996552Y-113181009D01*
X190996552Y-113181009D02*
X190996552Y-113276247D01*
X190996552Y-113276247D02*
X191472742Y-113371485D01*
X190663218Y-113038152D02*
X190425123Y-113704819D01*
X190425123Y-113704819D02*
X190187028Y-113038152D01*
X188520361Y-113704819D02*
X189091789Y-113704819D01*
X188806075Y-113704819D02*
X188806075Y-112704819D01*
X188806075Y-112704819D02*
X188901313Y-112847676D01*
X188901313Y-112847676D02*
X188996551Y-112942914D01*
X188996551Y-112942914D02*
X189091789Y-112990533D01*
X188139408Y-113419104D02*
X187663218Y-113419104D01*
X188234646Y-113704819D02*
X187901313Y-112704819D01*
X187901313Y-112704819D02*
X187567980Y-113704819D01*
D11*
%TO.C,J3*%
X179650000Y-110670000D02*
X179650000Y-115870000D01*
X108410000Y-110670000D02*
X179650000Y-110670000D01*
X108410000Y-110670000D02*
X108410000Y-113270000D01*
X111010000Y-113270000D02*
X111010000Y-115870000D01*
X108410000Y-113270000D02*
X111010000Y-113270000D01*
X108410000Y-114540000D02*
X108410000Y-115870000D01*
X111010000Y-115870000D02*
X179650000Y-115870000D01*
X108410000Y-115870000D02*
X109740000Y-115870000D01*
%TD*%
M02*
