%TF.GenerationSoftware,KiCad,Pcbnew,7.0.8*%
%TF.CreationDate,2023-10-20T14:11:59-05:00*%
%TF.ProjectId,breakout1,62726561-6b6f-4757-9431-2e6b69636164,rev?*%
%TF.SameCoordinates,Original*%
%TF.FileFunction,Legend,Top*%
%TF.FilePolarity,Positive*%
%FSLAX46Y46*%
G04 Gerber Fmt 4.6, Leading zero omitted, Abs format (unit mm)*
G04 Created by KiCad (PCBNEW 7.0.8) date 2023-10-20 14:11:59*
%MOMM*%
%LPD*%
G01*
G04 APERTURE LIST*
%ADD10C,0.150000*%
%ADD11C,0.120000*%
G04 APERTURE END LIST*
D10*
X175122493Y-43119819D02*
X175122493Y-43834104D01*
X175122493Y-43834104D02*
X175074874Y-43976961D01*
X175074874Y-43976961D02*
X174979636Y-44072200D01*
X174979636Y-44072200D02*
X174836779Y-44119819D01*
X174836779Y-44119819D02*
X174741541Y-44119819D01*
X176074874Y-44119819D02*
X175598684Y-44119819D01*
X175598684Y-44119819D02*
X175598684Y-43119819D01*
X176979636Y-44024580D02*
X176932017Y-44072200D01*
X176932017Y-44072200D02*
X176789160Y-44119819D01*
X176789160Y-44119819D02*
X176693922Y-44119819D01*
X176693922Y-44119819D02*
X176551065Y-44072200D01*
X176551065Y-44072200D02*
X176455827Y-43976961D01*
X176455827Y-43976961D02*
X176408208Y-43881723D01*
X176408208Y-43881723D02*
X176360589Y-43691247D01*
X176360589Y-43691247D02*
X176360589Y-43548390D01*
X176360589Y-43548390D02*
X176408208Y-43357914D01*
X176408208Y-43357914D02*
X176455827Y-43262676D01*
X176455827Y-43262676D02*
X176551065Y-43167438D01*
X176551065Y-43167438D02*
X176693922Y-43119819D01*
X176693922Y-43119819D02*
X176789160Y-43119819D01*
X176789160Y-43119819D02*
X176932017Y-43167438D01*
X176932017Y-43167438D02*
X176979636Y-43215057D01*
X177693922Y-43119819D02*
X177693922Y-43834104D01*
X177693922Y-43834104D02*
X177646303Y-43976961D01*
X177646303Y-43976961D02*
X177551065Y-44072200D01*
X177551065Y-44072200D02*
X177408208Y-44119819D01*
X177408208Y-44119819D02*
X177312970Y-44119819D01*
X178646303Y-44119819D02*
X178170113Y-44119819D01*
X178170113Y-44119819D02*
X178170113Y-43119819D01*
X179551065Y-44024580D02*
X179503446Y-44072200D01*
X179503446Y-44072200D02*
X179360589Y-44119819D01*
X179360589Y-44119819D02*
X179265351Y-44119819D01*
X179265351Y-44119819D02*
X179122494Y-44072200D01*
X179122494Y-44072200D02*
X179027256Y-43976961D01*
X179027256Y-43976961D02*
X178979637Y-43881723D01*
X178979637Y-43881723D02*
X178932018Y-43691247D01*
X178932018Y-43691247D02*
X178932018Y-43548390D01*
X178932018Y-43548390D02*
X178979637Y-43357914D01*
X178979637Y-43357914D02*
X179027256Y-43262676D01*
X179027256Y-43262676D02*
X179122494Y-43167438D01*
X179122494Y-43167438D02*
X179265351Y-43119819D01*
X179265351Y-43119819D02*
X179360589Y-43119819D01*
X179360589Y-43119819D02*
X179503446Y-43167438D01*
X179503446Y-43167438D02*
X179551065Y-43215057D01*
X180265351Y-43119819D02*
X180265351Y-43834104D01*
X180265351Y-43834104D02*
X180217732Y-43976961D01*
X180217732Y-43976961D02*
X180122494Y-44072200D01*
X180122494Y-44072200D02*
X179979637Y-44119819D01*
X179979637Y-44119819D02*
X179884399Y-44119819D01*
X181217732Y-44119819D02*
X180741542Y-44119819D01*
X180741542Y-44119819D02*
X180741542Y-43119819D01*
X182122494Y-44024580D02*
X182074875Y-44072200D01*
X182074875Y-44072200D02*
X181932018Y-44119819D01*
X181932018Y-44119819D02*
X181836780Y-44119819D01*
X181836780Y-44119819D02*
X181693923Y-44072200D01*
X181693923Y-44072200D02*
X181598685Y-43976961D01*
X181598685Y-43976961D02*
X181551066Y-43881723D01*
X181551066Y-43881723D02*
X181503447Y-43691247D01*
X181503447Y-43691247D02*
X181503447Y-43548390D01*
X181503447Y-43548390D02*
X181551066Y-43357914D01*
X181551066Y-43357914D02*
X181598685Y-43262676D01*
X181598685Y-43262676D02*
X181693923Y-43167438D01*
X181693923Y-43167438D02*
X181836780Y-43119819D01*
X181836780Y-43119819D02*
X181932018Y-43119819D01*
X181932018Y-43119819D02*
X182074875Y-43167438D01*
X182074875Y-43167438D02*
X182122494Y-43215057D01*
X182836780Y-43119819D02*
X182836780Y-43834104D01*
X182836780Y-43834104D02*
X182789161Y-43976961D01*
X182789161Y-43976961D02*
X182693923Y-44072200D01*
X182693923Y-44072200D02*
X182551066Y-44119819D01*
X182551066Y-44119819D02*
X182455828Y-44119819D01*
X183789161Y-44119819D02*
X183312971Y-44119819D01*
X183312971Y-44119819D02*
X183312971Y-43119819D01*
X184693923Y-44024580D02*
X184646304Y-44072200D01*
X184646304Y-44072200D02*
X184503447Y-44119819D01*
X184503447Y-44119819D02*
X184408209Y-44119819D01*
X184408209Y-44119819D02*
X184265352Y-44072200D01*
X184265352Y-44072200D02*
X184170114Y-43976961D01*
X184170114Y-43976961D02*
X184122495Y-43881723D01*
X184122495Y-43881723D02*
X184074876Y-43691247D01*
X184074876Y-43691247D02*
X184074876Y-43548390D01*
X184074876Y-43548390D02*
X184122495Y-43357914D01*
X184122495Y-43357914D02*
X184170114Y-43262676D01*
X184170114Y-43262676D02*
X184265352Y-43167438D01*
X184265352Y-43167438D02*
X184408209Y-43119819D01*
X184408209Y-43119819D02*
X184503447Y-43119819D01*
X184503447Y-43119819D02*
X184646304Y-43167438D01*
X184646304Y-43167438D02*
X184693923Y-43215057D01*
X216110588Y-111502438D02*
X216015350Y-111454819D01*
X216015350Y-111454819D02*
X215872493Y-111454819D01*
X215872493Y-111454819D02*
X215729636Y-111502438D01*
X215729636Y-111502438D02*
X215634398Y-111597676D01*
X215634398Y-111597676D02*
X215586779Y-111692914D01*
X215586779Y-111692914D02*
X215539160Y-111883390D01*
X215539160Y-111883390D02*
X215539160Y-112026247D01*
X215539160Y-112026247D02*
X215586779Y-112216723D01*
X215586779Y-112216723D02*
X215634398Y-112311961D01*
X215634398Y-112311961D02*
X215729636Y-112407200D01*
X215729636Y-112407200D02*
X215872493Y-112454819D01*
X215872493Y-112454819D02*
X215967731Y-112454819D01*
X215967731Y-112454819D02*
X216110588Y-112407200D01*
X216110588Y-112407200D02*
X216158207Y-112359580D01*
X216158207Y-112359580D02*
X216158207Y-112026247D01*
X216158207Y-112026247D02*
X215967731Y-112026247D01*
X216586779Y-112454819D02*
X216586779Y-111454819D01*
X216586779Y-111454819D02*
X216967731Y-111454819D01*
X216967731Y-111454819D02*
X217062969Y-111502438D01*
X217062969Y-111502438D02*
X217110588Y-111550057D01*
X217110588Y-111550057D02*
X217158207Y-111645295D01*
X217158207Y-111645295D02*
X217158207Y-111788152D01*
X217158207Y-111788152D02*
X217110588Y-111883390D01*
X217110588Y-111883390D02*
X217062969Y-111931009D01*
X217062969Y-111931009D02*
X216967731Y-111978628D01*
X216967731Y-111978628D02*
X216586779Y-111978628D01*
X217586779Y-112454819D02*
X217586779Y-111454819D01*
X218253445Y-111454819D02*
X218443921Y-111454819D01*
X218443921Y-111454819D02*
X218539159Y-111502438D01*
X218539159Y-111502438D02*
X218634397Y-111597676D01*
X218634397Y-111597676D02*
X218682016Y-111788152D01*
X218682016Y-111788152D02*
X218682016Y-112121485D01*
X218682016Y-112121485D02*
X218634397Y-112311961D01*
X218634397Y-112311961D02*
X218539159Y-112407200D01*
X218539159Y-112407200D02*
X218443921Y-112454819D01*
X218443921Y-112454819D02*
X218253445Y-112454819D01*
X218253445Y-112454819D02*
X218158207Y-112407200D01*
X218158207Y-112407200D02*
X218062969Y-112311961D01*
X218062969Y-112311961D02*
X218015350Y-112121485D01*
X218015350Y-112121485D02*
X218015350Y-111788152D01*
X218015350Y-111788152D02*
X218062969Y-111597676D01*
X218062969Y-111597676D02*
X218158207Y-111502438D01*
X218158207Y-111502438D02*
X218253445Y-111454819D01*
X219634397Y-112454819D02*
X219062969Y-112454819D01*
X219348683Y-112454819D02*
X219348683Y-111454819D01*
X219348683Y-111454819D02*
X219253445Y-111597676D01*
X219253445Y-111597676D02*
X219158207Y-111692914D01*
X219158207Y-111692914D02*
X219062969Y-111740533D01*
X216110588Y-114002438D02*
X216015350Y-113954819D01*
X216015350Y-113954819D02*
X215872493Y-113954819D01*
X215872493Y-113954819D02*
X215729636Y-114002438D01*
X215729636Y-114002438D02*
X215634398Y-114097676D01*
X215634398Y-114097676D02*
X215586779Y-114192914D01*
X215586779Y-114192914D02*
X215539160Y-114383390D01*
X215539160Y-114383390D02*
X215539160Y-114526247D01*
X215539160Y-114526247D02*
X215586779Y-114716723D01*
X215586779Y-114716723D02*
X215634398Y-114811961D01*
X215634398Y-114811961D02*
X215729636Y-114907200D01*
X215729636Y-114907200D02*
X215872493Y-114954819D01*
X215872493Y-114954819D02*
X215967731Y-114954819D01*
X215967731Y-114954819D02*
X216110588Y-114907200D01*
X216110588Y-114907200D02*
X216158207Y-114859580D01*
X216158207Y-114859580D02*
X216158207Y-114526247D01*
X216158207Y-114526247D02*
X215967731Y-114526247D01*
X216586779Y-114954819D02*
X216586779Y-113954819D01*
X216586779Y-113954819D02*
X216967731Y-113954819D01*
X216967731Y-113954819D02*
X217062969Y-114002438D01*
X217062969Y-114002438D02*
X217110588Y-114050057D01*
X217110588Y-114050057D02*
X217158207Y-114145295D01*
X217158207Y-114145295D02*
X217158207Y-114288152D01*
X217158207Y-114288152D02*
X217110588Y-114383390D01*
X217110588Y-114383390D02*
X217062969Y-114431009D01*
X217062969Y-114431009D02*
X216967731Y-114478628D01*
X216967731Y-114478628D02*
X216586779Y-114478628D01*
X217586779Y-114954819D02*
X217586779Y-113954819D01*
X218253445Y-113954819D02*
X218443921Y-113954819D01*
X218443921Y-113954819D02*
X218539159Y-114002438D01*
X218539159Y-114002438D02*
X218634397Y-114097676D01*
X218634397Y-114097676D02*
X218682016Y-114288152D01*
X218682016Y-114288152D02*
X218682016Y-114621485D01*
X218682016Y-114621485D02*
X218634397Y-114811961D01*
X218634397Y-114811961D02*
X218539159Y-114907200D01*
X218539159Y-114907200D02*
X218443921Y-114954819D01*
X218443921Y-114954819D02*
X218253445Y-114954819D01*
X218253445Y-114954819D02*
X218158207Y-114907200D01*
X218158207Y-114907200D02*
X218062969Y-114811961D01*
X218062969Y-114811961D02*
X218015350Y-114621485D01*
X218015350Y-114621485D02*
X218015350Y-114288152D01*
X218015350Y-114288152D02*
X218062969Y-114097676D01*
X218062969Y-114097676D02*
X218158207Y-114002438D01*
X218158207Y-114002438D02*
X218253445Y-113954819D01*
X219301064Y-113954819D02*
X219396302Y-113954819D01*
X219396302Y-113954819D02*
X219491540Y-114002438D01*
X219491540Y-114002438D02*
X219539159Y-114050057D01*
X219539159Y-114050057D02*
X219586778Y-114145295D01*
X219586778Y-114145295D02*
X219634397Y-114335771D01*
X219634397Y-114335771D02*
X219634397Y-114573866D01*
X219634397Y-114573866D02*
X219586778Y-114764342D01*
X219586778Y-114764342D02*
X219539159Y-114859580D01*
X219539159Y-114859580D02*
X219491540Y-114907200D01*
X219491540Y-114907200D02*
X219396302Y-114954819D01*
X219396302Y-114954819D02*
X219301064Y-114954819D01*
X219301064Y-114954819D02*
X219205826Y-114907200D01*
X219205826Y-114907200D02*
X219158207Y-114859580D01*
X219158207Y-114859580D02*
X219110588Y-114764342D01*
X219110588Y-114764342D02*
X219062969Y-114573866D01*
X219062969Y-114573866D02*
X219062969Y-114335771D01*
X219062969Y-114335771D02*
X219110588Y-114145295D01*
X219110588Y-114145295D02*
X219158207Y-114050057D01*
X219158207Y-114050057D02*
X219205826Y-114002438D01*
X219205826Y-114002438D02*
X219301064Y-113954819D01*
X205865601Y-114002438D02*
X205770363Y-113954819D01*
X205770363Y-113954819D02*
X205627506Y-113954819D01*
X205627506Y-113954819D02*
X205484649Y-114002438D01*
X205484649Y-114002438D02*
X205389411Y-114097676D01*
X205389411Y-114097676D02*
X205341792Y-114192914D01*
X205341792Y-114192914D02*
X205294173Y-114383390D01*
X205294173Y-114383390D02*
X205294173Y-114526247D01*
X205294173Y-114526247D02*
X205341792Y-114716723D01*
X205341792Y-114716723D02*
X205389411Y-114811961D01*
X205389411Y-114811961D02*
X205484649Y-114907200D01*
X205484649Y-114907200D02*
X205627506Y-114954819D01*
X205627506Y-114954819D02*
X205722744Y-114954819D01*
X205722744Y-114954819D02*
X205865601Y-114907200D01*
X205865601Y-114907200D02*
X205913220Y-114859580D01*
X205913220Y-114859580D02*
X205913220Y-114526247D01*
X205913220Y-114526247D02*
X205722744Y-114526247D01*
X206341792Y-114954819D02*
X206341792Y-113954819D01*
X206341792Y-113954819D02*
X206913220Y-114954819D01*
X206913220Y-114954819D02*
X206913220Y-113954819D01*
X207389411Y-114954819D02*
X207389411Y-113954819D01*
X207389411Y-113954819D02*
X207627506Y-113954819D01*
X207627506Y-113954819D02*
X207770363Y-114002438D01*
X207770363Y-114002438D02*
X207865601Y-114097676D01*
X207865601Y-114097676D02*
X207913220Y-114192914D01*
X207913220Y-114192914D02*
X207960839Y-114383390D01*
X207960839Y-114383390D02*
X207960839Y-114526247D01*
X207960839Y-114526247D02*
X207913220Y-114716723D01*
X207913220Y-114716723D02*
X207865601Y-114811961D01*
X207865601Y-114811961D02*
X207770363Y-114907200D01*
X207770363Y-114907200D02*
X207627506Y-114954819D01*
X207627506Y-114954819D02*
X207389411Y-114954819D01*
X205865601Y-111502438D02*
X205770363Y-111454819D01*
X205770363Y-111454819D02*
X205627506Y-111454819D01*
X205627506Y-111454819D02*
X205484649Y-111502438D01*
X205484649Y-111502438D02*
X205389411Y-111597676D01*
X205389411Y-111597676D02*
X205341792Y-111692914D01*
X205341792Y-111692914D02*
X205294173Y-111883390D01*
X205294173Y-111883390D02*
X205294173Y-112026247D01*
X205294173Y-112026247D02*
X205341792Y-112216723D01*
X205341792Y-112216723D02*
X205389411Y-112311961D01*
X205389411Y-112311961D02*
X205484649Y-112407200D01*
X205484649Y-112407200D02*
X205627506Y-112454819D01*
X205627506Y-112454819D02*
X205722744Y-112454819D01*
X205722744Y-112454819D02*
X205865601Y-112407200D01*
X205865601Y-112407200D02*
X205913220Y-112359580D01*
X205913220Y-112359580D02*
X205913220Y-112026247D01*
X205913220Y-112026247D02*
X205722744Y-112026247D01*
X206341792Y-112454819D02*
X206341792Y-111454819D01*
X206341792Y-111454819D02*
X206913220Y-112454819D01*
X206913220Y-112454819D02*
X206913220Y-111454819D01*
X207389411Y-112454819D02*
X207389411Y-111454819D01*
X207389411Y-111454819D02*
X207627506Y-111454819D01*
X207627506Y-111454819D02*
X207770363Y-111502438D01*
X207770363Y-111502438D02*
X207865601Y-111597676D01*
X207865601Y-111597676D02*
X207913220Y-111692914D01*
X207913220Y-111692914D02*
X207960839Y-111883390D01*
X207960839Y-111883390D02*
X207960839Y-112026247D01*
X207960839Y-112026247D02*
X207913220Y-112216723D01*
X207913220Y-112216723D02*
X207865601Y-112311961D01*
X207865601Y-112311961D02*
X207770363Y-112407200D01*
X207770363Y-112407200D02*
X207627506Y-112454819D01*
X207627506Y-112454819D02*
X207389411Y-112454819D01*
D11*
%TO.C,U15*%
X218110000Y-63800000D02*
X218110000Y-69810000D01*
X211290000Y-66050000D02*
X211290000Y-69810000D01*
X218110000Y-69810000D02*
X216850000Y-69810000D01*
X211290000Y-69810000D02*
X212550000Y-69810000D01*
%TO.C,C12*%
X126615580Y-56760000D02*
X126334420Y-56760000D01*
X126615580Y-55740000D02*
X126334420Y-55740000D01*
%TO.C,R6*%
X143985000Y-69185436D02*
X143985000Y-69639564D01*
X142515000Y-69185436D02*
X142515000Y-69639564D01*
%TO.C,C33*%
X130865580Y-96010000D02*
X130584420Y-96010000D01*
X130865580Y-94990000D02*
X130584420Y-94990000D01*
%TO.C,R2*%
X153735000Y-69185436D02*
X153735000Y-69639564D01*
X152265000Y-69185436D02*
X152265000Y-69639564D01*
%TO.C,C13*%
X113865580Y-56760000D02*
X113584420Y-56760000D01*
X113865580Y-55740000D02*
X113584420Y-55740000D01*
%TO.C,C15*%
X113865580Y-82260000D02*
X113584420Y-82260000D01*
X113865580Y-81240000D02*
X113584420Y-81240000D01*
%TO.C,U3*%
X139365000Y-62225000D02*
X139365000Y-65675000D01*
X139365000Y-62225000D02*
X139365000Y-60275000D01*
X149485000Y-62225000D02*
X149485000Y-64175000D01*
X149485000Y-62225000D02*
X149485000Y-60275000D01*
%TO.C,C41*%
X216384420Y-61990000D02*
X216665580Y-61990000D01*
X216384420Y-63010000D02*
X216665580Y-63010000D01*
%TO.C,C8*%
X152115580Y-58260000D02*
X151834420Y-58260000D01*
X152115580Y-57240000D02*
X151834420Y-57240000D01*
%TO.C,C28*%
X130865580Y-80760000D02*
X130584420Y-80760000D01*
X130865580Y-79740000D02*
X130584420Y-79740000D01*
%TO.C,R16*%
X121485000Y-69185436D02*
X121485000Y-69639564D01*
X120015000Y-69185436D02*
X120015000Y-69639564D01*
%TO.C,C14*%
X113865580Y-58260000D02*
X113584420Y-58260000D01*
X113865580Y-57240000D02*
X113584420Y-57240000D01*
%TO.C,C36*%
X147865580Y-97510000D02*
X147584420Y-97510000D01*
X147865580Y-96490000D02*
X147584420Y-96490000D01*
%TO.C,C9*%
X139365580Y-58260000D02*
X139084420Y-58260000D01*
X139365580Y-57240000D02*
X139084420Y-57240000D01*
%TO.C,C29*%
X147865580Y-82260000D02*
X147584420Y-82260000D01*
X147865580Y-81240000D02*
X147584420Y-81240000D01*
%TO.C,R17*%
X119985000Y-73435436D02*
X119985000Y-73889564D01*
X118515000Y-73435436D02*
X118515000Y-73889564D01*
%TO.C,R34*%
X211087742Y-80477500D02*
X211562258Y-80477500D01*
X211087742Y-81522500D02*
X211562258Y-81522500D01*
%TO.C,R23*%
X182235000Y-69185436D02*
X182235000Y-69639564D01*
X180765000Y-69185436D02*
X180765000Y-69639564D01*
%TO.C,C24*%
X198865580Y-80760000D02*
X198584420Y-80760000D01*
X198865580Y-79740000D02*
X198584420Y-79740000D01*
%TO.C,D1*%
X204865000Y-60185000D02*
X207135000Y-60185000D01*
X207135000Y-60185000D02*
X207135000Y-56300000D01*
X204865000Y-56300000D02*
X204865000Y-60185000D01*
%TO.C,U2*%
X126635000Y-62225000D02*
X126635000Y-65675000D01*
X126635000Y-62225000D02*
X126635000Y-60275000D01*
X136755000Y-62225000D02*
X136755000Y-64175000D01*
X136755000Y-62225000D02*
X136755000Y-60275000D01*
%TO.C,U5*%
X177635000Y-62225000D02*
X177635000Y-65675000D01*
X177635000Y-62225000D02*
X177635000Y-60275000D01*
X187755000Y-62225000D02*
X187755000Y-64175000D01*
X187755000Y-62225000D02*
X187755000Y-60275000D01*
%TO.C,R32*%
X167985000Y-73435436D02*
X167985000Y-73889564D01*
X166515000Y-73435436D02*
X166515000Y-73889564D01*
%TO.C,C16*%
X113865580Y-80760000D02*
X113584420Y-80760000D01*
X113865580Y-79740000D02*
X113584420Y-79740000D01*
%TO.C,R38*%
X170985000Y-73435436D02*
X170985000Y-73889564D01*
X169515000Y-73435436D02*
X169515000Y-73889564D01*
%TO.C,R5*%
X145485000Y-73435436D02*
X145485000Y-73889564D01*
X144015000Y-73435436D02*
X144015000Y-73889564D01*
%TO.C,C37*%
X181865580Y-96010000D02*
X181584420Y-96010000D01*
X181865580Y-94990000D02*
X181584420Y-94990000D01*
%TO.C,R30*%
X180735000Y-73435436D02*
X180735000Y-73889564D01*
X179265000Y-73435436D02*
X179265000Y-73889564D01*
%TO.C,C1*%
X164865580Y-58260000D02*
X164584420Y-58260000D01*
X164865580Y-57240000D02*
X164584420Y-57240000D01*
%TO.C,FB1*%
X208590000Y-58502064D02*
X208590000Y-57297936D01*
X210410000Y-58502064D02*
X210410000Y-57297936D01*
%TO.C,C23*%
X198865580Y-82260000D02*
X198584420Y-82260000D01*
X198865580Y-81240000D02*
X198584420Y-81240000D01*
%TO.C,U6*%
X190385000Y-62225000D02*
X190385000Y-65675000D01*
X190385000Y-62225000D02*
X190385000Y-60275000D01*
X200505000Y-62225000D02*
X200505000Y-64175000D01*
X200505000Y-62225000D02*
X200505000Y-60275000D01*
%TO.C,U14*%
X209360000Y-63800000D02*
X209360000Y-69810000D01*
X202540000Y-66050000D02*
X202540000Y-69810000D01*
X209360000Y-69810000D02*
X208100000Y-69810000D01*
X202540000Y-69810000D02*
X203800000Y-69810000D01*
%TO.C,R15*%
X122985000Y-73435436D02*
X122985000Y-73889564D01*
X121515000Y-73435436D02*
X121515000Y-73889564D01*
%TO.C,R40*%
X158235000Y-73435436D02*
X158235000Y-73889564D01*
X156765000Y-73435436D02*
X156765000Y-73889564D01*
%TO.C,R21*%
X194985000Y-69185436D02*
X194985000Y-69639564D01*
X193515000Y-69185436D02*
X193515000Y-69639564D01*
%TO.C,C6*%
X190365580Y-56760000D02*
X190084420Y-56760000D01*
X190365580Y-55740000D02*
X190084420Y-55740000D01*
%TO.C,R19*%
X116985000Y-73435436D02*
X116985000Y-73889564D01*
X115515000Y-73435436D02*
X115515000Y-73889564D01*
%TO.C,R20*%
X115485000Y-69185436D02*
X115485000Y-69639564D01*
X114015000Y-69185436D02*
X114015000Y-69639564D01*
%TO.C,C3*%
X177615580Y-58260000D02*
X177334420Y-58260000D01*
X177615580Y-57240000D02*
X177334420Y-57240000D01*
%TO.C,C19*%
X198865580Y-96010000D02*
X198584420Y-96010000D01*
X198865580Y-94990000D02*
X198584420Y-94990000D01*
%TO.C,J6*%
X214370000Y-115870000D02*
X213040000Y-115870000D01*
X214370000Y-114540000D02*
X214370000Y-115870000D01*
X214370000Y-113270000D02*
X214370000Y-110670000D01*
X214370000Y-113270000D02*
X211770000Y-113270000D01*
X214370000Y-110670000D02*
X209170000Y-110670000D01*
X211770000Y-115870000D02*
X209170000Y-115870000D01*
X211770000Y-113270000D02*
X211770000Y-115870000D01*
X209170000Y-115870000D02*
X209170000Y-110670000D01*
%TO.C,R37*%
X179235000Y-69185436D02*
X179235000Y-69639564D01*
X177765000Y-69185436D02*
X177765000Y-69639564D01*
%TO.C,C30*%
X147865580Y-80760000D02*
X147584420Y-80760000D01*
X147865580Y-79740000D02*
X147584420Y-79740000D01*
%TO.C,U8*%
X130175000Y-92510000D02*
X130440000Y-92510000D01*
X130440000Y-92510000D02*
X130440000Y-94325000D01*
X145795000Y-92510000D02*
X145530000Y-92510000D01*
X130175000Y-88650000D02*
X130175000Y-92510000D01*
X130175000Y-88650000D02*
X130175000Y-84790000D01*
X145795000Y-88650000D02*
X145795000Y-92510000D01*
X145795000Y-88650000D02*
X145795000Y-84790000D01*
X130175000Y-84790000D02*
X130440000Y-84790000D01*
X145795000Y-84790000D02*
X145530000Y-84790000D01*
%TO.C,R22*%
X186735000Y-73435436D02*
X186735000Y-73889564D01*
X185265000Y-73435436D02*
X185265000Y-73889564D01*
%TO.C,R29*%
X185235000Y-69185436D02*
X185235000Y-69639564D01*
X183765000Y-69185436D02*
X183765000Y-69639564D01*
%TO.C,U12*%
X147175000Y-92510000D02*
X147440000Y-92510000D01*
X147440000Y-92510000D02*
X147440000Y-94325000D01*
X162795000Y-92510000D02*
X162530000Y-92510000D01*
X147175000Y-88650000D02*
X147175000Y-92510000D01*
X147175000Y-88650000D02*
X147175000Y-84790000D01*
X162795000Y-88650000D02*
X162795000Y-92510000D01*
X162795000Y-88650000D02*
X162795000Y-84790000D01*
X147175000Y-84790000D02*
X147440000Y-84790000D01*
X162795000Y-84790000D02*
X162530000Y-84790000D01*
%TO.C,C11*%
X126615580Y-58260000D02*
X126334420Y-58260000D01*
X126615580Y-57240000D02*
X126334420Y-57240000D01*
%TO.C,C18*%
X113865580Y-97510000D02*
X113584420Y-97510000D01*
X113865580Y-96490000D02*
X113584420Y-96490000D01*
%TO.C,R7*%
X142485000Y-73435436D02*
X142485000Y-73889564D01*
X141015000Y-73435436D02*
X141015000Y-73889564D01*
%TO.C,R35*%
X191985000Y-69185436D02*
X191985000Y-69639564D01*
X190515000Y-69185436D02*
X190515000Y-69639564D01*
%TO.C,R26*%
X197985000Y-69185436D02*
X197985000Y-69639564D01*
X196515000Y-69185436D02*
X196515000Y-69639564D01*
%TO.C,C2*%
X164865580Y-56760000D02*
X164584420Y-56760000D01*
X164865580Y-55740000D02*
X164584420Y-55740000D01*
%TO.C,JP1*%
X215670000Y-80170000D02*
X217000000Y-80170000D01*
X215670000Y-81500000D02*
X215670000Y-80170000D01*
X215670000Y-82770000D02*
X215670000Y-85370000D01*
X215670000Y-82770000D02*
X218330000Y-82770000D01*
X215670000Y-85370000D02*
X218330000Y-85370000D01*
X218330000Y-82770000D02*
X218330000Y-85370000D01*
%TO.C,U10*%
X198175000Y-92510000D02*
X198440000Y-92510000D01*
X198440000Y-92510000D02*
X198440000Y-94325000D01*
X213795000Y-92510000D02*
X213530000Y-92510000D01*
X198175000Y-88650000D02*
X198175000Y-92510000D01*
X198175000Y-88650000D02*
X198175000Y-84790000D01*
X213795000Y-88650000D02*
X213795000Y-92510000D01*
X213795000Y-88650000D02*
X213795000Y-84790000D01*
X198175000Y-84790000D02*
X198440000Y-84790000D01*
X213795000Y-84790000D02*
X213530000Y-84790000D01*
%TO.C,C5*%
X190365580Y-58260000D02*
X190084420Y-58260000D01*
X190365580Y-57240000D02*
X190084420Y-57240000D01*
%TO.C,R14*%
X128235000Y-69185436D02*
X128235000Y-69639564D01*
X126765000Y-69185436D02*
X126765000Y-69639564D01*
%TO.C,C35*%
X147865580Y-96010000D02*
X147584420Y-96010000D01*
X147865580Y-94990000D02*
X147584420Y-94990000D01*
%TO.C,J1*%
X156160000Y-52010000D02*
X156160000Y-49510000D01*
X155860000Y-51710000D02*
X155860000Y-38790000D01*
X155860000Y-38790000D02*
X134750000Y-38790000D01*
X154750000Y-51710000D02*
X155860000Y-51710000D01*
X152750000Y-52010000D02*
X156160000Y-52010000D01*
X152750000Y-51760000D02*
X152750000Y-52010000D01*
X114750000Y-51710000D02*
X113640000Y-51710000D01*
X113640000Y-51710000D02*
X113640000Y-38790000D01*
X113640000Y-38790000D02*
X134750000Y-38790000D01*
%TO.C,R36*%
X183735000Y-73435436D02*
X183735000Y-73889564D01*
X182265000Y-73435436D02*
X182265000Y-73889564D01*
%TO.C,C4*%
X177615580Y-56760000D02*
X177334420Y-56760000D01*
X177615580Y-55740000D02*
X177334420Y-55740000D01*
%TO.C,C26*%
X164865580Y-80760000D02*
X164584420Y-80760000D01*
X164865580Y-79740000D02*
X164584420Y-79740000D01*
%TO.C,R13*%
X129735000Y-73435436D02*
X129735000Y-73889564D01*
X128265000Y-73435436D02*
X128265000Y-73889564D01*
%TO.C,R1*%
X155235000Y-73435436D02*
X155235000Y-73889564D01*
X153765000Y-73435436D02*
X153765000Y-73889564D01*
%TO.C,C40*%
X204384420Y-61990000D02*
X204665580Y-61990000D01*
X204384420Y-63010000D02*
X204665580Y-63010000D01*
%TO.C,C21*%
X164865580Y-96010000D02*
X164584420Y-96010000D01*
X164865580Y-94990000D02*
X164584420Y-94990000D01*
%TO.C,R33*%
X159735000Y-69185436D02*
X159735000Y-69639564D01*
X158265000Y-69185436D02*
X158265000Y-69639564D01*
%TO.C,R31*%
X166485000Y-69185436D02*
X166485000Y-69639564D01*
X165015000Y-69185436D02*
X165015000Y-69639564D01*
%TO.C,C10*%
X139365580Y-56760000D02*
X139084420Y-56760000D01*
X139365580Y-55740000D02*
X139084420Y-55740000D01*
%TO.C,R27*%
X156735000Y-69185436D02*
X156735000Y-69639564D01*
X155265000Y-69185436D02*
X155265000Y-69639564D01*
%TO.C,C38*%
X181865580Y-97510000D02*
X181584420Y-97510000D01*
X181865580Y-96490000D02*
X181584420Y-96490000D01*
%TO.C,R12*%
X131235000Y-69185436D02*
X131235000Y-69639564D01*
X129765000Y-69185436D02*
X129765000Y-69639564D01*
%TO.C,R11*%
X132735000Y-73435436D02*
X132735000Y-73889564D01*
X131265000Y-73435436D02*
X131265000Y-73889564D01*
%TO.C,F1*%
X213910000Y-57297936D02*
X213910000Y-58502064D01*
X212090000Y-57297936D02*
X212090000Y-58502064D01*
%TO.C,C7*%
X152115580Y-56760000D02*
X151834420Y-56760000D01*
X152115580Y-55740000D02*
X151834420Y-55740000D01*
%TO.C,R18*%
X118485000Y-69185436D02*
X118485000Y-69639564D01*
X117015000Y-69185436D02*
X117015000Y-69639564D01*
%TO.C,R4*%
X146985000Y-69185436D02*
X146985000Y-69639564D01*
X145515000Y-69185436D02*
X145515000Y-69639564D01*
%TO.C,C31*%
X181865580Y-82260000D02*
X181584420Y-82260000D01*
X181865580Y-81240000D02*
X181584420Y-81240000D01*
%TO.C,R9*%
X135735000Y-73435436D02*
X135735000Y-73889564D01*
X134265000Y-73435436D02*
X134265000Y-73889564D01*
%TO.C,R39*%
X209837742Y-95727500D02*
X210312258Y-95727500D01*
X209837742Y-96772500D02*
X210312258Y-96772500D01*
%TO.C,R8*%
X140985000Y-69185436D02*
X140985000Y-69639564D01*
X139515000Y-69185436D02*
X139515000Y-69639564D01*
%TO.C,R25*%
X169485000Y-69185436D02*
X169485000Y-69639564D01*
X168015000Y-69185436D02*
X168015000Y-69639564D01*
%TO.C,J4*%
X214100000Y-38700000D02*
X214100000Y-53400000D01*
X204900000Y-38700000D02*
X214100000Y-38700000D01*
X204900000Y-47500000D02*
X204900000Y-38700000D01*
X214300000Y-52550000D02*
X214300000Y-53600000D01*
X214100000Y-53400000D02*
X211500000Y-53400000D01*
X207600000Y-53400000D02*
X204900000Y-53400000D01*
X204900000Y-53400000D02*
X204900000Y-51500000D01*
X213250000Y-53600000D02*
X214300000Y-53600000D01*
%TO.C,U4*%
X164885000Y-62225000D02*
X164885000Y-65675000D01*
X164885000Y-62225000D02*
X164885000Y-60275000D01*
X175005000Y-62225000D02*
X175005000Y-64175000D01*
X175005000Y-62225000D02*
X175005000Y-60275000D01*
%TO.C,U13*%
X181175000Y-92510000D02*
X181440000Y-92510000D01*
X181440000Y-92510000D02*
X181440000Y-94325000D01*
X196795000Y-92510000D02*
X196530000Y-92510000D01*
X181175000Y-88650000D02*
X181175000Y-92510000D01*
X181175000Y-88650000D02*
X181175000Y-84790000D01*
X196795000Y-88650000D02*
X196795000Y-92510000D01*
X196795000Y-88650000D02*
X196795000Y-84790000D01*
X181175000Y-84790000D02*
X181440000Y-84790000D01*
X196795000Y-84790000D02*
X196530000Y-84790000D01*
%TO.C,C39*%
X207634420Y-61990000D02*
X207915580Y-61990000D01*
X207634420Y-63010000D02*
X207915580Y-63010000D01*
%TO.C,JP2*%
X215670000Y-92920000D02*
X217000000Y-92920000D01*
X215670000Y-94250000D02*
X215670000Y-92920000D01*
X215670000Y-95520000D02*
X215670000Y-98120000D01*
X215670000Y-95520000D02*
X218330000Y-95520000D01*
X215670000Y-98120000D02*
X218330000Y-98120000D01*
X218330000Y-95520000D02*
X218330000Y-98120000D01*
%TO.C,R28*%
X193485000Y-73435436D02*
X193485000Y-73889564D01*
X192015000Y-73435436D02*
X192015000Y-73889564D01*
%TO.C,C32*%
X181865580Y-80760000D02*
X181584420Y-80760000D01*
X181865580Y-79740000D02*
X181584420Y-79740000D01*
%TO.C,C17*%
X113865580Y-96010000D02*
X113584420Y-96010000D01*
X113865580Y-94990000D02*
X113584420Y-94990000D01*
%TO.C,U7*%
X152135000Y-62225000D02*
X152135000Y-65675000D01*
X152135000Y-62225000D02*
X152135000Y-60275000D01*
X162255000Y-62225000D02*
X162255000Y-64175000D01*
X162255000Y-62225000D02*
X162255000Y-60275000D01*
%TO.C,C20*%
X198865580Y-97510000D02*
X198584420Y-97510000D01*
X198865580Y-96490000D02*
X198584420Y-96490000D01*
%TO.C,J2*%
X158890000Y-38790000D02*
X180000000Y-38790000D01*
X158890000Y-51710000D02*
X158890000Y-38790000D01*
X160000000Y-51710000D02*
X158890000Y-51710000D01*
X198000000Y-51760000D02*
X198000000Y-52010000D01*
X198000000Y-52010000D02*
X201410000Y-52010000D01*
X200000000Y-51710000D02*
X201110000Y-51710000D01*
X201110000Y-38790000D02*
X180000000Y-38790000D01*
X201110000Y-51710000D02*
X201110000Y-38790000D01*
X201410000Y-52010000D02*
X201410000Y-49510000D01*
%TO.C,C27*%
X130865580Y-82260000D02*
X130584420Y-82260000D01*
X130865580Y-81240000D02*
X130584420Y-81240000D01*
%TO.C,R24*%
X172485000Y-69185436D02*
X172485000Y-69639564D01*
X171015000Y-69185436D02*
X171015000Y-69639564D01*
%TO.C,C42*%
X213134420Y-61990000D02*
X213415580Y-61990000D01*
X213134420Y-63010000D02*
X213415580Y-63010000D01*
%TO.C,C22*%
X164865580Y-97510000D02*
X164584420Y-97510000D01*
X164865580Y-96490000D02*
X164584420Y-96490000D01*
%TO.C,U9*%
X164175000Y-92510000D02*
X164440000Y-92510000D01*
X164440000Y-92510000D02*
X164440000Y-94325000D01*
X179795000Y-92510000D02*
X179530000Y-92510000D01*
X164175000Y-88650000D02*
X164175000Y-92510000D01*
X164175000Y-88650000D02*
X164175000Y-84790000D01*
X179795000Y-88650000D02*
X179795000Y-92510000D01*
X179795000Y-88650000D02*
X179795000Y-84790000D01*
X164175000Y-84790000D02*
X164440000Y-84790000D01*
X179795000Y-84790000D02*
X179530000Y-84790000D01*
%TO.C,U11*%
X113175000Y-92510000D02*
X113440000Y-92510000D01*
X113440000Y-92510000D02*
X113440000Y-94325000D01*
X128795000Y-92510000D02*
X128530000Y-92510000D01*
X113175000Y-88650000D02*
X113175000Y-92510000D01*
X113175000Y-88650000D02*
X113175000Y-84790000D01*
X128795000Y-88650000D02*
X128795000Y-92510000D01*
X128795000Y-88650000D02*
X128795000Y-84790000D01*
X113175000Y-84790000D02*
X113440000Y-84790000D01*
X128795000Y-84790000D02*
X128530000Y-84790000D01*
%TO.C,C34*%
X130865580Y-97510000D02*
X130584420Y-97510000D01*
X130865580Y-96490000D02*
X130584420Y-96490000D01*
%TO.C,R10*%
X134235000Y-69185436D02*
X134235000Y-69639564D01*
X132765000Y-69185436D02*
X132765000Y-69639564D01*
%TO.C,C25*%
X164865580Y-82260000D02*
X164584420Y-82260000D01*
X164865580Y-81240000D02*
X164584420Y-81240000D01*
%TO.C,R3*%
X148485000Y-73435436D02*
X148485000Y-73889564D01*
X147015000Y-73435436D02*
X147015000Y-73889564D01*
%TO.C,U1*%
X113885000Y-62225000D02*
X113885000Y-65675000D01*
X113885000Y-62225000D02*
X113885000Y-60275000D01*
X124005000Y-62225000D02*
X124005000Y-64175000D01*
X124005000Y-62225000D02*
X124005000Y-60275000D01*
%TD*%
M02*
