%TF.GenerationSoftware,KiCad,Pcbnew,7.0.8*%
%TF.CreationDate,2023-10-20T14:12:00-05:00*%
%TF.ProjectId,breakout1,62726561-6b6f-4757-9431-2e6b69636164,rev?*%
%TF.SameCoordinates,Original*%
%TF.FileFunction,Soldermask,Bot*%
%TF.FilePolarity,Negative*%
%FSLAX46Y46*%
G04 Gerber Fmt 4.6, Leading zero omitted, Abs format (unit mm)*
G04 Created by KiCad (PCBNEW 7.0.8) date 2023-10-20 14:12:00*
%MOMM*%
%LPD*%
G01*
G04 APERTURE LIST*
G04 Aperture macros list*
%AMRoundRect*
0 Rectangle with rounded corners*
0 $1 Rounding radius*
0 $2 $3 $4 $5 $6 $7 $8 $9 X,Y pos of 4 corners*
0 Add a 4 corners polygon primitive as box body*
4,1,4,$2,$3,$4,$5,$6,$7,$8,$9,$2,$3,0*
0 Add four circle primitives for the rounded corners*
1,1,$1+$1,$2,$3*
1,1,$1+$1,$4,$5*
1,1,$1+$1,$6,$7*
1,1,$1+$1,$8,$9*
0 Add four rect primitives between the rounded corners*
20,1,$1+$1,$2,$3,$4,$5,0*
20,1,$1+$1,$4,$5,$6,$7,0*
20,1,$1+$1,$6,$7,$8,$9,0*
20,1,$1+$1,$8,$9,$2,$3,0*%
G04 Aperture macros list end*
%ADD10C,4.500000*%
%ADD11R,1.700000X1.700000*%
%ADD12O,1.700000X1.700000*%
%ADD13C,1.650000*%
%ADD14RoundRect,0.250000X0.350000X0.350000X-0.350000X0.350000X-0.350000X-0.350000X0.350000X-0.350000X0*%
%ADD15C,1.200000*%
%ADD16R,3.500000X3.500000*%
%ADD17RoundRect,0.750000X-1.000000X0.750000X-1.000000X-0.750000X1.000000X-0.750000X1.000000X0.750000X0*%
%ADD18RoundRect,0.875000X-0.875000X0.875000X-0.875000X-0.875000X0.875000X-0.875000X0.875000X0.875000X0*%
G04 APERTURE END LIST*
D10*
%TO.C,H1*%
X109750000Y-42500000D03*
%TD*%
D11*
%TO.C,J6*%
X213040000Y-114540000D03*
D12*
X210500000Y-114540000D03*
X213040000Y-112000000D03*
X210500000Y-112000000D03*
%TD*%
D11*
%TO.C,JP1*%
X217000000Y-81500000D03*
D12*
X217000000Y-84040000D03*
%TD*%
D13*
%TO.C,J1*%
X154650000Y-41300000D03*
X114850000Y-41300000D03*
D14*
X153750000Y-51000000D03*
D15*
X153750000Y-49000000D03*
X151750000Y-51000000D03*
X151750000Y-49000000D03*
X149750000Y-51000000D03*
X149750000Y-49000000D03*
X147750000Y-51000000D03*
X147750000Y-49000000D03*
X145750000Y-51000000D03*
X145750000Y-49000000D03*
X143750000Y-51000000D03*
X143750000Y-49000000D03*
X141750000Y-51000000D03*
X141750000Y-49000000D03*
X139750000Y-51000000D03*
X139750000Y-49000000D03*
X137750000Y-51000000D03*
X137750000Y-49000000D03*
X135750000Y-51000000D03*
X135750000Y-49000000D03*
X133750000Y-51000000D03*
X133750000Y-49000000D03*
X131750000Y-51000000D03*
X131750000Y-49000000D03*
X129750000Y-51000000D03*
X129750000Y-49000000D03*
X127750000Y-51000000D03*
X127750000Y-49000000D03*
X125750000Y-51000000D03*
X125750000Y-49000000D03*
X123750000Y-51000000D03*
X123750000Y-49000000D03*
X121750000Y-51000000D03*
X121750000Y-49000000D03*
X119750000Y-51000000D03*
X119750000Y-49000000D03*
X117750000Y-51000000D03*
X117750000Y-49000000D03*
X115750000Y-51000000D03*
X115750000Y-49000000D03*
%TD*%
D10*
%TO.C,H2*%
X218250000Y-42500000D03*
%TD*%
D16*
%TO.C,J4*%
X209500000Y-52500000D03*
D17*
X209500000Y-46500000D03*
D18*
X204800000Y-49500000D03*
%TD*%
D11*
%TO.C,JP2*%
X217000000Y-94250000D03*
D12*
X217000000Y-96790000D03*
%TD*%
D15*
%TO.C,J2*%
X161000000Y-49000000D03*
X161000000Y-51000000D03*
X163000000Y-49000000D03*
X163000000Y-51000000D03*
X165000000Y-49000000D03*
X165000000Y-51000000D03*
X167000000Y-49000000D03*
X167000000Y-51000000D03*
X169000000Y-49000000D03*
X169000000Y-51000000D03*
X171000000Y-49000000D03*
X171000000Y-51000000D03*
X173000000Y-49000000D03*
X173000000Y-51000000D03*
X175000000Y-49000000D03*
X175000000Y-51000000D03*
X177000000Y-49000000D03*
X177000000Y-51000000D03*
X179000000Y-49000000D03*
X179000000Y-51000000D03*
X181000000Y-49000000D03*
X181000000Y-51000000D03*
X183000000Y-49000000D03*
X183000000Y-51000000D03*
X185000000Y-49000000D03*
X185000000Y-51000000D03*
X187000000Y-49000000D03*
X187000000Y-51000000D03*
X189000000Y-49000000D03*
X189000000Y-51000000D03*
X191000000Y-49000000D03*
X191000000Y-51000000D03*
X193000000Y-49000000D03*
X193000000Y-51000000D03*
X195000000Y-49000000D03*
X195000000Y-51000000D03*
X197000000Y-49000000D03*
X197000000Y-51000000D03*
X199000000Y-49000000D03*
D14*
X199000000Y-51000000D03*
D13*
X160100000Y-41300000D03*
X199900000Y-41300000D03*
%TD*%
D11*
%TO.C,J3*%
X109740000Y-114540000D03*
D12*
X109740000Y-112000000D03*
X112280000Y-114540000D03*
X112280000Y-112000000D03*
X114820000Y-114540000D03*
X114820000Y-112000000D03*
X117360000Y-114540000D03*
X117360000Y-112000000D03*
X119900000Y-114540000D03*
X119900000Y-112000000D03*
X122440000Y-114540000D03*
X122440000Y-112000000D03*
X124980000Y-114540000D03*
X124980000Y-112000000D03*
X127520000Y-114540000D03*
X127520000Y-112000000D03*
X130060000Y-114540000D03*
X130060000Y-112000000D03*
X132600000Y-114540000D03*
X132600000Y-112000000D03*
X135140000Y-114540000D03*
X135140000Y-112000000D03*
X137680000Y-114540000D03*
X137680000Y-112000000D03*
X140220000Y-114540000D03*
X140220000Y-112000000D03*
X142760000Y-114540000D03*
X142760000Y-112000000D03*
X145300000Y-114540000D03*
X145300000Y-112000000D03*
X147840000Y-114540000D03*
X147840000Y-112000000D03*
X150380000Y-114540000D03*
X150380000Y-112000000D03*
X152920000Y-114540000D03*
X152920000Y-112000000D03*
X155460000Y-114540000D03*
X155460000Y-112000000D03*
X158000000Y-114540000D03*
X158000000Y-112000000D03*
X160540000Y-114540000D03*
X160540000Y-112000000D03*
X163080000Y-114540000D03*
X163080000Y-112000000D03*
X165620000Y-114540000D03*
X165620000Y-112000000D03*
X168160000Y-114540000D03*
X168160000Y-112000000D03*
X170700000Y-114540000D03*
X170700000Y-112000000D03*
X173240000Y-114540000D03*
X173240000Y-112000000D03*
X175780000Y-114540000D03*
X175780000Y-112000000D03*
X178320000Y-114540000D03*
X178320000Y-112000000D03*
%TD*%
M02*
