%TF.GenerationSoftware,KiCad,Pcbnew,7.0.8*%
%TF.CreationDate,2023-10-20T14:11:59-05:00*%
%TF.ProjectId,breakout1,62726561-6b6f-4757-9431-2e6b69636164,rev?*%
%TF.SameCoordinates,Original*%
%TF.FileFunction,Copper,L1,Top*%
%TF.FilePolarity,Positive*%
%FSLAX46Y46*%
G04 Gerber Fmt 4.6, Leading zero omitted, Abs format (unit mm)*
G04 Created by KiCad (PCBNEW 7.0.8) date 2023-10-20 14:11:59*
%MOMM*%
%LPD*%
G01*
G04 APERTURE LIST*
G04 Aperture macros list*
%AMRoundRect*
0 Rectangle with rounded corners*
0 $1 Rounding radius*
0 $2 $3 $4 $5 $6 $7 $8 $9 X,Y pos of 4 corners*
0 Add a 4 corners polygon primitive as box body*
4,1,4,$2,$3,$4,$5,$6,$7,$8,$9,$2,$3,0*
0 Add four circle primitives for the rounded corners*
1,1,$1+$1,$2,$3*
1,1,$1+$1,$4,$5*
1,1,$1+$1,$6,$7*
1,1,$1+$1,$8,$9*
0 Add four rect primitives between the rounded corners*
20,1,$1+$1,$2,$3,$4,$5,0*
20,1,$1+$1,$4,$5,$6,$7,0*
20,1,$1+$1,$6,$7,$8,$9,0*
20,1,$1+$1,$8,$9,$2,$3,0*%
G04 Aperture macros list end*
%TA.AperFunction,SMDPad,CuDef*%
%ADD10R,1.500000X2.000000*%
%TD*%
%TA.AperFunction,SMDPad,CuDef*%
%ADD11R,3.800000X2.000000*%
%TD*%
%TA.AperFunction,SMDPad,CuDef*%
%ADD12RoundRect,0.225000X0.225000X0.250000X-0.225000X0.250000X-0.225000X-0.250000X0.225000X-0.250000X0*%
%TD*%
%TA.AperFunction,SMDPad,CuDef*%
%ADD13RoundRect,0.250000X-0.450000X0.262500X-0.450000X-0.262500X0.450000X-0.262500X0.450000X0.262500X0*%
%TD*%
%TA.AperFunction,SMDPad,CuDef*%
%ADD14RoundRect,0.150000X0.150000X-0.825000X0.150000X0.825000X-0.150000X0.825000X-0.150000X-0.825000X0*%
%TD*%
%TA.AperFunction,SMDPad,CuDef*%
%ADD15RoundRect,0.225000X-0.225000X-0.250000X0.225000X-0.250000X0.225000X0.250000X-0.225000X0.250000X0*%
%TD*%
%TA.AperFunction,SMDPad,CuDef*%
%ADD16RoundRect,0.200000X-0.200000X-0.275000X0.200000X-0.275000X0.200000X0.275000X-0.200000X0.275000X0*%
%TD*%
%TA.AperFunction,SMDPad,CuDef*%
%ADD17RoundRect,0.250000X0.625000X-0.375000X0.625000X0.375000X-0.625000X0.375000X-0.625000X-0.375000X0*%
%TD*%
%TA.AperFunction,ComponentPad*%
%ADD18C,4.500000*%
%TD*%
%TA.AperFunction,ComponentPad*%
%ADD19R,1.700000X1.700000*%
%TD*%
%TA.AperFunction,ComponentPad*%
%ADD20O,1.700000X1.700000*%
%TD*%
%TA.AperFunction,SMDPad,CuDef*%
%ADD21RoundRect,0.150000X0.150000X-0.875000X0.150000X0.875000X-0.150000X0.875000X-0.150000X-0.875000X0*%
%TD*%
%TA.AperFunction,ComponentPad*%
%ADD22RoundRect,0.250000X0.350000X0.350000X-0.350000X0.350000X-0.350000X-0.350000X0.350000X-0.350000X0*%
%TD*%
%TA.AperFunction,ComponentPad*%
%ADD23C,1.200000*%
%TD*%
%TA.AperFunction,SMDPad,CuDef*%
%ADD24RoundRect,0.250000X-0.625000X0.375000X-0.625000X-0.375000X0.625000X-0.375000X0.625000X0.375000X0*%
%TD*%
%TA.AperFunction,ComponentPad*%
%ADD25R,3.500000X3.500000*%
%TD*%
%TA.AperFunction,ComponentPad*%
%ADD26RoundRect,0.750000X-1.000000X0.750000X-1.000000X-0.750000X1.000000X-0.750000X1.000000X0.750000X0*%
%TD*%
%TA.AperFunction,ComponentPad*%
%ADD27RoundRect,0.875000X-0.875000X0.875000X-0.875000X-0.875000X0.875000X-0.875000X0.875000X0.875000X0*%
%TD*%
%TA.AperFunction,ViaPad*%
%ADD28C,0.700000*%
%TD*%
%TA.AperFunction,ViaPad*%
%ADD29C,0.900000*%
%TD*%
%TA.AperFunction,ViaPad*%
%ADD30C,0.685800*%
%TD*%
%TA.AperFunction,Conductor*%
%ADD31C,0.750000*%
%TD*%
%TA.AperFunction,Conductor*%
%ADD32C,0.250000*%
%TD*%
%TA.AperFunction,Conductor*%
%ADD33C,0.500000*%
%TD*%
%TA.AperFunction,Conductor*%
%ADD34C,0.254000*%
%TD*%
G04 APERTURE END LIST*
D10*
%TO.P,U15,1,GND*%
%TO.N,GND*%
X217000000Y-64750000D03*
%TO.P,U15,2,VO*%
%TO.N,Net-(JP2-A)*%
X214700000Y-64750000D03*
D11*
X214700000Y-71050000D03*
D10*
%TO.P,U15,3,VI*%
%TO.N,Net-(JP1-A)*%
X212400000Y-64750000D03*
%TD*%
D12*
%TO.P,C12,1*%
%TO.N,+5V*%
X127250000Y-56250000D03*
%TO.P,C12,2*%
%TO.N,GND*%
X125700000Y-56250000D03*
%TD*%
D13*
%TO.P,R6,1*%
%TO.N,Bus Out 6*%
X143250000Y-68500000D03*
%TO.P,R6,2*%
%TO.N,GND*%
X143250000Y-70325000D03*
%TD*%
D12*
%TO.P,C33,1*%
%TO.N,+3V3*%
X131500000Y-95500000D03*
%TO.P,C33,2*%
%TO.N,GND*%
X129950000Y-95500000D03*
%TD*%
D13*
%TO.P,R2,1*%
%TO.N,Mark 0 Out*%
X153000000Y-68500000D03*
%TO.P,R2,2*%
%TO.N,GND*%
X153000000Y-70325000D03*
%TD*%
D12*
%TO.P,C13,1*%
%TO.N,+5V*%
X114500000Y-56250000D03*
%TO.P,C13,2*%
%TO.N,GND*%
X112950000Y-56250000D03*
%TD*%
%TO.P,C15,1*%
%TO.N,+5V*%
X114500000Y-81750000D03*
%TO.P,C15,2*%
%TO.N,GND*%
X112950000Y-81750000D03*
%TD*%
D14*
%TO.P,U3,1,DE1*%
%TO.N,5V Enable*%
X139980000Y-64700000D03*
%TO.P,U3,2,RI1*%
%TO.N,Bus In 5*%
X141250000Y-64700000D03*
%TO.P,U3,3,RO1*%
%TO.N,5V Bus In 5*%
X142520000Y-64700000D03*
%TO.P,U3,4,RI2*%
%TO.N,Bus In 6*%
X143790000Y-64700000D03*
%TO.P,U3,5,RO2*%
%TO.N,5V Bus In 6*%
X145060000Y-64700000D03*
%TO.P,U3,6,RI3*%
%TO.N,Bus In 7*%
X146330000Y-64700000D03*
%TO.P,U3,7,RO3*%
%TO.N,5V Bus In 7*%
X147600000Y-64700000D03*
%TO.P,U3,8,GND*%
%TO.N,GND*%
X148870000Y-64700000D03*
%TO.P,U3,9,DE2*%
%TO.N,5V Enable*%
X148870000Y-59750000D03*
%TO.P,U3,10,DI3*%
%TO.N,5V Bus Out 7*%
X147600000Y-59750000D03*
%TO.P,U3,11,DO3*%
%TO.N,Bus Out 7*%
X146330000Y-59750000D03*
%TO.P,U3,12,DI2*%
%TO.N,5V Bus Out 6*%
X145060000Y-59750000D03*
%TO.P,U3,13,DO2*%
%TO.N,Bus Out 6*%
X143790000Y-59750000D03*
%TO.P,U3,14,DI1*%
%TO.N,5V Bus Out 5*%
X142520000Y-59750000D03*
%TO.P,U3,15,DO1*%
%TO.N,Bus Out 5*%
X141250000Y-59750000D03*
%TO.P,U3,16,VCC*%
%TO.N,+5V*%
X139980000Y-59750000D03*
%TD*%
D15*
%TO.P,C41,1*%
%TO.N,Net-(JP2-A)*%
X215750000Y-62500000D03*
%TO.P,C41,2*%
%TO.N,GND*%
X217300000Y-62500000D03*
%TD*%
D12*
%TO.P,C8,1*%
%TO.N,+5V*%
X152750000Y-57750000D03*
%TO.P,C8,2*%
%TO.N,GND*%
X151200000Y-57750000D03*
%TD*%
%TO.P,C28,1*%
%TO.N,+5V*%
X131500000Y-80250000D03*
%TO.P,C28,2*%
%TO.N,GND*%
X129950000Y-80250000D03*
%TD*%
D13*
%TO.P,R16,1*%
%TO.N,Bus Out 1*%
X120750000Y-68500000D03*
%TO.P,R16,2*%
%TO.N,GND*%
X120750000Y-70325000D03*
%TD*%
D12*
%TO.P,C14,1*%
%TO.N,+5V*%
X114500000Y-57750000D03*
%TO.P,C14,2*%
%TO.N,GND*%
X112950000Y-57750000D03*
%TD*%
%TO.P,C36,1*%
%TO.N,+3V3*%
X148500000Y-97000000D03*
%TO.P,C36,2*%
%TO.N,GND*%
X146950000Y-97000000D03*
%TD*%
%TO.P,C9,1*%
%TO.N,+5V*%
X140000000Y-57750000D03*
%TO.P,C9,2*%
%TO.N,GND*%
X138450000Y-57750000D03*
%TD*%
%TO.P,C29,1*%
%TO.N,+5V*%
X148500000Y-81750000D03*
%TO.P,C29,2*%
%TO.N,GND*%
X146950000Y-81750000D03*
%TD*%
D13*
%TO.P,R17,1*%
%TO.N,Bus In 0*%
X119250000Y-72750000D03*
%TO.P,R17,2*%
%TO.N,GND*%
X119250000Y-74575000D03*
%TD*%
D16*
%TO.P,R34,1*%
%TO.N,5V Enable*%
X210500000Y-81000000D03*
%TO.P,R34,2*%
%TO.N,GND*%
X212150000Y-81000000D03*
%TD*%
D13*
%TO.P,R23,1*%
%TO.N,Command Out*%
X181500000Y-68500000D03*
%TO.P,R23,2*%
%TO.N,GND*%
X181500000Y-70325000D03*
%TD*%
D12*
%TO.P,C24,1*%
%TO.N,+5V*%
X199500000Y-80250000D03*
%TO.P,C24,2*%
%TO.N,GND*%
X197950000Y-80250000D03*
%TD*%
D17*
%TO.P,D1,1,K*%
%TO.N,Net-(D1-K)*%
X206000000Y-59300000D03*
%TO.P,D1,2,A*%
%TO.N,VDC*%
X206000000Y-56500000D03*
%TD*%
D14*
%TO.P,U2,1,DE1*%
%TO.N,5V Enable*%
X127250000Y-64700000D03*
%TO.P,U2,2,RI1*%
%TO.N,Bus In 2*%
X128520000Y-64700000D03*
%TO.P,U2,3,RO1*%
%TO.N,5V Bus In 2*%
X129790000Y-64700000D03*
%TO.P,U2,4,RI2*%
%TO.N,Bus In 3*%
X131060000Y-64700000D03*
%TO.P,U2,5,RO2*%
%TO.N,5V Bus In 3*%
X132330000Y-64700000D03*
%TO.P,U2,6,RI3*%
%TO.N,Bus In 4*%
X133600000Y-64700000D03*
%TO.P,U2,7,RO3*%
%TO.N,5V Bus In 4*%
X134870000Y-64700000D03*
%TO.P,U2,8,GND*%
%TO.N,GND*%
X136140000Y-64700000D03*
%TO.P,U2,9,DE2*%
%TO.N,5V Enable*%
X136140000Y-59750000D03*
%TO.P,U2,10,DI3*%
%TO.N,5V Bus Out 4*%
X134870000Y-59750000D03*
%TO.P,U2,11,DO3*%
%TO.N,Bus Out 4*%
X133600000Y-59750000D03*
%TO.P,U2,12,DI2*%
%TO.N,5V Bus Out 3*%
X132330000Y-59750000D03*
%TO.P,U2,13,DO2*%
%TO.N,Bus Out 3*%
X131060000Y-59750000D03*
%TO.P,U2,14,DI1*%
%TO.N,5V Bus Out 2*%
X129790000Y-59750000D03*
%TO.P,U2,15,DO1*%
%TO.N,Bus Out 2*%
X128520000Y-59750000D03*
%TO.P,U2,16,VCC*%
%TO.N,+5V*%
X127250000Y-59750000D03*
%TD*%
%TO.P,U5,1,DE1*%
%TO.N,5V Enable*%
X178250000Y-64700000D03*
%TO.P,U5,2,RI1*%
%TO.N,Request In*%
X179520000Y-64700000D03*
%TO.P,U5,3,RO1*%
%TO.N,5V Request In*%
X180790000Y-64700000D03*
%TO.P,U5,4,RI2*%
%TO.N,Select In*%
X182060000Y-64700000D03*
%TO.P,U5,5,RO2*%
%TO.N,5V Select In*%
X183330000Y-64700000D03*
%TO.P,U5,6,RI3*%
%TO.N,Data In*%
X184600000Y-64700000D03*
%TO.P,U5,7,RO3*%
%TO.N,5V Data In*%
X185870000Y-64700000D03*
%TO.P,U5,8,GND*%
%TO.N,GND*%
X187140000Y-64700000D03*
%TO.P,U5,9,DE2*%
%TO.N,5V Enable*%
X187140000Y-59750000D03*
%TO.P,U5,10,DI3*%
%TO.N,5V Suppress Out*%
X185870000Y-59750000D03*
%TO.P,U5,11,DO3*%
%TO.N,Suppress Out*%
X184600000Y-59750000D03*
%TO.P,U5,12,DI2*%
%TO.N,5V Command Out*%
X183330000Y-59750000D03*
%TO.P,U5,13,DO2*%
%TO.N,Command Out*%
X182060000Y-59750000D03*
%TO.P,U5,14,DI1*%
%TO.N,5V Data Out*%
X180790000Y-59750000D03*
%TO.P,U5,15,DO1*%
%TO.N,Data Out*%
X179520000Y-59750000D03*
%TO.P,U5,16,VCC*%
%TO.N,+5V*%
X178250000Y-59750000D03*
%TD*%
D13*
%TO.P,R32,1*%
%TO.N,Address In*%
X167250000Y-72750000D03*
%TO.P,R32,2*%
%TO.N,GND*%
X167250000Y-74575000D03*
%TD*%
D12*
%TO.P,C16,1*%
%TO.N,+5V*%
X114500000Y-80250000D03*
%TO.P,C16,2*%
%TO.N,GND*%
X112950000Y-80250000D03*
%TD*%
D13*
%TO.P,R38,1*%
%TO.N,Metering In*%
X170250000Y-72750000D03*
%TO.P,R38,2*%
%TO.N,GND*%
X170250000Y-74575000D03*
%TD*%
%TO.P,R5,1*%
%TO.N,Bus In 6*%
X144750000Y-72750000D03*
%TO.P,R5,2*%
%TO.N,GND*%
X144750000Y-74575000D03*
%TD*%
D12*
%TO.P,C37,1*%
%TO.N,+3V3*%
X182500000Y-95500000D03*
%TO.P,C37,2*%
%TO.N,GND*%
X180950000Y-95500000D03*
%TD*%
D13*
%TO.P,R30,1*%
%TO.N,Request In*%
X180000000Y-72750000D03*
%TO.P,R30,2*%
%TO.N,GND*%
X180000000Y-74575000D03*
%TD*%
D12*
%TO.P,C1,1*%
%TO.N,+5V*%
X165500000Y-57750000D03*
%TO.P,C1,2*%
%TO.N,GND*%
X163950000Y-57750000D03*
%TD*%
D18*
%TO.P,H1,1,1*%
%TO.N,GND*%
X109750000Y-42500000D03*
%TD*%
D17*
%TO.P,FB1,1*%
%TO.N,Net-(F1-Pad2)*%
X209500000Y-59300000D03*
%TO.P,FB1,2*%
%TO.N,VDC*%
X209500000Y-56500000D03*
%TD*%
D12*
%TO.P,C23,1*%
%TO.N,+5V*%
X199500000Y-81750000D03*
%TO.P,C23,2*%
%TO.N,GND*%
X197950000Y-81750000D03*
%TD*%
D14*
%TO.P,U6,1,DE1*%
%TO.N,5V Enable*%
X191000000Y-64700000D03*
%TO.P,U6,2,RI1*%
%TO.N,Disconnect In*%
X192270000Y-64700000D03*
%TO.P,U6,3,RO1*%
%TO.N,5V Disconnect In*%
X193540000Y-64700000D03*
%TO.P,U6,4,RI2*%
%TO.N,GND*%
X194810000Y-64700000D03*
%TO.P,U6,5,RO2*%
%TO.N,unconnected-(U6-RO2-Pad5)*%
X196080000Y-64700000D03*
%TO.P,U6,6,RI3*%
%TO.N,GND*%
X197350000Y-64700000D03*
%TO.P,U6,7,RO3*%
%TO.N,unconnected-(U6-RO3-Pad7)*%
X198620000Y-64700000D03*
%TO.P,U6,8,GND*%
%TO.N,GND*%
X199890000Y-64700000D03*
%TO.P,U6,9,DE2*%
%TO.N,5V Enable*%
X199890000Y-59750000D03*
%TO.P,U6,10,DI3*%
%TO.N,5V Operational Out*%
X198620000Y-59750000D03*
%TO.P,U6,11,DO3*%
%TO.N,Operational Out*%
X197350000Y-59750000D03*
%TO.P,U6,12,DI2*%
%TO.N,5V Service Out*%
X196080000Y-59750000D03*
%TO.P,U6,13,DO2*%
%TO.N,Service Out*%
X194810000Y-59750000D03*
%TO.P,U6,14,DI1*%
%TO.N,5V Hold Out*%
X193540000Y-59750000D03*
%TO.P,U6,15,DO1*%
%TO.N,Hold Out*%
X192270000Y-59750000D03*
%TO.P,U6,16,VCC*%
%TO.N,+5V*%
X191000000Y-59750000D03*
%TD*%
D10*
%TO.P,U14,1,GND*%
%TO.N,GND*%
X208250000Y-64750000D03*
%TO.P,U14,2,VO*%
%TO.N,Net-(JP1-A)*%
X205950000Y-64750000D03*
D11*
X205950000Y-71050000D03*
D10*
%TO.P,U14,3,VI*%
%TO.N,Net-(D1-K)*%
X203650000Y-64750000D03*
%TD*%
D13*
%TO.P,R15,1*%
%TO.N,Bus In 1*%
X122250000Y-72750000D03*
%TO.P,R15,2*%
%TO.N,GND*%
X122250000Y-74575000D03*
%TD*%
%TO.P,R40,1*%
%TO.N,Clock Out*%
X157500000Y-72750000D03*
%TO.P,R40,2*%
%TO.N,GND*%
X157500000Y-74575000D03*
%TD*%
%TO.P,R21,1*%
%TO.N,Service Out*%
X194250000Y-68500000D03*
%TO.P,R21,2*%
%TO.N,GND*%
X194250000Y-70325000D03*
%TD*%
D12*
%TO.P,C6,1*%
%TO.N,+5V*%
X191000000Y-56250000D03*
%TO.P,C6,2*%
%TO.N,GND*%
X189450000Y-56250000D03*
%TD*%
D13*
%TO.P,R19,1*%
%TO.N,Bus In P*%
X116250000Y-72750000D03*
%TO.P,R19,2*%
%TO.N,GND*%
X116250000Y-74575000D03*
%TD*%
%TO.P,R20,1*%
%TO.N,Bus Out P*%
X114750000Y-68500000D03*
%TO.P,R20,2*%
%TO.N,GND*%
X114750000Y-70325000D03*
%TD*%
D12*
%TO.P,C3,1*%
%TO.N,+5V*%
X178250000Y-57750000D03*
%TO.P,C3,2*%
%TO.N,GND*%
X176700000Y-57750000D03*
%TD*%
%TO.P,C19,1*%
%TO.N,+3V3*%
X199500000Y-95500000D03*
%TO.P,C19,2*%
%TO.N,GND*%
X197950000Y-95500000D03*
%TD*%
D19*
%TO.P,J6,1,Pin_1*%
%TO.N,GPIO0*%
X213040000Y-114540000D03*
D20*
%TO.P,J6,2,Pin_2*%
%TO.N,GND*%
X210500000Y-114540000D03*
%TO.P,J6,3,Pin_3*%
%TO.N,GPIO1*%
X213040000Y-112000000D03*
%TO.P,J6,4,Pin_4*%
%TO.N,GND*%
X210500000Y-112000000D03*
%TD*%
D13*
%TO.P,R37,1*%
%TO.N,Data Out*%
X178500000Y-68500000D03*
%TO.P,R37,2*%
%TO.N,GND*%
X178500000Y-70325000D03*
%TD*%
D12*
%TO.P,C30,1*%
%TO.N,+5V*%
X148500000Y-80250000D03*
%TO.P,C30,2*%
%TO.N,GND*%
X146950000Y-80250000D03*
%TD*%
D21*
%TO.P,U8,1,VCCA*%
%TO.N,+3V3*%
X131000000Y-93300000D03*
%TO.P,U8,2,DIR*%
X132270000Y-93300000D03*
%TO.P,U8,3,A1*%
%TO.N,3V3 Bus Out P*%
X133540000Y-93300000D03*
%TO.P,U8,4,A2*%
%TO.N,3V3 Bus Out 0*%
X134810000Y-93300000D03*
%TO.P,U8,5,A3*%
%TO.N,3V3 Bus Out 1*%
X136080000Y-93300000D03*
%TO.P,U8,6,A4*%
%TO.N,3V3 Bus Out 2*%
X137350000Y-93300000D03*
%TO.P,U8,7,A5*%
%TO.N,3V3 Bus Out 3*%
X138620000Y-93300000D03*
%TO.P,U8,8,A6*%
%TO.N,3V3 Bus Out 4*%
X139890000Y-93300000D03*
%TO.P,U8,9,A7*%
%TO.N,3V3 Bus Out 5*%
X141160000Y-93300000D03*
%TO.P,U8,10,A8*%
%TO.N,3V3 Bus Out 6*%
X142430000Y-93300000D03*
%TO.P,U8,11,GND*%
%TO.N,GND*%
X143700000Y-93300000D03*
%TO.P,U8,12,GND*%
X144970000Y-93300000D03*
%TO.P,U8,13,GND*%
X144970000Y-84000000D03*
%TO.P,U8,14,B8*%
%TO.N,5V Bus Out 6*%
X143700000Y-84000000D03*
%TO.P,U8,15,B7*%
%TO.N,5V Bus Out 5*%
X142430000Y-84000000D03*
%TO.P,U8,16,B6*%
%TO.N,5V Bus Out 4*%
X141160000Y-84000000D03*
%TO.P,U8,17,B5*%
%TO.N,5V Bus Out 3*%
X139890000Y-84000000D03*
%TO.P,U8,18,B4*%
%TO.N,5V Bus Out 2*%
X138620000Y-84000000D03*
%TO.P,U8,19,B3*%
%TO.N,5V Bus Out 1*%
X137350000Y-84000000D03*
%TO.P,U8,20,B2*%
%TO.N,5V Bus Out 0*%
X136080000Y-84000000D03*
%TO.P,U8,21,B1*%
%TO.N,5V Bus Out P*%
X134810000Y-84000000D03*
%TO.P,U8,22,~{OE}*%
%TO.N,GND*%
X133540000Y-84000000D03*
%TO.P,U8,23,VCCB*%
%TO.N,+5V*%
X132270000Y-84000000D03*
%TO.P,U8,24,VCCB*%
X131000000Y-84000000D03*
%TD*%
D13*
%TO.P,R22,1*%
%TO.N,Data In*%
X186000000Y-72750000D03*
%TO.P,R22,2*%
%TO.N,GND*%
X186000000Y-74575000D03*
%TD*%
%TO.P,R29,1*%
%TO.N,Suppress Out*%
X184500000Y-68500000D03*
%TO.P,R29,2*%
%TO.N,GND*%
X184500000Y-70325000D03*
%TD*%
D21*
%TO.P,U12,1,VCCA*%
%TO.N,+3V3*%
X148000000Y-93300000D03*
%TO.P,U12,2,DIR*%
%TO.N,GND*%
X149270000Y-93300000D03*
%TO.P,U12,3,A1*%
%TO.N,3V3 Bus In 7*%
X150540000Y-93300000D03*
%TO.P,U12,4,A2*%
%TO.N,3V3 Mark 0 In*%
X151810000Y-93300000D03*
%TO.P,U12,5,A3*%
%TO.N,3V3 Operational In*%
X153080000Y-93300000D03*
%TO.P,U12,6,A4*%
%TO.N,3V3 Status In*%
X154350000Y-93300000D03*
%TO.P,U12,7,A5*%
%TO.N,3V3 Address In*%
X155620000Y-93300000D03*
%TO.P,U12,8,A6*%
%TO.N,3V3 Metering In*%
X156890000Y-93300000D03*
%TO.P,U12,9,A7*%
%TO.N,3V3 Service In*%
X158160000Y-93300000D03*
%TO.P,U12,10,A8*%
%TO.N,unconnected-(U12-A8-Pad10)*%
X159430000Y-93300000D03*
%TO.P,U12,11,GND*%
%TO.N,GND*%
X160700000Y-93300000D03*
%TO.P,U12,12,GND*%
X161970000Y-93300000D03*
%TO.P,U12,13,GND*%
X161970000Y-84000000D03*
%TO.P,U12,14,B8*%
X160700000Y-84000000D03*
%TO.P,U12,15,B7*%
%TO.N,5V Service In*%
X159430000Y-84000000D03*
%TO.P,U12,16,B6*%
%TO.N,5V Metering In*%
X158160000Y-84000000D03*
%TO.P,U12,17,B5*%
%TO.N,5V Address In*%
X156890000Y-84000000D03*
%TO.P,U12,18,B4*%
%TO.N,5V Status In*%
X155620000Y-84000000D03*
%TO.P,U12,19,B3*%
%TO.N,5V Operational In*%
X154350000Y-84000000D03*
%TO.P,U12,20,B2*%
%TO.N,5V Mark 0 In*%
X153080000Y-84000000D03*
%TO.P,U12,21,B1*%
%TO.N,5V Bus In 7*%
X151810000Y-84000000D03*
%TO.P,U12,22,~{OE}*%
%TO.N,GND*%
X150540000Y-84000000D03*
%TO.P,U12,23,VCCB*%
%TO.N,+5V*%
X149270000Y-84000000D03*
%TO.P,U12,24,VCCB*%
X148000000Y-84000000D03*
%TD*%
D12*
%TO.P,C11,1*%
%TO.N,+5V*%
X127250000Y-57750000D03*
%TO.P,C11,2*%
%TO.N,GND*%
X125700000Y-57750000D03*
%TD*%
%TO.P,C18,1*%
%TO.N,+3V3*%
X114500000Y-97000000D03*
%TO.P,C18,2*%
%TO.N,GND*%
X112950000Y-97000000D03*
%TD*%
D13*
%TO.P,R7,1*%
%TO.N,Bus In 5*%
X141750000Y-72750000D03*
%TO.P,R7,2*%
%TO.N,GND*%
X141750000Y-74575000D03*
%TD*%
%TO.P,R35,1*%
%TO.N,Hold Out*%
X191250000Y-68500000D03*
%TO.P,R35,2*%
%TO.N,GND*%
X191250000Y-70325000D03*
%TD*%
%TO.P,R26,1*%
%TO.N,Operational Out*%
X197250000Y-68500000D03*
%TO.P,R26,2*%
%TO.N,GND*%
X197250000Y-70325000D03*
%TD*%
D12*
%TO.P,C2,1*%
%TO.N,+5V*%
X165500000Y-56250000D03*
%TO.P,C2,2*%
%TO.N,GND*%
X163950000Y-56250000D03*
%TD*%
D19*
%TO.P,JP1,1,A*%
%TO.N,Net-(JP1-A)*%
X217000000Y-81500000D03*
D20*
%TO.P,JP1,2,B*%
%TO.N,+5V*%
X217000000Y-84040000D03*
%TD*%
D21*
%TO.P,U10,1,VCCA*%
%TO.N,+3V3*%
X199000000Y-93300000D03*
%TO.P,U10,2,DIR*%
X200270000Y-93300000D03*
%TO.P,U10,3,A1*%
%TO.N,3V3 Data Out*%
X201540000Y-93300000D03*
%TO.P,U10,4,A2*%
%TO.N,3V3 Command Out*%
X202810000Y-93300000D03*
%TO.P,U10,5,A3*%
%TO.N,3V3 Suppress Out*%
X204080000Y-93300000D03*
%TO.P,U10,6,A4*%
%TO.N,3V3 Service Out*%
X205350000Y-93300000D03*
%TO.P,U10,7,A5*%
%TO.N,3V3 Operational Out*%
X206620000Y-93300000D03*
%TO.P,U10,8,A6*%
%TO.N,3V3 Hold Out*%
X207890000Y-93300000D03*
%TO.P,U10,9,A7*%
%TO.N,3V3 Enable*%
X209160000Y-93300000D03*
%TO.P,U10,10,A8*%
%TO.N,GND*%
X210430000Y-93300000D03*
%TO.P,U10,11,GND*%
X211700000Y-93300000D03*
%TO.P,U10,12,GND*%
X212970000Y-93300000D03*
%TO.P,U10,13,GND*%
X212970000Y-84000000D03*
%TO.P,U10,14,B8*%
%TO.N,unconnected-(U10-B8-Pad14)*%
X211700000Y-84000000D03*
%TO.P,U10,15,B7*%
%TO.N,5V Enable*%
X210430000Y-84000000D03*
%TO.P,U10,16,B6*%
%TO.N,5V Hold Out*%
X209160000Y-84000000D03*
%TO.P,U10,17,B5*%
%TO.N,5V Operational Out*%
X207890000Y-84000000D03*
%TO.P,U10,18,B4*%
%TO.N,5V Service Out*%
X206620000Y-84000000D03*
%TO.P,U10,19,B3*%
%TO.N,5V Suppress Out*%
X205350000Y-84000000D03*
%TO.P,U10,20,B2*%
%TO.N,5V Command Out*%
X204080000Y-84000000D03*
%TO.P,U10,21,B1*%
%TO.N,5V Data Out*%
X202810000Y-84000000D03*
%TO.P,U10,22,~{OE}*%
%TO.N,GND*%
X201540000Y-84000000D03*
%TO.P,U10,23,VCCB*%
%TO.N,+5V*%
X200270000Y-84000000D03*
%TO.P,U10,24,VCCB*%
X199000000Y-84000000D03*
%TD*%
D12*
%TO.P,C5,1*%
%TO.N,+5V*%
X191000000Y-57750000D03*
%TO.P,C5,2*%
%TO.N,GND*%
X189450000Y-57750000D03*
%TD*%
D13*
%TO.P,R14,1*%
%TO.N,Bus Out 2*%
X127500000Y-68500000D03*
%TO.P,R14,2*%
%TO.N,GND*%
X127500000Y-70325000D03*
%TD*%
D12*
%TO.P,C35,1*%
%TO.N,+3V3*%
X148500000Y-95500000D03*
%TO.P,C35,2*%
%TO.N,GND*%
X146950000Y-95500000D03*
%TD*%
D22*
%TO.P,J1,1,Pin_1*%
%TO.N,Mark 0 In*%
X153750000Y-51000000D03*
D23*
%TO.P,J1,2,Pin_2*%
%TO.N,GND*%
X153750000Y-49000000D03*
%TO.P,J1,3,Pin_3*%
%TO.N,Mark 0 Out*%
X151750000Y-51000000D03*
%TO.P,J1,4,Pin_4*%
%TO.N,GND*%
X151750000Y-49000000D03*
%TO.P,J1,5,Pin_5*%
%TO.N,Bus In 7*%
X149750000Y-51000000D03*
%TO.P,J1,6,Pin_6*%
%TO.N,GND*%
X149750000Y-49000000D03*
%TO.P,J1,7,Pin_7*%
%TO.N,Bus Out 7*%
X147750000Y-51000000D03*
%TO.P,J1,8,Pin_8*%
%TO.N,GND*%
X147750000Y-49000000D03*
%TO.P,J1,9,Pin_9*%
%TO.N,Bus In 6*%
X145750000Y-51000000D03*
%TO.P,J1,10,Pin_10*%
%TO.N,GND*%
X145750000Y-49000000D03*
%TO.P,J1,11,Pin_11*%
%TO.N,Bus Out 6*%
X143750000Y-51000000D03*
%TO.P,J1,12,Pin_12*%
%TO.N,GND*%
X143750000Y-49000000D03*
%TO.P,J1,13,Pin_13*%
%TO.N,Bus In 5*%
X141750000Y-51000000D03*
%TO.P,J1,14,Pin_14*%
%TO.N,GND*%
X141750000Y-49000000D03*
%TO.P,J1,15,Pin_15*%
%TO.N,Bus Out 5*%
X139750000Y-51000000D03*
%TO.P,J1,16,Pin_16*%
%TO.N,GND*%
X139750000Y-49000000D03*
%TO.P,J1,17,Pin_17*%
%TO.N,Bus In 4*%
X137750000Y-51000000D03*
%TO.P,J1,18,Pin_18*%
%TO.N,GND*%
X137750000Y-49000000D03*
%TO.P,J1,19,Pin_19*%
%TO.N,Bus Out 4*%
X135750000Y-51000000D03*
%TO.P,J1,20,Pin_20*%
%TO.N,GND*%
X135750000Y-49000000D03*
%TO.P,J1,21,Pin_21*%
%TO.N,Bus In 3*%
X133750000Y-51000000D03*
%TO.P,J1,22,Pin_22*%
%TO.N,GND*%
X133750000Y-49000000D03*
%TO.P,J1,23,Pin_23*%
%TO.N,Bus Out 3*%
X131750000Y-51000000D03*
%TO.P,J1,24,Pin_24*%
%TO.N,GND*%
X131750000Y-49000000D03*
%TO.P,J1,25,Pin_25*%
%TO.N,Bus In 2*%
X129750000Y-51000000D03*
%TO.P,J1,26,Pin_26*%
%TO.N,GND*%
X129750000Y-49000000D03*
%TO.P,J1,27,Pin_27*%
%TO.N,Bus Out 2*%
X127750000Y-51000000D03*
%TO.P,J1,28,Pin_28*%
%TO.N,GND*%
X127750000Y-49000000D03*
%TO.P,J1,29,Pin_29*%
%TO.N,Bus In 1*%
X125750000Y-51000000D03*
%TO.P,J1,30,Pin_30*%
%TO.N,GND*%
X125750000Y-49000000D03*
%TO.P,J1,31,Pin_31*%
%TO.N,Bus Out 1*%
X123750000Y-51000000D03*
%TO.P,J1,32,Pin_32*%
%TO.N,GND*%
X123750000Y-49000000D03*
%TO.P,J1,33,Pin_33*%
%TO.N,Bus In 0*%
X121750000Y-51000000D03*
%TO.P,J1,34,Pin_34*%
%TO.N,GND*%
X121750000Y-49000000D03*
%TO.P,J1,35,Pin_35*%
%TO.N,Bus Out 0*%
X119750000Y-51000000D03*
%TO.P,J1,36,Pin_36*%
%TO.N,GND*%
X119750000Y-49000000D03*
%TO.P,J1,37,Pin_37*%
%TO.N,Bus In P*%
X117750000Y-51000000D03*
%TO.P,J1,38,Pin_38*%
%TO.N,GND*%
X117750000Y-49000000D03*
%TO.P,J1,39,Pin_39*%
%TO.N,Bus Out P*%
X115750000Y-51000000D03*
%TO.P,J1,40,Pin_40*%
%TO.N,GND*%
X115750000Y-49000000D03*
%TD*%
D13*
%TO.P,R36,1*%
%TO.N,Select In*%
X183000000Y-72750000D03*
%TO.P,R36,2*%
%TO.N,GND*%
X183000000Y-74575000D03*
%TD*%
D12*
%TO.P,C4,1*%
%TO.N,+5V*%
X178250000Y-56250000D03*
%TO.P,C4,2*%
%TO.N,GND*%
X176700000Y-56250000D03*
%TD*%
%TO.P,C26,1*%
%TO.N,+5V*%
X165500000Y-80250000D03*
%TO.P,C26,2*%
%TO.N,GND*%
X163950000Y-80250000D03*
%TD*%
D13*
%TO.P,R13,1*%
%TO.N,Bus In 2*%
X129000000Y-72750000D03*
%TO.P,R13,2*%
%TO.N,GND*%
X129000000Y-74575000D03*
%TD*%
%TO.P,R1,1*%
%TO.N,Mark 0 In*%
X154500000Y-72750000D03*
%TO.P,R1,2*%
%TO.N,GND*%
X154500000Y-74575000D03*
%TD*%
D15*
%TO.P,C40,1*%
%TO.N,Net-(D1-K)*%
X203750000Y-62500000D03*
%TO.P,C40,2*%
%TO.N,GND*%
X205300000Y-62500000D03*
%TD*%
D12*
%TO.P,C21,1*%
%TO.N,+3V3*%
X165500000Y-95500000D03*
%TO.P,C21,2*%
%TO.N,GND*%
X163950000Y-95500000D03*
%TD*%
D13*
%TO.P,R33,1*%
%TO.N,Status In*%
X159000000Y-68500000D03*
%TO.P,R33,2*%
%TO.N,GND*%
X159000000Y-70325000D03*
%TD*%
%TO.P,R31,1*%
%TO.N,Metering Out*%
X165750000Y-68500000D03*
%TO.P,R31,2*%
%TO.N,GND*%
X165750000Y-70325000D03*
%TD*%
D12*
%TO.P,C10,1*%
%TO.N,+5V*%
X140000000Y-56250000D03*
%TO.P,C10,2*%
%TO.N,GND*%
X138450000Y-56250000D03*
%TD*%
D13*
%TO.P,R27,1*%
%TO.N,Operational In*%
X156000000Y-68500000D03*
%TO.P,R27,2*%
%TO.N,GND*%
X156000000Y-70325000D03*
%TD*%
D12*
%TO.P,C38,1*%
%TO.N,+3V3*%
X182500000Y-97000000D03*
%TO.P,C38,2*%
%TO.N,GND*%
X180950000Y-97000000D03*
%TD*%
D13*
%TO.P,R12,1*%
%TO.N,Bus Out 3*%
X130500000Y-68500000D03*
%TO.P,R12,2*%
%TO.N,GND*%
X130500000Y-70325000D03*
%TD*%
%TO.P,R11,1*%
%TO.N,Bus In 3*%
X132000000Y-72750000D03*
%TO.P,R11,2*%
%TO.N,GND*%
X132000000Y-74575000D03*
%TD*%
D24*
%TO.P,F1,1*%
%TO.N,Net-(F1-Pad1)*%
X213000000Y-56500000D03*
%TO.P,F1,2*%
%TO.N,Net-(F1-Pad2)*%
X213000000Y-59300000D03*
%TD*%
D12*
%TO.P,C7,1*%
%TO.N,+5V*%
X152750000Y-56250000D03*
%TO.P,C7,2*%
%TO.N,GND*%
X151200000Y-56250000D03*
%TD*%
D13*
%TO.P,R18,1*%
%TO.N,Bus Out 0*%
X117750000Y-68500000D03*
%TO.P,R18,2*%
%TO.N,GND*%
X117750000Y-70325000D03*
%TD*%
%TO.P,R4,1*%
%TO.N,Bus Out 7*%
X146250000Y-68500000D03*
%TO.P,R4,2*%
%TO.N,GND*%
X146250000Y-70325000D03*
%TD*%
D12*
%TO.P,C31,1*%
%TO.N,+5V*%
X182500000Y-81750000D03*
%TO.P,C31,2*%
%TO.N,GND*%
X180950000Y-81750000D03*
%TD*%
D13*
%TO.P,R9,1*%
%TO.N,Bus In 4*%
X135000000Y-72750000D03*
%TO.P,R9,2*%
%TO.N,GND*%
X135000000Y-74575000D03*
%TD*%
D16*
%TO.P,R39,1*%
%TO.N,3V3 Enable*%
X209250000Y-96250000D03*
%TO.P,R39,2*%
%TO.N,GND*%
X210900000Y-96250000D03*
%TD*%
D18*
%TO.P,H2,1,1*%
%TO.N,GND*%
X218250000Y-42500000D03*
%TD*%
D13*
%TO.P,R8,1*%
%TO.N,Bus Out 5*%
X140250000Y-68500000D03*
%TO.P,R8,2*%
%TO.N,GND*%
X140250000Y-70325000D03*
%TD*%
%TO.P,R25,1*%
%TO.N,Address Out*%
X168750000Y-68500000D03*
%TO.P,R25,2*%
%TO.N,GND*%
X168750000Y-70325000D03*
%TD*%
D25*
%TO.P,J4,1*%
%TO.N,Net-(F1-Pad1)*%
X209500000Y-52500000D03*
D26*
%TO.P,J4,2*%
%TO.N,GND*%
X209500000Y-46500000D03*
D27*
%TO.P,J4,3*%
%TO.N,N/C*%
X204800000Y-49500000D03*
%TD*%
D14*
%TO.P,U4,1,DE1*%
%TO.N,5V Enable*%
X165500000Y-64700000D03*
%TO.P,U4,2,RI1*%
%TO.N,Address In*%
X166770000Y-64700000D03*
%TO.P,U4,3,RO1*%
%TO.N,5V Address In*%
X168040000Y-64700000D03*
%TO.P,U4,4,RI2*%
%TO.N,Metering In*%
X169310000Y-64700000D03*
%TO.P,U4,5,RO2*%
%TO.N,5V Metering In*%
X170580000Y-64700000D03*
%TO.P,U4,6,RI3*%
%TO.N,Service In*%
X171850000Y-64700000D03*
%TO.P,U4,7,RO3*%
%TO.N,5V Service In*%
X173120000Y-64700000D03*
%TO.P,U4,8,GND*%
%TO.N,GND*%
X174390000Y-64700000D03*
%TO.P,U4,9,DE2*%
%TO.N,5V Enable*%
X174390000Y-59750000D03*
%TO.P,U4,10,DI3*%
%TO.N,5V Select Out*%
X173120000Y-59750000D03*
%TO.P,U4,11,DO3*%
%TO.N,Select Out*%
X171850000Y-59750000D03*
%TO.P,U4,12,DI2*%
%TO.N,5V Address Out*%
X170580000Y-59750000D03*
%TO.P,U4,13,DO2*%
%TO.N,Address Out*%
X169310000Y-59750000D03*
%TO.P,U4,14,DI1*%
%TO.N,5V Metering Out*%
X168040000Y-59750000D03*
%TO.P,U4,15,DO1*%
%TO.N,Metering Out*%
X166770000Y-59750000D03*
%TO.P,U4,16,VCC*%
%TO.N,+5V*%
X165500000Y-59750000D03*
%TD*%
D21*
%TO.P,U13,1,VCCA*%
%TO.N,+3V3*%
X182000000Y-93300000D03*
%TO.P,U13,2,DIR*%
%TO.N,GND*%
X183270000Y-93300000D03*
%TO.P,U13,3,A1*%
%TO.N,3V3 Request In*%
X184540000Y-93300000D03*
%TO.P,U13,4,A2*%
%TO.N,3V3 Select In*%
X185810000Y-93300000D03*
%TO.P,U13,5,A3*%
%TO.N,3V3 Disconnect In*%
X187080000Y-93300000D03*
%TO.P,U13,6,A4*%
%TO.N,3V3 Data In*%
X188350000Y-93300000D03*
%TO.P,U13,7,A5*%
%TO.N,unconnected-(U13-A5-Pad7)*%
X189620000Y-93300000D03*
%TO.P,U13,8,A6*%
%TO.N,unconnected-(U13-A6-Pad8)*%
X190890000Y-93300000D03*
%TO.P,U13,9,A7*%
%TO.N,unconnected-(U13-A7-Pad9)*%
X192160000Y-93300000D03*
%TO.P,U13,10,A8*%
%TO.N,unconnected-(U13-A8-Pad10)*%
X193430000Y-93300000D03*
%TO.P,U13,11,GND*%
%TO.N,GND*%
X194700000Y-93300000D03*
%TO.P,U13,12,GND*%
X195970000Y-93300000D03*
%TO.P,U13,13,GND*%
X195970000Y-84000000D03*
%TO.P,U13,14,B8*%
X194700000Y-84000000D03*
%TO.P,U13,15,B7*%
X193430000Y-84000000D03*
%TO.P,U13,16,B6*%
X192160000Y-84000000D03*
%TO.P,U13,17,B5*%
X190890000Y-84000000D03*
%TO.P,U13,18,B4*%
%TO.N,5V Data In*%
X189620000Y-84000000D03*
%TO.P,U13,19,B3*%
%TO.N,5V Disconnect In*%
X188350000Y-84000000D03*
%TO.P,U13,20,B2*%
%TO.N,5V Select In*%
X187080000Y-84000000D03*
%TO.P,U13,21,B1*%
%TO.N,5V Request In*%
X185810000Y-84000000D03*
%TO.P,U13,22,~{OE}*%
%TO.N,GND*%
X184540000Y-84000000D03*
%TO.P,U13,23,VCCB*%
%TO.N,+5V*%
X183270000Y-84000000D03*
%TO.P,U13,24,VCCB*%
X182000000Y-84000000D03*
%TD*%
D15*
%TO.P,C39,1*%
%TO.N,Net-(JP1-A)*%
X207000000Y-62500000D03*
%TO.P,C39,2*%
%TO.N,GND*%
X208550000Y-62500000D03*
%TD*%
D19*
%TO.P,JP2,1,A*%
%TO.N,Net-(JP2-A)*%
X217000000Y-94250000D03*
D20*
%TO.P,JP2,2,B*%
%TO.N,+3V3*%
X217000000Y-96790000D03*
%TD*%
D13*
%TO.P,R28,1*%
%TO.N,Disconnect In*%
X192750000Y-72750000D03*
%TO.P,R28,2*%
%TO.N,GND*%
X192750000Y-74575000D03*
%TD*%
D12*
%TO.P,C32,1*%
%TO.N,+5V*%
X182500000Y-80250000D03*
%TO.P,C32,2*%
%TO.N,GND*%
X180950000Y-80250000D03*
%TD*%
%TO.P,C17,1*%
%TO.N,+3V3*%
X114500000Y-95500000D03*
%TO.P,C17,2*%
%TO.N,GND*%
X112950000Y-95500000D03*
%TD*%
D14*
%TO.P,U7,1,DE1*%
%TO.N,5V Enable*%
X152750000Y-64700000D03*
%TO.P,U7,2,RI1*%
%TO.N,Mark 0 In*%
X154020000Y-64700000D03*
%TO.P,U7,3,RO1*%
%TO.N,5V Mark 0 In*%
X155290000Y-64700000D03*
%TO.P,U7,4,RI2*%
%TO.N,Operational In*%
X156560000Y-64700000D03*
%TO.P,U7,5,RO2*%
%TO.N,5V Operational In*%
X157830000Y-64700000D03*
%TO.P,U7,6,RI3*%
%TO.N,Status In*%
X159100000Y-64700000D03*
%TO.P,U7,7,RO3*%
%TO.N,5V Status In*%
X160370000Y-64700000D03*
%TO.P,U7,8,GND*%
%TO.N,GND*%
X161640000Y-64700000D03*
%TO.P,U7,9,DE2*%
%TO.N,5V Enable*%
X161640000Y-59750000D03*
%TO.P,U7,10,DI3*%
%TO.N,5V Clock Out*%
X160370000Y-59750000D03*
%TO.P,U7,11,DO3*%
%TO.N,Clock Out*%
X159100000Y-59750000D03*
%TO.P,U7,12,DI2*%
%TO.N,GND*%
X157830000Y-59750000D03*
%TO.P,U7,13,DO2*%
%TO.N,unconnected-(U7-DO2-Pad13)*%
X156560000Y-59750000D03*
%TO.P,U7,14,DI1*%
%TO.N,5V Mark 0 Out*%
X155290000Y-59750000D03*
%TO.P,U7,15,DO1*%
%TO.N,Mark 0 Out*%
X154020000Y-59750000D03*
%TO.P,U7,16,VCC*%
%TO.N,+5V*%
X152750000Y-59750000D03*
%TD*%
D12*
%TO.P,C20,1*%
%TO.N,+3V3*%
X199500000Y-97000000D03*
%TO.P,C20,2*%
%TO.N,GND*%
X197950000Y-97000000D03*
%TD*%
D23*
%TO.P,J2,40,Pin_40*%
%TO.N,GND*%
X161000000Y-49000000D03*
%TO.P,J2,39,Pin_39*%
%TO.N,Operational In*%
X161000000Y-51000000D03*
%TO.P,J2,38,Pin_38*%
%TO.N,GND*%
X163000000Y-49000000D03*
%TO.P,J2,37,Pin_37*%
%TO.N,Clock Out*%
X163000000Y-51000000D03*
%TO.P,J2,36,Pin_36*%
%TO.N,GND*%
X165000000Y-49000000D03*
%TO.P,J2,35,Pin_35*%
%TO.N,Status In*%
X165000000Y-51000000D03*
%TO.P,J2,34,Pin_34*%
%TO.N,GND*%
X167000000Y-49000000D03*
%TO.P,J2,33,Pin_33*%
%TO.N,Metering Out*%
X167000000Y-51000000D03*
%TO.P,J2,32,Pin_32*%
%TO.N,GND*%
X169000000Y-49000000D03*
%TO.P,J2,31,Pin_31*%
%TO.N,Address In*%
X169000000Y-51000000D03*
%TO.P,J2,30,Pin_30*%
%TO.N,GND*%
X171000000Y-49000000D03*
%TO.P,J2,29,Pin_29*%
%TO.N,Metering In*%
X171000000Y-51000000D03*
%TO.P,J2,28,Pin_28*%
%TO.N,GND*%
X173000000Y-49000000D03*
%TO.P,J2,27,Pin_27*%
%TO.N,Service In*%
X173000000Y-51000000D03*
%TO.P,J2,26,Pin_26*%
%TO.N,GND*%
X175000000Y-49000000D03*
%TO.P,J2,25,Pin_25*%
%TO.N,Request In*%
X175000000Y-51000000D03*
%TO.P,J2,24,Pin_24*%
%TO.N,GND*%
X177000000Y-49000000D03*
%TO.P,J2,23,Pin_23*%
%TO.N,Select In*%
X177000000Y-51000000D03*
%TO.P,J2,22,Pin_22*%
%TO.N,GND*%
X179000000Y-49000000D03*
%TO.P,J2,21,Pin_21*%
%TO.N,Data In*%
X179000000Y-51000000D03*
%TO.P,J2,20,Pin_20*%
%TO.N,GND*%
X181000000Y-49000000D03*
%TO.P,J2,19,Pin_19*%
%TO.N,Select Out*%
X181000000Y-51000000D03*
%TO.P,J2,18,Pin_18*%
%TO.N,unconnected-(J2-Pin_18-Pad18)*%
X183000000Y-49000000D03*
%TO.P,J2,17,Pin_17*%
%TO.N,unconnected-(J2-Pin_17-Pad17)*%
X183000000Y-51000000D03*
%TO.P,J2,16,Pin_16*%
%TO.N,GND*%
X185000000Y-49000000D03*
%TO.P,J2,15,Pin_15*%
%TO.N,Address Out*%
X185000000Y-51000000D03*
%TO.P,J2,14,Pin_14*%
%TO.N,GND*%
X187000000Y-49000000D03*
%TO.P,J2,13,Pin_13*%
%TO.N,Data Out*%
X187000000Y-51000000D03*
%TO.P,J2,12,Pin_12*%
%TO.N,GND*%
X189000000Y-49000000D03*
%TO.P,J2,11,Pin_11*%
%TO.N,Command Out*%
X189000000Y-51000000D03*
%TO.P,J2,10,Pin_10*%
%TO.N,GND*%
X191000000Y-49000000D03*
%TO.P,J2,9,Pin_9*%
%TO.N,Disconnect In*%
X191000000Y-51000000D03*
%TO.P,J2,8,Pin_8*%
%TO.N,GND*%
X193000000Y-49000000D03*
%TO.P,J2,7,Pin_7*%
%TO.N,Suppress Out*%
X193000000Y-51000000D03*
%TO.P,J2,6,Pin_6*%
%TO.N,GND*%
X195000000Y-49000000D03*
%TO.P,J2,5,Pin_5*%
%TO.N,Hold Out*%
X195000000Y-51000000D03*
%TO.P,J2,4,Pin_4*%
%TO.N,GND*%
X197000000Y-49000000D03*
%TO.P,J2,3,Pin_3*%
%TO.N,Service Out*%
X197000000Y-51000000D03*
%TO.P,J2,2,Pin_2*%
%TO.N,GND*%
X199000000Y-49000000D03*
D22*
%TO.P,J2,1,Pin_1*%
%TO.N,Operational Out*%
X199000000Y-51000000D03*
%TD*%
D12*
%TO.P,C27,1*%
%TO.N,+5V*%
X131500000Y-81750000D03*
%TO.P,C27,2*%
%TO.N,GND*%
X129950000Y-81750000D03*
%TD*%
D13*
%TO.P,R24,1*%
%TO.N,Service In*%
X171750000Y-68500000D03*
%TO.P,R24,2*%
%TO.N,GND*%
X171750000Y-70325000D03*
%TD*%
D15*
%TO.P,C42,1*%
%TO.N,Net-(JP1-A)*%
X212500000Y-62500000D03*
%TO.P,C42,2*%
%TO.N,GND*%
X214050000Y-62500000D03*
%TD*%
D12*
%TO.P,C22,1*%
%TO.N,+3V3*%
X165500000Y-97000000D03*
%TO.P,C22,2*%
%TO.N,GND*%
X163950000Y-97000000D03*
%TD*%
D21*
%TO.P,U9,1,VCCA*%
%TO.N,+3V3*%
X165000000Y-93300000D03*
%TO.P,U9,2,DIR*%
X166270000Y-93300000D03*
%TO.P,U9,3,A1*%
%TO.N,3V3 Bus Out 7*%
X167540000Y-93300000D03*
%TO.P,U9,4,A2*%
%TO.N,3V3 Mark 0 Out*%
X168810000Y-93300000D03*
%TO.P,U9,5,A3*%
%TO.N,3V3 Clock Out*%
X170080000Y-93300000D03*
%TO.P,U9,6,A4*%
%TO.N,3V3 Metering Out*%
X171350000Y-93300000D03*
%TO.P,U9,7,A5*%
%TO.N,3V3 Address Out*%
X172620000Y-93300000D03*
%TO.P,U9,8,A6*%
%TO.N,3V3 Select Out*%
X173890000Y-93300000D03*
%TO.P,U9,9,A7*%
%TO.N,GND*%
X175160000Y-93300000D03*
%TO.P,U9,10,A8*%
X176430000Y-93300000D03*
%TO.P,U9,11,GND*%
X177700000Y-93300000D03*
%TO.P,U9,12,GND*%
X178970000Y-93300000D03*
%TO.P,U9,13,GND*%
X178970000Y-84000000D03*
%TO.P,U9,14,B8*%
%TO.N,unconnected-(U9-B8-Pad14)*%
X177700000Y-84000000D03*
%TO.P,U9,15,B7*%
%TO.N,unconnected-(U9-B7-Pad15)*%
X176430000Y-84000000D03*
%TO.P,U9,16,B6*%
%TO.N,5V Select Out*%
X175160000Y-84000000D03*
%TO.P,U9,17,B5*%
%TO.N,5V Address Out*%
X173890000Y-84000000D03*
%TO.P,U9,18,B4*%
%TO.N,5V Metering Out*%
X172620000Y-84000000D03*
%TO.P,U9,19,B3*%
%TO.N,5V Clock Out*%
X171350000Y-84000000D03*
%TO.P,U9,20,B2*%
%TO.N,5V Mark 0 Out*%
X170080000Y-84000000D03*
%TO.P,U9,21,B1*%
%TO.N,5V Bus Out 7*%
X168810000Y-84000000D03*
%TO.P,U9,22,~{OE}*%
%TO.N,GND*%
X167540000Y-84000000D03*
%TO.P,U9,23,VCCB*%
%TO.N,+5V*%
X166270000Y-84000000D03*
%TO.P,U9,24,VCCB*%
X165000000Y-84000000D03*
%TD*%
%TO.P,U11,1,VCCA*%
%TO.N,+3V3*%
X114000000Y-93300000D03*
%TO.P,U11,2,DIR*%
%TO.N,GND*%
X115270000Y-93300000D03*
%TO.P,U11,3,A1*%
%TO.N,3V3 Bus In P*%
X116540000Y-93300000D03*
%TO.P,U11,4,A2*%
%TO.N,3V3 Bus In 0*%
X117810000Y-93300000D03*
%TO.P,U11,5,A3*%
%TO.N,3V3 Bus In 1*%
X119080000Y-93300000D03*
%TO.P,U11,6,A4*%
%TO.N,3V3 Bus In 2*%
X120350000Y-93300000D03*
%TO.P,U11,7,A5*%
%TO.N,3V3 Bus In 3*%
X121620000Y-93300000D03*
%TO.P,U11,8,A6*%
%TO.N,3V3 Bus In 4*%
X122890000Y-93300000D03*
%TO.P,U11,9,A7*%
%TO.N,3V3 Bus In 5*%
X124160000Y-93300000D03*
%TO.P,U11,10,A8*%
%TO.N,3V3 Bus In 6*%
X125430000Y-93300000D03*
%TO.P,U11,11,GND*%
%TO.N,GND*%
X126700000Y-93300000D03*
%TO.P,U11,12,GND*%
X127970000Y-93300000D03*
%TO.P,U11,13,GND*%
X127970000Y-84000000D03*
%TO.P,U11,14,B8*%
%TO.N,5V Bus In 6*%
X126700000Y-84000000D03*
%TO.P,U11,15,B7*%
%TO.N,5V Bus In 5*%
X125430000Y-84000000D03*
%TO.P,U11,16,B6*%
%TO.N,5V Bus In 4*%
X124160000Y-84000000D03*
%TO.P,U11,17,B5*%
%TO.N,5V Bus In 3*%
X122890000Y-84000000D03*
%TO.P,U11,18,B4*%
%TO.N,5V Bus In 2*%
X121620000Y-84000000D03*
%TO.P,U11,19,B3*%
%TO.N,5V Bus In 1*%
X120350000Y-84000000D03*
%TO.P,U11,20,B2*%
%TO.N,5V Bus In 0*%
X119080000Y-84000000D03*
%TO.P,U11,21,B1*%
%TO.N,5V Bus In P*%
X117810000Y-84000000D03*
%TO.P,U11,22,~{OE}*%
%TO.N,GND*%
X116540000Y-84000000D03*
%TO.P,U11,23,VCCB*%
%TO.N,+5V*%
X115270000Y-84000000D03*
%TO.P,U11,24,VCCB*%
X114000000Y-84000000D03*
%TD*%
D12*
%TO.P,C34,1*%
%TO.N,+3V3*%
X131500000Y-97000000D03*
%TO.P,C34,2*%
%TO.N,GND*%
X129950000Y-97000000D03*
%TD*%
D13*
%TO.P,R10,1*%
%TO.N,Bus Out 4*%
X133500000Y-68500000D03*
%TO.P,R10,2*%
%TO.N,GND*%
X133500000Y-70325000D03*
%TD*%
D12*
%TO.P,C25,1*%
%TO.N,+5V*%
X165500000Y-81750000D03*
%TO.P,C25,2*%
%TO.N,GND*%
X163950000Y-81750000D03*
%TD*%
D13*
%TO.P,R3,1*%
%TO.N,Bus In 7*%
X147750000Y-72750000D03*
%TO.P,R3,2*%
%TO.N,GND*%
X147750000Y-74575000D03*
%TD*%
D14*
%TO.P,U1,1,DE1*%
%TO.N,5V Enable*%
X114500000Y-64700000D03*
%TO.P,U1,2,RI1*%
%TO.N,Bus In P*%
X115770000Y-64700000D03*
%TO.P,U1,3,RO1*%
%TO.N,5V Bus In P*%
X117040000Y-64700000D03*
%TO.P,U1,4,RI2*%
%TO.N,Bus In 0*%
X118310000Y-64700000D03*
%TO.P,U1,5,RO2*%
%TO.N,5V Bus In 0*%
X119580000Y-64700000D03*
%TO.P,U1,6,RI3*%
%TO.N,Bus In 1*%
X120850000Y-64700000D03*
%TO.P,U1,7,RO3*%
%TO.N,5V Bus In 1*%
X122120000Y-64700000D03*
%TO.P,U1,8,GND*%
%TO.N,GND*%
X123390000Y-64700000D03*
%TO.P,U1,9,DE2*%
%TO.N,5V Enable*%
X123390000Y-59750000D03*
%TO.P,U1,10,DI3*%
%TO.N,5V Bus Out 1*%
X122120000Y-59750000D03*
%TO.P,U1,11,DO3*%
%TO.N,Bus Out 1*%
X120850000Y-59750000D03*
%TO.P,U1,12,DI2*%
%TO.N,5V Bus Out 0*%
X119580000Y-59750000D03*
%TO.P,U1,13,DO2*%
%TO.N,Bus Out 0*%
X118310000Y-59750000D03*
%TO.P,U1,14,DI1*%
%TO.N,5V Bus Out P*%
X117040000Y-59750000D03*
%TO.P,U1,15,DO1*%
%TO.N,Bus Out P*%
X115770000Y-59750000D03*
%TO.P,U1,16,VCC*%
%TO.N,+5V*%
X114500000Y-59750000D03*
%TD*%
D19*
%TO.P,J3,1,Pin_1*%
%TO.N,GND*%
X109740000Y-114540000D03*
D20*
%TO.P,J3,2,Pin_2*%
X109740000Y-112000000D03*
%TO.P,J3,3,Pin_3*%
%TO.N,3V3 Bus In 0*%
X112280000Y-114540000D03*
%TO.P,J3,4,Pin_4*%
%TO.N,3V3 Bus In P*%
X112280000Y-112000000D03*
%TO.P,J3,5,Pin_5*%
%TO.N,3V3 Bus In 2*%
X114820000Y-114540000D03*
%TO.P,J3,6,Pin_6*%
%TO.N,3V3 Bus In 1*%
X114820000Y-112000000D03*
%TO.P,J3,7,Pin_7*%
%TO.N,3V3 Bus In 4*%
X117360000Y-114540000D03*
%TO.P,J3,8,Pin_8*%
%TO.N,3V3 Bus In 3*%
X117360000Y-112000000D03*
%TO.P,J3,9,Pin_9*%
%TO.N,3V3 Bus In 6*%
X119900000Y-114540000D03*
%TO.P,J3,10,Pin_10*%
%TO.N,3V3 Bus In 5*%
X119900000Y-112000000D03*
%TO.P,J3,11,Pin_11*%
%TO.N,3V3 Bus Out 0*%
X122440000Y-114540000D03*
%TO.P,J3,12,Pin_12*%
%TO.N,3V3 Bus Out P*%
X122440000Y-112000000D03*
%TO.P,J3,13,Pin_13*%
%TO.N,3V3 Bus Out 2*%
X124980000Y-114540000D03*
%TO.P,J3,14,Pin_14*%
%TO.N,3V3 Bus Out 1*%
X124980000Y-112000000D03*
%TO.P,J3,15,Pin_15*%
%TO.N,3V3 Bus Out 4*%
X127520000Y-114540000D03*
%TO.P,J3,16,Pin_16*%
%TO.N,3V3 Bus Out 3*%
X127520000Y-112000000D03*
%TO.P,J3,17,Pin_17*%
%TO.N,GND*%
X130060000Y-114540000D03*
%TO.P,J3,18,Pin_18*%
X130060000Y-112000000D03*
%TO.P,J3,19,Pin_19*%
%TO.N,unconnected-(J3-Pin_19-Pad19)*%
X132600000Y-114540000D03*
%TO.P,J3,20,Pin_20*%
%TO.N,unconnected-(J3-Pin_20-Pad20)*%
X132600000Y-112000000D03*
%TO.P,J3,21,Pin_21*%
%TO.N,3V3 Bus Out 6*%
X135140000Y-114540000D03*
%TO.P,J3,22,Pin_22*%
%TO.N,3V3 Bus Out 5*%
X135140000Y-112000000D03*
%TO.P,J3,23,Pin_23*%
%TO.N,3V3 Mark 0 In*%
X137680000Y-114540000D03*
%TO.P,J3,24,Pin_24*%
%TO.N,3V3 Bus In 7*%
X137680000Y-112000000D03*
%TO.P,J3,25,Pin_25*%
%TO.N,3V3 Status In*%
X140220000Y-114540000D03*
%TO.P,J3,26,Pin_26*%
%TO.N,3V3 Operational In*%
X140220000Y-112000000D03*
%TO.P,J3,27,Pin_27*%
%TO.N,3V3 Metering In*%
X142760000Y-114540000D03*
%TO.P,J3,28,Pin_28*%
%TO.N,3V3 Address In*%
X142760000Y-112000000D03*
%TO.P,J3,29,Pin_29*%
%TO.N,3V3 Bus Out 7*%
X145300000Y-114540000D03*
%TO.P,J3,30,Pin_30*%
%TO.N,3V3 Service In*%
X145300000Y-112000000D03*
%TO.P,J3,31,Pin_31*%
%TO.N,3V3 Clock Out*%
X147840000Y-114540000D03*
%TO.P,J3,32,Pin_32*%
%TO.N,3V3 Mark 0 Out*%
X147840000Y-112000000D03*
%TO.P,J3,33,Pin_33*%
%TO.N,GPIO0*%
X150380000Y-114540000D03*
%TO.P,J3,34,Pin_34*%
%TO.N,GPIO1*%
X150380000Y-112000000D03*
%TO.P,J3,35,Pin_35*%
%TO.N,GND*%
X152920000Y-114540000D03*
%TO.P,J3,36,Pin_36*%
X152920000Y-112000000D03*
%TO.P,J3,37,Pin_37*%
%TO.N,unconnected-(J3-Pin_37-Pad37)*%
X155460000Y-114540000D03*
%TO.P,J3,38,Pin_38*%
%TO.N,unconnected-(J3-Pin_38-Pad38)*%
X155460000Y-112000000D03*
%TO.P,J3,39,Pin_39*%
%TO.N,3V3 Address Out*%
X158000000Y-114540000D03*
%TO.P,J3,40,Pin_40*%
%TO.N,3V3 Metering Out*%
X158000000Y-112000000D03*
%TO.P,J3,41,Pin_41*%
%TO.N,3V3 Request In*%
X160540000Y-114540000D03*
%TO.P,J3,42,Pin_42*%
%TO.N,3V3 Select Out*%
X160540000Y-112000000D03*
%TO.P,J3,43,Pin_43*%
%TO.N,3V3 Disconnect In*%
X163080000Y-114540000D03*
%TO.P,J3,44,Pin_44*%
%TO.N,3V3 Select In*%
X163080000Y-112000000D03*
%TO.P,J3,45,Pin_45*%
%TO.N,3V3 Data Out*%
X165620000Y-114540000D03*
%TO.P,J3,46,Pin_46*%
%TO.N,3V3 Data In*%
X165620000Y-112000000D03*
%TO.P,J3,47,Pin_47*%
%TO.N,3V3 Suppress Out*%
X168160000Y-114540000D03*
%TO.P,J3,48,Pin_48*%
%TO.N,3V3 Command Out*%
X168160000Y-112000000D03*
%TO.P,J3,49,Pin_49*%
%TO.N,3V3 Operational Out*%
X170700000Y-114540000D03*
%TO.P,J3,50,Pin_50*%
%TO.N,3V3 Service Out*%
X170700000Y-112000000D03*
%TO.P,J3,51,Pin_51*%
%TO.N,3V3 Enable*%
X173240000Y-114540000D03*
%TO.P,J3,52,Pin_52*%
%TO.N,3V3 Hold Out*%
X173240000Y-112000000D03*
%TO.P,J3,53,Pin_53*%
%TO.N,GND*%
X175780000Y-114540000D03*
%TO.P,J3,54,Pin_54*%
X175780000Y-112000000D03*
%TO.P,J3,55,Pin_55*%
%TO.N,unconnected-(J3-Pin_55-Pad55)*%
X178320000Y-114540000D03*
%TO.P,J3,56,Pin_56*%
%TO.N,unconnected-(J3-Pin_56-Pad56)*%
X178320000Y-112000000D03*
%TD*%
D28*
%TO.N,GND*%
X158250000Y-57750000D03*
D29*
X162000000Y-95000000D03*
X149250000Y-66500000D03*
D28*
X160750000Y-82250000D03*
D29*
X130500000Y-71500000D03*
X123750000Y-66500000D03*
X147750000Y-75750000D03*
X179000000Y-82250000D03*
X128750000Y-96000000D03*
D28*
X184500000Y-82250000D03*
D29*
X191250000Y-71500000D03*
X159000000Y-71500000D03*
X214250000Y-61250000D03*
X196000000Y-95000000D03*
X150000000Y-57750000D03*
X196750000Y-81250000D03*
X145000000Y-95000000D03*
X143250000Y-71500000D03*
X162000000Y-82250000D03*
X162750000Y-56250000D03*
D30*
X194882800Y-66750000D03*
D29*
X186000000Y-75750000D03*
X145750000Y-97000000D03*
X140250000Y-71500000D03*
X200250000Y-66500000D03*
X179750000Y-80250000D03*
X124500000Y-57750000D03*
X154500000Y-75750000D03*
X162750000Y-57750000D03*
X128750000Y-97000000D03*
X145750000Y-80250000D03*
X143750000Y-95000000D03*
X119250000Y-75750000D03*
X179750000Y-81250000D03*
D28*
X133500000Y-82250000D03*
D29*
X165750000Y-71500000D03*
X136500000Y-66500000D03*
D30*
X210250000Y-95000000D03*
D29*
X188250000Y-56250000D03*
X196750000Y-80250000D03*
D28*
X183750000Y-95000000D03*
D29*
X111750000Y-56250000D03*
D28*
X150500000Y-82250000D03*
D29*
X197250000Y-71500000D03*
X162750000Y-97000000D03*
D30*
X212000000Y-80000000D03*
D29*
X167250000Y-75750000D03*
X196750000Y-97000000D03*
X156000000Y-71500000D03*
X145750000Y-81250000D03*
X170250000Y-75750000D03*
X187500000Y-66500000D03*
X128750000Y-81250000D03*
X145750000Y-96000000D03*
X196000000Y-82250000D03*
X217250000Y-61250000D03*
X126750000Y-95000000D03*
X145000000Y-82250000D03*
X213000000Y-82250000D03*
D30*
X175250000Y-95000000D03*
D28*
X149750000Y-95000000D03*
D29*
X183000000Y-75750000D03*
X137250000Y-57750000D03*
D30*
X210750000Y-97250000D03*
D29*
X181500000Y-71500000D03*
X111750000Y-57750000D03*
X179000000Y-95000000D03*
X162750000Y-81250000D03*
X132000000Y-75750000D03*
X162750000Y-80250000D03*
X111750000Y-80250000D03*
X213000000Y-95000000D03*
X128750000Y-80250000D03*
X135000000Y-75750000D03*
X174750000Y-66500000D03*
D30*
X176500000Y-95000000D03*
D29*
X111750000Y-97000000D03*
X188250000Y-57750000D03*
X209750000Y-62500000D03*
D28*
X167500000Y-82250000D03*
D29*
X111750000Y-81750000D03*
X122250000Y-75750000D03*
X175500000Y-57750000D03*
X179750000Y-96000000D03*
X162750000Y-96000000D03*
X116250000Y-75750000D03*
X157500000Y-75750000D03*
X117750000Y-71500000D03*
X160750000Y-95000000D03*
X161250000Y-66500000D03*
X146250000Y-71500000D03*
X205500000Y-61250000D03*
X150000000Y-56250000D03*
X144750000Y-75750000D03*
X128000000Y-82250000D03*
D30*
X197750000Y-66750000D03*
X192000000Y-82250000D03*
D29*
X175500000Y-56250000D03*
X171750000Y-71500000D03*
X211750000Y-95000000D03*
X179750000Y-97000000D03*
X168750000Y-71500000D03*
D28*
X116500000Y-82250000D03*
D29*
X196750000Y-96000000D03*
X192750000Y-75750000D03*
X153000000Y-71500000D03*
D30*
X190750000Y-82250000D03*
D29*
X178500000Y-71500000D03*
X124500000Y-56250000D03*
X129000000Y-75750000D03*
D28*
X201500000Y-82250000D03*
D29*
X128000000Y-95000000D03*
X184500000Y-71500000D03*
X177750000Y-95000000D03*
X141750000Y-75750000D03*
X194250000Y-71500000D03*
D30*
X194500000Y-82250000D03*
D29*
X127500000Y-71500000D03*
X111750000Y-95500000D03*
X114750000Y-71500000D03*
X120750000Y-71500000D03*
X180000000Y-75750000D03*
D28*
X115750000Y-95000000D03*
D30*
X193250000Y-82250000D03*
D29*
X137250000Y-56250000D03*
X133500000Y-71500000D03*
X194750000Y-95000000D03*
D30*
%TO.N,Select In*%
X182750000Y-57750000D03*
%TO.N,Request In*%
X180212600Y-57750000D03*
%TO.N,Data In*%
X185250000Y-57750000D03*
D28*
%TO.N,5V Bus In P*%
X116750000Y-66750000D03*
X117500000Y-78250000D03*
%TO.N,5V Bus In 0*%
X119250000Y-66750000D03*
X118250000Y-77500000D03*
D30*
%TO.N,5V Bus Out 1*%
X126000000Y-66500000D03*
D28*
X122500000Y-57750000D03*
D30*
%TO.N,5V Bus Out 0*%
X125250000Y-67500000D03*
D28*
X120000000Y-57750000D03*
D30*
%TO.N,5V Bus Out P*%
X124500000Y-68500000D03*
D28*
X117500000Y-57750000D03*
%TO.N,5V Bus In 2*%
X124250000Y-77750000D03*
X129500000Y-66750000D03*
%TO.N,5V Bus In 3*%
X132000000Y-66750000D03*
X125500000Y-77750000D03*
D29*
%TO.N,+5V*%
X115750000Y-80250000D03*
X114500000Y-55000000D03*
X200750000Y-80250000D03*
X127250000Y-55000000D03*
X183750000Y-80250000D03*
X132750000Y-80250000D03*
X191000000Y-55000000D03*
X140000000Y-55000000D03*
X178250000Y-55000000D03*
X149750000Y-80250000D03*
X152750000Y-55000000D03*
X166750000Y-80250000D03*
X165500000Y-55000000D03*
D28*
%TO.N,5V Bus In 4*%
X125500000Y-79000000D03*
D30*
X136000000Y-76250000D03*
%TO.N,5V Bus Out 4*%
X138750000Y-66500000D03*
D28*
X135250000Y-57750000D03*
%TO.N,5V Bus Out 3*%
X132750000Y-57750000D03*
D30*
X138000000Y-67500000D03*
D28*
%TO.N,5V Bus Out 2*%
X130250000Y-57750000D03*
D30*
X137250000Y-68500000D03*
D28*
%TO.N,5V Bus In 5*%
X142250000Y-66750000D03*
X126750000Y-79000000D03*
%TO.N,5V Bus In 6*%
X126750000Y-80250000D03*
X144750000Y-66750000D03*
D30*
%TO.N,5V Bus In 7*%
X149195633Y-76250000D03*
X151750000Y-80250000D03*
D28*
%TO.N,5V Bus Out 7*%
X148000000Y-57750000D03*
D30*
X151500000Y-66500000D03*
D28*
%TO.N,5V Bus Out 6*%
X145500000Y-57750000D03*
D30*
X150750000Y-67500000D03*
%TO.N,5V Bus Out 5*%
X150000000Y-68500000D03*
D28*
X143000000Y-57750000D03*
D30*
%TO.N,5V Operational In*%
X153000000Y-79000000D03*
D28*
X157500000Y-66750000D03*
D30*
%TO.N,5V Status In*%
X157500000Y-77750000D03*
X160000000Y-75250000D03*
%TO.N,5V Address In*%
X158750000Y-77750000D03*
D28*
X167750000Y-66750000D03*
%TO.N,5V Command Out*%
X183750000Y-57750000D03*
D30*
X189000000Y-67500000D03*
%TO.N,5V Address Out*%
X176250000Y-67500000D03*
D28*
X171000000Y-57750000D03*
D30*
%TO.N,5V Select Out*%
X177000000Y-66500000D03*
D28*
X173500000Y-57750000D03*
D30*
%TO.N,5V Service In*%
X172750000Y-75250000D03*
X160000000Y-79000000D03*
%TO.N,5V Select In*%
X184500000Y-77750000D03*
D28*
X183000000Y-66750000D03*
%TO.N,5V Request In*%
X180500000Y-66750000D03*
D30*
X183250000Y-77750000D03*
D28*
%TO.N,5V Data Out*%
X181250000Y-57750000D03*
D30*
X188250000Y-68500000D03*
D28*
%TO.N,5V Suppress Out*%
X186250000Y-57750000D03*
D30*
X189750000Y-66500000D03*
D28*
%TO.N,5V Disconnect In*%
X193250000Y-66750000D03*
D30*
X186750000Y-79000000D03*
D28*
%TO.N,5V Enable*%
X138250000Y-54000000D03*
X151000000Y-54000000D03*
X125500000Y-54000000D03*
X183500000Y-54000000D03*
D30*
X188000000Y-55000000D03*
D28*
X112500000Y-60500000D03*
X176500000Y-54000000D03*
X163750000Y-54000000D03*
X199890000Y-57140000D03*
%TO.N,5V Hold Out*%
X199500000Y-68500000D03*
X194000000Y-57750000D03*
D30*
%TO.N,5V Mark 0 In*%
X151750000Y-79000000D03*
D28*
X155000000Y-66750000D03*
D30*
%TO.N,5V Metering In*%
X158750000Y-79000000D03*
D28*
X170250000Y-66750000D03*
D30*
%TO.N,5V Metering Out*%
X175500000Y-68500000D03*
D28*
X168500000Y-57750000D03*
%TO.N,5V Clock Out*%
X160750000Y-57750000D03*
D30*
X164250000Y-66500000D03*
D28*
%TO.N,5V Mark 0 Out*%
X155750000Y-57750000D03*
D30*
X162750000Y-68500000D03*
D28*
%TO.N,+3V3*%
X132750000Y-95000000D03*
X166750000Y-95000000D03*
D29*
X148500000Y-98250000D03*
X165500000Y-98250000D03*
X182500000Y-98250000D03*
X131500000Y-98250000D03*
X114500000Y-98250000D03*
D28*
X200750000Y-95000000D03*
D29*
X199500000Y-98250000D03*
%TD*%
D31*
%TO.N,Net-(JP2-A)*%
X214700000Y-71050000D02*
X214700000Y-73950000D01*
X214700000Y-73950000D02*
X220000000Y-79250000D01*
X220000000Y-79250000D02*
X220000000Y-88500000D01*
X220000000Y-88500000D02*
X217000000Y-91500000D01*
X217000000Y-91500000D02*
X217000000Y-94250000D01*
%TO.N,Net-(JP1-A)*%
X205950000Y-71050000D02*
X205950000Y-73450000D01*
X205950000Y-73450000D02*
X207000000Y-74500000D01*
X207000000Y-74500000D02*
X212500000Y-74500000D01*
X212500000Y-74500000D02*
X217000000Y-79000000D01*
X217000000Y-79000000D02*
X217000000Y-81500000D01*
D32*
%TO.N,Bus Out P*%
X115770000Y-61730000D02*
X115770000Y-59750000D01*
X114692600Y-68442600D02*
X114750000Y-68500000D01*
X115750000Y-51000000D02*
X115750000Y-59730000D01*
X115077400Y-66750000D02*
X115077400Y-62422600D01*
X114750000Y-67077400D02*
X115077400Y-66750000D01*
X115077400Y-62422600D02*
X115770000Y-61730000D01*
X114750000Y-68500000D02*
X114750000Y-67077400D01*
X115750000Y-59730000D02*
X115770000Y-59750000D01*
D33*
%TO.N,GND*%
X146250000Y-70325000D02*
X146250000Y-71500000D01*
D31*
X180950000Y-95500000D02*
X180950000Y-97000000D01*
D34*
X192160000Y-82410000D02*
X192000000Y-82250000D01*
D32*
X115270000Y-93300000D02*
X115270000Y-94520000D01*
D33*
X191250000Y-70325000D02*
X191250000Y-71500000D01*
D31*
X180950000Y-97000000D02*
X179750000Y-97000000D01*
D32*
X197350000Y-64700000D02*
X197350000Y-66350000D01*
D31*
X163950000Y-80250000D02*
X163950000Y-81750000D01*
X189450000Y-57750000D02*
X188250000Y-57750000D01*
X163950000Y-57750000D02*
X162750000Y-57750000D01*
X129950000Y-97000000D02*
X128750000Y-97000000D01*
X151200000Y-56250000D02*
X150000000Y-56250000D01*
D33*
X197250000Y-70325000D02*
X197250000Y-71500000D01*
D31*
X177700000Y-94950000D02*
X177750000Y-95000000D01*
D32*
X201540000Y-82290000D02*
X201500000Y-82250000D01*
D31*
X217300000Y-62500000D02*
X217300000Y-61300000D01*
X178970000Y-84000000D02*
X178970000Y-82280000D01*
D34*
X192160000Y-84000000D02*
X192160000Y-82410000D01*
D31*
X163950000Y-56250000D02*
X163950000Y-57750000D01*
X212970000Y-94970000D02*
X213000000Y-95000000D01*
D33*
X171750000Y-70325000D02*
X171750000Y-71500000D01*
X181500000Y-70325000D02*
X181500000Y-71500000D01*
D34*
X194810000Y-64700000D02*
X194810000Y-66677200D01*
X193430000Y-84000000D02*
X193430000Y-82430000D01*
D32*
X201540000Y-84000000D02*
X201540000Y-82290000D01*
D31*
X189450000Y-56250000D02*
X188250000Y-56250000D01*
D33*
X165750000Y-71500000D02*
X165750000Y-70325000D01*
D31*
X138450000Y-56250000D02*
X137250000Y-56250000D01*
D34*
X176430000Y-93300000D02*
X176430000Y-94930000D01*
D31*
X151200000Y-57750000D02*
X150000000Y-57750000D01*
D32*
X157830000Y-58170000D02*
X158250000Y-57750000D01*
X116540000Y-82290000D02*
X116500000Y-82250000D01*
D31*
X199890000Y-64700000D02*
X199890000Y-66140000D01*
X212970000Y-82280000D02*
X213000000Y-82250000D01*
X144970000Y-94970000D02*
X145000000Y-95000000D01*
D34*
X175160000Y-94910000D02*
X175250000Y-95000000D01*
D32*
X133540000Y-82290000D02*
X133500000Y-82250000D01*
D31*
X197950000Y-80250000D02*
X196750000Y-80250000D01*
D34*
X194700000Y-82450000D02*
X194500000Y-82250000D01*
D31*
X187140000Y-64700000D02*
X187140000Y-66140000D01*
X208550000Y-64450000D02*
X208250000Y-64750000D01*
D34*
X194810000Y-66677200D02*
X194882800Y-66750000D01*
D33*
X132000000Y-74575000D02*
X132000000Y-75750000D01*
X120750000Y-70325000D02*
X120750000Y-71500000D01*
D31*
X178970000Y-93300000D02*
X178970000Y-94970000D01*
X197950000Y-95500000D02*
X197250000Y-95500000D01*
X112950000Y-57750000D02*
X111750000Y-57750000D01*
X138450000Y-56250000D02*
X138450000Y-57750000D01*
D34*
X190890000Y-84000000D02*
X190890000Y-82390000D01*
D32*
X184540000Y-84000000D02*
X184540000Y-82290000D01*
D34*
X210430000Y-94820000D02*
X210250000Y-95000000D01*
D31*
X195970000Y-82280000D02*
X196000000Y-82250000D01*
X127970000Y-94970000D02*
X128000000Y-95000000D01*
X211700000Y-93300000D02*
X211700000Y-94950000D01*
X197250000Y-95500000D02*
X196750000Y-96000000D01*
D33*
X117750000Y-70325000D02*
X117750000Y-71500000D01*
D31*
X160700000Y-94950000D02*
X160750000Y-95000000D01*
D33*
X168750000Y-70325000D02*
X168750000Y-71500000D01*
X178500000Y-70325000D02*
X178500000Y-71500000D01*
D31*
X163950000Y-81750000D02*
X163250000Y-81750000D01*
X211700000Y-94950000D02*
X211750000Y-95000000D01*
X197950000Y-97000000D02*
X196750000Y-97000000D01*
D34*
X212150000Y-81000000D02*
X212150000Y-80150000D01*
D33*
X192750000Y-74575000D02*
X192750000Y-75750000D01*
D32*
X115270000Y-94520000D02*
X115750000Y-95000000D01*
D31*
X129250000Y-81750000D02*
X128750000Y-81250000D01*
D34*
X194700000Y-84000000D02*
X194700000Y-82450000D01*
D31*
X178970000Y-82280000D02*
X179000000Y-82250000D01*
X146250000Y-81750000D02*
X145750000Y-81250000D01*
X197250000Y-81750000D02*
X196750000Y-81250000D01*
D34*
X175160000Y-93300000D02*
X175160000Y-94910000D01*
D31*
X197950000Y-80250000D02*
X197950000Y-81750000D01*
X112950000Y-97000000D02*
X111750000Y-97000000D01*
D34*
X212150000Y-80150000D02*
X212000000Y-80000000D01*
D33*
X184500000Y-70325000D02*
X184500000Y-71500000D01*
D31*
X212970000Y-93300000D02*
X212970000Y-94970000D01*
D33*
X140250000Y-70325000D02*
X140250000Y-71500000D01*
D31*
X129950000Y-80250000D02*
X128750000Y-80250000D01*
X163950000Y-97000000D02*
X162750000Y-97000000D01*
X205300000Y-61450000D02*
X205500000Y-61250000D01*
X176700000Y-56250000D02*
X176700000Y-57750000D01*
X212970000Y-84000000D02*
X212970000Y-82280000D01*
D33*
X127500000Y-70325000D02*
X127500000Y-71500000D01*
X153000000Y-70325000D02*
X153000000Y-71500000D01*
D32*
X183270000Y-93300000D02*
X183270000Y-94520000D01*
D31*
X208550000Y-62500000D02*
X208550000Y-64450000D01*
D32*
X183270000Y-94520000D02*
X183750000Y-95000000D01*
D31*
X127970000Y-93300000D02*
X127970000Y-94970000D01*
D34*
X176430000Y-94930000D02*
X176500000Y-95000000D01*
D31*
X161640000Y-64700000D02*
X161640000Y-66110000D01*
X143700000Y-94950000D02*
X143750000Y-95000000D01*
D33*
X116250000Y-74575000D02*
X116250000Y-75750000D01*
D31*
X163950000Y-95500000D02*
X163950000Y-97000000D01*
X146950000Y-97000000D02*
X145750000Y-97000000D01*
X217300000Y-61300000D02*
X217250000Y-61250000D01*
X161970000Y-84000000D02*
X161970000Y-82280000D01*
X112950000Y-80250000D02*
X111750000Y-80250000D01*
X163250000Y-81750000D02*
X162750000Y-81250000D01*
X161640000Y-66110000D02*
X161250000Y-66500000D01*
D32*
X133540000Y-84000000D02*
X133540000Y-82290000D01*
D33*
X154500000Y-74575000D02*
X154500000Y-75750000D01*
X143250000Y-70325000D02*
X143250000Y-71500000D01*
D31*
X148870000Y-66120000D02*
X149250000Y-66500000D01*
X112950000Y-81750000D02*
X111750000Y-81750000D01*
X148870000Y-64700000D02*
X148870000Y-66120000D01*
D33*
X129000000Y-74575000D02*
X129000000Y-75750000D01*
D31*
X129950000Y-81750000D02*
X129250000Y-81750000D01*
X146950000Y-95500000D02*
X146950000Y-97000000D01*
X129950000Y-80250000D02*
X129950000Y-81750000D01*
X161970000Y-82280000D02*
X162000000Y-82250000D01*
X195970000Y-93300000D02*
X195970000Y-94970000D01*
D32*
X160700000Y-82300000D02*
X160750000Y-82250000D01*
D31*
X194700000Y-94950000D02*
X194750000Y-95000000D01*
X195970000Y-94970000D02*
X196000000Y-95000000D01*
X199890000Y-66140000D02*
X200250000Y-66500000D01*
D32*
X150540000Y-82290000D02*
X150500000Y-82250000D01*
D31*
X112950000Y-95500000D02*
X111750000Y-95500000D01*
D32*
X116540000Y-84000000D02*
X116540000Y-82290000D01*
D31*
X146950000Y-81750000D02*
X146250000Y-81750000D01*
X112950000Y-56250000D02*
X112950000Y-57750000D01*
X178970000Y-94970000D02*
X179000000Y-95000000D01*
X129950000Y-95500000D02*
X129250000Y-95500000D01*
X163250000Y-95500000D02*
X162750000Y-96000000D01*
X214050000Y-62500000D02*
X214050000Y-61450000D01*
X129250000Y-95500000D02*
X128750000Y-96000000D01*
D33*
X144750000Y-74575000D02*
X144750000Y-75750000D01*
D34*
X210900000Y-97100000D02*
X210750000Y-97250000D01*
D31*
X180950000Y-95500000D02*
X180250000Y-95500000D01*
D33*
X159000000Y-70325000D02*
X159000000Y-71500000D01*
X135000000Y-74575000D02*
X135000000Y-75750000D01*
D31*
X180950000Y-81750000D02*
X180250000Y-81750000D01*
D32*
X149270000Y-94520000D02*
X149750000Y-95000000D01*
D34*
X210900000Y-96250000D02*
X210900000Y-97100000D01*
D31*
X160700000Y-93300000D02*
X160700000Y-94950000D01*
X143700000Y-93300000D02*
X143700000Y-94950000D01*
D33*
X147750000Y-74575000D02*
X147750000Y-75750000D01*
X167250000Y-74575000D02*
X167250000Y-75750000D01*
D31*
X177700000Y-93300000D02*
X177700000Y-94950000D01*
X161970000Y-93300000D02*
X161970000Y-94970000D01*
X112950000Y-56250000D02*
X111750000Y-56250000D01*
X136140000Y-66140000D02*
X136500000Y-66500000D01*
X144970000Y-93300000D02*
X144970000Y-94970000D01*
X174390000Y-64700000D02*
X174390000Y-66140000D01*
D32*
X157830000Y-59750000D02*
X157830000Y-58170000D01*
D31*
X146250000Y-95500000D02*
X145750000Y-96000000D01*
X176700000Y-57750000D02*
X175500000Y-57750000D01*
X163950000Y-80250000D02*
X162750000Y-80250000D01*
X144970000Y-82280000D02*
X145000000Y-82250000D01*
X126700000Y-93300000D02*
X126700000Y-94950000D01*
X138450000Y-57750000D02*
X137250000Y-57750000D01*
D32*
X197350000Y-66350000D02*
X197750000Y-66750000D01*
D31*
X180950000Y-80250000D02*
X179750000Y-80250000D01*
D33*
X130500000Y-70325000D02*
X130500000Y-71500000D01*
X156000000Y-70325000D02*
X156000000Y-71500000D01*
D31*
X197950000Y-95500000D02*
X197950000Y-97000000D01*
X146950000Y-80250000D02*
X146950000Y-81750000D01*
X214050000Y-61450000D02*
X214250000Y-61250000D01*
X125700000Y-57750000D02*
X124500000Y-57750000D01*
X180250000Y-81750000D02*
X179750000Y-81250000D01*
X161970000Y-94970000D02*
X162000000Y-95000000D01*
D32*
X149270000Y-93300000D02*
X149270000Y-94520000D01*
D33*
X157500000Y-74575000D02*
X157500000Y-75750000D01*
D32*
X184540000Y-82290000D02*
X184500000Y-82250000D01*
D33*
X122250000Y-74575000D02*
X122250000Y-75750000D01*
X180000000Y-74575000D02*
X180000000Y-75750000D01*
D31*
X127970000Y-84000000D02*
X127970000Y-82280000D01*
X195970000Y-84000000D02*
X195970000Y-82280000D01*
D33*
X194250000Y-70325000D02*
X194250000Y-71500000D01*
D31*
X189450000Y-56250000D02*
X189450000Y-57750000D01*
X151200000Y-56250000D02*
X151200000Y-57750000D01*
X112950000Y-80250000D02*
X112950000Y-81750000D01*
X194700000Y-93300000D02*
X194700000Y-94950000D01*
D32*
X150540000Y-84000000D02*
X150540000Y-82290000D01*
D31*
X197950000Y-81750000D02*
X197250000Y-81750000D01*
D33*
X170250000Y-74575000D02*
X170250000Y-75750000D01*
D31*
X180250000Y-95500000D02*
X179750000Y-96000000D01*
X217300000Y-64450000D02*
X217000000Y-64750000D01*
D33*
X133500000Y-70325000D02*
X133500000Y-71500000D01*
X119250000Y-74575000D02*
X119250000Y-75750000D01*
D31*
X123390000Y-64700000D02*
X123390000Y-66140000D01*
D34*
X193430000Y-82430000D02*
X193250000Y-82250000D01*
D31*
X112950000Y-95500000D02*
X112950000Y-97000000D01*
D32*
X167540000Y-84000000D02*
X167540000Y-82290000D01*
D31*
X127970000Y-82280000D02*
X128000000Y-82250000D01*
D33*
X114750000Y-70325000D02*
X114750000Y-71500000D01*
X186000000Y-74575000D02*
X186000000Y-75750000D01*
D31*
X205300000Y-62500000D02*
X205300000Y-61450000D01*
X217300000Y-62500000D02*
X217300000Y-64450000D01*
D34*
X210430000Y-93300000D02*
X210430000Y-94820000D01*
D32*
X167540000Y-82290000D02*
X167500000Y-82250000D01*
D31*
X129950000Y-95500000D02*
X129950000Y-97000000D01*
X125700000Y-56250000D02*
X125700000Y-57750000D01*
D33*
X141750000Y-74575000D02*
X141750000Y-75750000D01*
X183000000Y-74575000D02*
X183000000Y-75750000D01*
D31*
X208550000Y-62500000D02*
X209750000Y-62500000D01*
X180950000Y-81750000D02*
X180950000Y-80250000D01*
X123390000Y-66140000D02*
X123750000Y-66500000D01*
X125700000Y-56250000D02*
X124500000Y-56250000D01*
X163950000Y-56250000D02*
X162750000Y-56250000D01*
D32*
X160700000Y-84000000D02*
X160700000Y-82300000D01*
D34*
X190890000Y-82390000D02*
X190750000Y-82250000D01*
D31*
X146950000Y-95500000D02*
X146250000Y-95500000D01*
X144970000Y-84000000D02*
X144970000Y-82280000D01*
X174390000Y-66140000D02*
X174750000Y-66500000D01*
X146950000Y-80250000D02*
X145750000Y-80250000D01*
X163950000Y-95500000D02*
X163250000Y-95500000D01*
X126700000Y-94950000D02*
X126750000Y-95000000D01*
X176700000Y-56250000D02*
X175500000Y-56250000D01*
X187140000Y-66140000D02*
X187500000Y-66500000D01*
X136140000Y-64700000D02*
X136140000Y-66140000D01*
D32*
%TO.N,Bus Out 0*%
X118310000Y-53940000D02*
X119750000Y-52500000D01*
X118310000Y-59750000D02*
X118310000Y-53940000D01*
X117750000Y-68500000D02*
X117732600Y-68482600D01*
X117732600Y-67982600D02*
X117732600Y-62517400D01*
X119750000Y-52500000D02*
X119750000Y-51000000D01*
X117732600Y-62517400D02*
X118310000Y-61940000D01*
X118310000Y-61940000D02*
X118310000Y-59750000D01*
%TO.N,Bus Out 1*%
X120850000Y-61900000D02*
X120250000Y-62500000D01*
X120850000Y-59750000D02*
X120850000Y-55400000D01*
X120250000Y-62500000D02*
X120250000Y-66500000D01*
X123750000Y-52500000D02*
X123750000Y-51000000D01*
X120750000Y-67000000D02*
X120750000Y-68500000D01*
X120850000Y-59750000D02*
X120850000Y-61900000D01*
X120250000Y-66500000D02*
X120750000Y-67000000D01*
X120850000Y-55400000D02*
X123750000Y-52500000D01*
%TO.N,Bus Out 2*%
X127750000Y-52480000D02*
X127750000Y-51000000D01*
X128520000Y-59750000D02*
X128520000Y-53250000D01*
X128520000Y-53250000D02*
X127750000Y-52480000D01*
X127827400Y-62500000D02*
X127827400Y-66750000D01*
X128520000Y-59750000D02*
X128520000Y-61807400D01*
X128520000Y-61807400D02*
X127827400Y-62500000D01*
X127500000Y-67077400D02*
X127827400Y-66750000D01*
X127500000Y-68500000D02*
X127500000Y-67077400D01*
%TO.N,Bus Out 3*%
X130482600Y-62327400D02*
X130482600Y-67982600D01*
X131060000Y-53190000D02*
X131750000Y-52500000D01*
X131060000Y-61750000D02*
X130482600Y-62327400D01*
X131750000Y-52500000D02*
X131750000Y-51000000D01*
X131060000Y-59750000D02*
X131060000Y-53190000D01*
X131060000Y-59750000D02*
X131060000Y-61750000D01*
X130482600Y-68482600D02*
X130500000Y-68500000D01*
%TO.N,Bus Out 4*%
X133000000Y-62250000D02*
X133000000Y-66500000D01*
X133600000Y-61650000D02*
X133000000Y-62250000D01*
X133000000Y-66500000D02*
X133500000Y-67000000D01*
X133600000Y-54650000D02*
X135750000Y-52500000D01*
X133600000Y-59750000D02*
X133600000Y-54650000D01*
X135750000Y-52500000D02*
X135750000Y-51000000D01*
X133600000Y-59750000D02*
X133600000Y-61650000D01*
X133500000Y-67000000D02*
X133500000Y-68500000D01*
%TO.N,Bus Out 5*%
X141250000Y-59750000D02*
X141250000Y-61750000D01*
X140250000Y-67000000D02*
X140250000Y-68500000D01*
X139750000Y-52500000D02*
X139750000Y-51000000D01*
X140557400Y-66692600D02*
X140250000Y-67000000D01*
X141250000Y-54000000D02*
X139750000Y-52500000D01*
X141250000Y-59750000D02*
X141250000Y-54000000D01*
X140557400Y-62442600D02*
X140557400Y-66692600D01*
X141250000Y-61750000D02*
X140557400Y-62442600D01*
%TO.N,Bus Out 6*%
X143212600Y-68462600D02*
X143250000Y-68500000D01*
X143790000Y-51040000D02*
X143750000Y-51000000D01*
X143212600Y-62500000D02*
X143212600Y-67962600D01*
X143790000Y-61922600D02*
X143212600Y-62500000D01*
X143790000Y-59750000D02*
X143790000Y-51040000D01*
X143790000Y-59750000D02*
X143790000Y-61922600D01*
%TO.N,Bus Out 7*%
X145750000Y-62580000D02*
X145750000Y-66500000D01*
X146330000Y-59750000D02*
X146330000Y-53920000D01*
X146330000Y-62000000D02*
X145750000Y-62580000D01*
X147750000Y-52500000D02*
X147750000Y-51000000D01*
X146330000Y-53920000D02*
X147750000Y-52500000D01*
X146250000Y-67000000D02*
X146250000Y-68500000D01*
X145750000Y-66500000D02*
X146250000Y-67000000D01*
X146330000Y-59750000D02*
X146330000Y-62000000D01*
%TO.N,Mark 0 Out*%
X151750000Y-51000000D02*
X151750000Y-52500000D01*
X153327400Y-66672600D02*
X153000000Y-67000000D01*
X153000000Y-67000000D02*
X153000000Y-68500000D01*
X154020000Y-59750000D02*
X154020000Y-61750000D01*
X153327400Y-63250000D02*
X153327400Y-62442600D01*
X154020000Y-54770000D02*
X154020000Y-59750000D01*
X153327400Y-62442600D02*
X154020000Y-61750000D01*
X153327400Y-62615200D02*
X153327400Y-63250000D01*
X151750000Y-52500000D02*
X154020000Y-54770000D01*
X153327400Y-63250000D02*
X153327400Y-66672600D01*
%TO.N,Bus In P*%
X116250000Y-67500000D02*
X116250000Y-72250000D01*
X116347400Y-61902600D02*
X116347400Y-53902600D01*
X115770000Y-62480000D02*
X116347400Y-61902600D01*
X116347400Y-53902600D02*
X117750000Y-52500000D01*
X117750000Y-52500000D02*
X117750000Y-51000000D01*
X115770000Y-67020000D02*
X116250000Y-67500000D01*
X115770000Y-64700000D02*
X115770000Y-67020000D01*
X115770000Y-64700000D02*
X115770000Y-62480000D01*
%TO.N,Bus In 0*%
X118310000Y-64700000D02*
X118310000Y-66697278D01*
X119000000Y-62000000D02*
X119000000Y-55250000D01*
X118310000Y-64700000D02*
X118310000Y-62690000D01*
X118310000Y-62690000D02*
X119000000Y-62000000D01*
X121750000Y-52500000D02*
X121750000Y-51000000D01*
X119250000Y-67637278D02*
X119250000Y-72250000D01*
X118310000Y-66697278D02*
X119250000Y-67637278D01*
X119000000Y-55250000D02*
X121750000Y-52500000D01*
%TO.N,Bus In 1*%
X120850000Y-62650000D02*
X121542600Y-61957400D01*
X120850000Y-64700000D02*
X120850000Y-66100000D01*
X122250000Y-68750000D02*
X122250000Y-68000000D01*
X122250000Y-72250000D02*
X122250000Y-69250000D01*
X122250000Y-69250000D02*
X122250000Y-68750000D01*
X125750000Y-52500000D02*
X125750000Y-51000000D01*
X120850000Y-64700000D02*
X120850000Y-62650000D01*
X121542600Y-56707400D02*
X125750000Y-52500000D01*
X120850000Y-66100000D02*
X122250000Y-67500000D01*
X122250000Y-67500000D02*
X122250000Y-69250000D01*
X121542600Y-61957400D02*
X121542600Y-56707400D01*
%TO.N,Bus In 2*%
X129000000Y-72750000D02*
X129000000Y-67500000D01*
X128520000Y-67020000D02*
X128520000Y-64700000D01*
X129097400Y-53152600D02*
X129750000Y-52500000D01*
X129097400Y-62000000D02*
X129097400Y-53152600D01*
X129750000Y-52500000D02*
X129750000Y-51000000D01*
X129000000Y-67500000D02*
X128520000Y-67020000D01*
X128520000Y-63250000D02*
X128520000Y-62577400D01*
X128520000Y-62577400D02*
X129097400Y-62000000D01*
X128520000Y-64700000D02*
X128520000Y-63250000D01*
%TO.N,Bus In 3*%
X131750000Y-61750000D02*
X131750000Y-54500000D01*
X131750000Y-54500000D02*
X133750000Y-52500000D01*
X133750000Y-52500000D02*
X133750000Y-51000000D01*
X132000000Y-72250000D02*
X132000000Y-67690000D01*
X131060000Y-64700000D02*
X131060000Y-62440000D01*
X131060000Y-62440000D02*
X131750000Y-61750000D01*
X131060000Y-66750000D02*
X131060000Y-64700000D01*
X132000000Y-67690000D02*
X131060000Y-66750000D01*
%TO.N,Bus In 4*%
X135000000Y-67500000D02*
X133600000Y-66100000D01*
X133600000Y-64700000D02*
X133600000Y-62400000D01*
X137750000Y-52500000D02*
X137750000Y-51000000D01*
X133600000Y-66100000D02*
X133600000Y-64700000D01*
X134250000Y-56000000D02*
X137750000Y-52500000D01*
X133600000Y-62400000D02*
X134250000Y-61750000D01*
X135000000Y-72250000D02*
X135000000Y-67500000D01*
X134250000Y-61750000D02*
X134250000Y-56000000D01*
%TO.N,Bus In 5*%
X141827400Y-51077400D02*
X141827400Y-61922600D01*
X141250000Y-67000000D02*
X141750000Y-67500000D01*
X141750000Y-67500000D02*
X141750000Y-72250000D01*
X141750000Y-51000000D02*
X141827400Y-51077400D01*
X141250000Y-64700000D02*
X141250000Y-67000000D01*
X141250000Y-64700000D02*
X141250000Y-62500000D01*
X141827400Y-61922600D02*
X141250000Y-62500000D01*
%TO.N,Bus In 6*%
X144482600Y-62017400D02*
X144482600Y-53767400D01*
X143790000Y-66750000D02*
X143790000Y-64700000D01*
X144750000Y-72250000D02*
X144750000Y-67710000D01*
X144482600Y-53767400D02*
X145750000Y-52500000D01*
X143790000Y-64700000D02*
X143790000Y-62710000D01*
X144750000Y-67710000D02*
X143790000Y-66750000D01*
X143790000Y-62710000D02*
X144482600Y-62017400D01*
X145750000Y-52500000D02*
X145750000Y-51000000D01*
%TO.N,Bus In 7*%
X147022600Y-55227400D02*
X149750000Y-52500000D01*
X146330000Y-64700000D02*
X146330000Y-66080000D01*
X146330000Y-62750000D02*
X147022600Y-62057400D01*
X146330000Y-64700000D02*
X146330000Y-62750000D01*
X147750000Y-67500000D02*
X147750000Y-72250000D01*
X147022600Y-62057400D02*
X147022600Y-55227400D01*
X146330000Y-66080000D02*
X147750000Y-67500000D01*
X149750000Y-52500000D02*
X149750000Y-51000000D01*
%TO.N,Mark 0 In*%
X154500000Y-67500000D02*
X154500000Y-72750000D01*
X154020000Y-62500000D02*
X154712600Y-61807400D01*
X154712600Y-61807400D02*
X154712600Y-53462600D01*
X154020000Y-67020000D02*
X154500000Y-67500000D01*
X154020000Y-64700000D02*
X154020000Y-67020000D01*
X154020000Y-64700000D02*
X154020000Y-62500000D01*
X154712600Y-53462600D02*
X153750000Y-52500000D01*
X153750000Y-52500000D02*
X153750000Y-51000000D01*
%TO.N,Operational In*%
X156560000Y-66500000D02*
X156560000Y-66000000D01*
X156560000Y-66697278D02*
X156560000Y-66500000D01*
X156000000Y-67250000D02*
X156000000Y-68500000D01*
X156560000Y-66000000D02*
X156560000Y-64700000D01*
X156560000Y-62690000D02*
X156560000Y-64700000D01*
X156560000Y-66690000D02*
X156000000Y-67250000D01*
X161000000Y-52500000D02*
X157250000Y-56250000D01*
X156560000Y-66000000D02*
X156560000Y-66690000D01*
X157250000Y-62000000D02*
X156560000Y-62690000D01*
X161000000Y-51000000D02*
X161000000Y-52500000D01*
X156000000Y-68500000D02*
X155982600Y-68482600D01*
X157250000Y-56250000D02*
X157250000Y-62000000D01*
%TO.N,Address In*%
X166770000Y-64700000D02*
X166770000Y-67020000D01*
X167250000Y-67500000D02*
X167250000Y-72750000D01*
X166750000Y-65500000D02*
X166770000Y-65480000D01*
X166770000Y-67020000D02*
X167250000Y-67500000D01*
X167462600Y-54037400D02*
X168125000Y-53375000D01*
D34*
X169000000Y-52500000D02*
X168125000Y-53375000D01*
X169000000Y-51000000D02*
X169000000Y-52500000D01*
D32*
X166770000Y-64700000D02*
X166770000Y-65480000D01*
D34*
X168125000Y-53375000D02*
X167500000Y-54000000D01*
D32*
X167462600Y-61537400D02*
X167462600Y-54037400D01*
X166770000Y-62230000D02*
X167462600Y-61537400D01*
X166770000Y-64700000D02*
X166770000Y-62230000D01*
%TO.N,Service In*%
X172500000Y-53000000D02*
X172750000Y-52750000D01*
X171850000Y-64700000D02*
X171850000Y-62400000D01*
D34*
X173000000Y-52500000D02*
X172750000Y-52750000D01*
D32*
X172500000Y-61750000D02*
X172500000Y-53000000D01*
X171850000Y-62400000D02*
X172500000Y-61750000D01*
X171850000Y-68400000D02*
X171750000Y-68500000D01*
D34*
X173000000Y-51000000D02*
X173000000Y-52500000D01*
D32*
X171850000Y-64700000D02*
X171850000Y-68400000D01*
%TO.N,Select In*%
X182060000Y-66810000D02*
X183000000Y-67750000D01*
X182060000Y-64700000D02*
X182060000Y-66810000D01*
X182500000Y-62000000D02*
X182750000Y-61750000D01*
X183000000Y-67750000D02*
X183000000Y-72750000D01*
X182750000Y-61750000D02*
X182750000Y-57750000D01*
X182060000Y-64700000D02*
X182060000Y-62440000D01*
X182060000Y-62440000D02*
X182500000Y-62000000D01*
%TO.N,Select Out*%
X171877400Y-50622600D02*
X171877400Y-59722600D01*
X171877400Y-59722600D02*
X171850000Y-59750000D01*
X172500000Y-50000000D02*
X180000000Y-50000000D01*
X172500000Y-50000000D02*
X171877400Y-50622600D01*
X180000000Y-50000000D02*
X181000000Y-51000000D01*
%TO.N,Address Out*%
X170500000Y-48000000D02*
X183500000Y-48000000D01*
X169310000Y-59750000D02*
X169404400Y-59655600D01*
X170000000Y-48500000D02*
X170500000Y-48000000D01*
X183500000Y-48000000D02*
X184000000Y-48500000D01*
X168750000Y-68500000D02*
X168732600Y-68482600D01*
X169310000Y-61690000D02*
X169310000Y-59750000D01*
X168732600Y-62267400D02*
X169310000Y-61690000D01*
X169404400Y-53095600D02*
X170000000Y-52500000D01*
X170000000Y-52500000D02*
X170000000Y-48500000D01*
X184000000Y-48500000D02*
X184000000Y-50000000D01*
X168732600Y-68482600D02*
X168732600Y-62267400D01*
X184000000Y-50000000D02*
X185000000Y-51000000D01*
X169404400Y-59655600D02*
X169404400Y-53095600D01*
%TO.N,Command Out*%
X182060000Y-59750000D02*
X182060000Y-61690000D01*
D34*
X183125000Y-55875000D02*
X184375000Y-55875000D01*
D32*
X181482600Y-62267400D02*
X181482600Y-68482600D01*
X182060000Y-61690000D02*
X181482600Y-62267400D01*
X182060000Y-59750000D02*
X182060000Y-56940000D01*
D34*
X184375000Y-55875000D02*
X187000000Y-53250000D01*
D32*
X181482600Y-68482600D02*
X181500000Y-68500000D01*
D34*
X188250000Y-53250000D02*
X189000000Y-52500000D01*
X187000000Y-53250000D02*
X188250000Y-53250000D01*
X189000000Y-52500000D02*
X189000000Y-51000000D01*
X182060000Y-56940000D02*
X183125000Y-55875000D01*
D32*
%TO.N,Suppress Out*%
X184500000Y-67000000D02*
X184500000Y-68500000D01*
X187569080Y-54000000D02*
X184600000Y-56969080D01*
X184000000Y-62250000D02*
X184000000Y-66500000D01*
X184600000Y-56969080D02*
X184600000Y-59750000D01*
X192847400Y-51152600D02*
X193000000Y-51000000D01*
X193000000Y-51000000D02*
X192962600Y-51037400D01*
X193000000Y-51000000D02*
X193000000Y-52500000D01*
X184600000Y-59750000D02*
X184600000Y-61650000D01*
X193000000Y-52500000D02*
X191500000Y-54000000D01*
X184000000Y-66500000D02*
X184500000Y-67000000D01*
X184600000Y-61650000D02*
X184000000Y-62250000D01*
X191500000Y-54000000D02*
X187569080Y-54000000D01*
D34*
%TO.N,Service Out*%
X197000000Y-52500000D02*
X194810000Y-54690000D01*
D32*
X194810000Y-61690000D02*
X194232600Y-62267400D01*
X194232600Y-68482600D02*
X194250000Y-68500000D01*
X194810000Y-56500000D02*
X194810000Y-59750000D01*
X194810000Y-59750000D02*
X194810000Y-61690000D01*
X194232600Y-62267400D02*
X194232600Y-68482600D01*
D34*
X194810000Y-54690000D02*
X194810000Y-56500000D01*
X197000000Y-51000000D02*
X197000000Y-52500000D01*
D32*
%TO.N,Clock Out*%
X158500000Y-62500000D02*
X158500000Y-67000000D01*
X159100000Y-59750000D02*
X159100000Y-61900000D01*
D34*
X159100000Y-56400000D02*
X159100000Y-59750000D01*
D32*
X157500000Y-68000000D02*
X157500000Y-72750000D01*
X159100000Y-61900000D02*
X158500000Y-62500000D01*
X158500000Y-67000000D02*
X157500000Y-68000000D01*
D34*
X163000000Y-52500000D02*
X163000000Y-51000000D01*
X163000000Y-52500000D02*
X159100000Y-56400000D01*
D32*
%TO.N,Metering Out*%
X165750000Y-67000000D02*
X165750000Y-68500000D01*
D34*
X166770000Y-59750000D02*
X166770000Y-61480000D01*
X166770000Y-51230000D02*
X167000000Y-51000000D01*
X166190600Y-66559400D02*
X165750000Y-67000000D01*
X166190600Y-62059400D02*
X166190600Y-66559400D01*
X166770000Y-61480000D02*
X166190600Y-62059400D01*
X166770000Y-59750000D02*
X166770000Y-51230000D01*
D32*
%TO.N,Metering In*%
X169310000Y-62440000D02*
X170000000Y-61750000D01*
X170000000Y-61750000D02*
X170000000Y-57500000D01*
X169310000Y-66810000D02*
X170250000Y-67750000D01*
X169310000Y-64700000D02*
X169310000Y-66810000D01*
D34*
X171000000Y-51000000D02*
X171000000Y-52500000D01*
X170000000Y-53500000D02*
X170000000Y-57500000D01*
X171000000Y-52500000D02*
X170000000Y-53500000D01*
D32*
X169310000Y-64700000D02*
X169310000Y-62440000D01*
X170250000Y-67750000D02*
X170250000Y-72750000D01*
%TO.N,Request In*%
X180000000Y-67500000D02*
X180000000Y-72750000D01*
X180212600Y-60500000D02*
X180212600Y-57750000D01*
X175278699Y-51000000D02*
X175000000Y-51000000D01*
X179520000Y-67020000D02*
X180000000Y-67500000D01*
X179520000Y-64700000D02*
X179520000Y-62480000D01*
X180212600Y-61787400D02*
X179750000Y-62250000D01*
X180212600Y-60500000D02*
X180212600Y-61250000D01*
X179520000Y-62480000D02*
X179750000Y-62250000D01*
X179520000Y-64700000D02*
X179520000Y-67020000D01*
X180212600Y-60500000D02*
X180212600Y-61787400D01*
X180212600Y-61250000D02*
X180212600Y-61712600D01*
%TO.N,Data In*%
X184600000Y-64700000D02*
X184600000Y-62400000D01*
X186000000Y-72750000D02*
X186000000Y-67750000D01*
X186000000Y-67750000D02*
X184600000Y-66350000D01*
X184600000Y-66350000D02*
X184600000Y-64700000D01*
X184600000Y-62400000D02*
X185000000Y-62000000D01*
X185250000Y-61750000D02*
X185250000Y-57750000D01*
X185000000Y-62000000D02*
X185250000Y-61750000D01*
%TO.N,Data Out*%
X179000000Y-62250000D02*
X178846300Y-62403700D01*
D34*
X187000000Y-52000000D02*
X187000000Y-51000000D01*
D32*
X179520000Y-57250000D02*
X179520000Y-57230000D01*
X179520000Y-57230000D02*
X181750000Y-55000000D01*
X178500000Y-67000000D02*
X178500000Y-68500000D01*
X179520000Y-61730000D02*
X179000000Y-62250000D01*
X179520000Y-59750000D02*
X179520000Y-61730000D01*
X184000000Y-55000000D02*
X184750000Y-54250000D01*
X179520000Y-59750000D02*
X179520000Y-57250000D01*
D34*
X184750000Y-54250000D02*
X187000000Y-52000000D01*
D32*
X178846300Y-62403700D02*
X178846300Y-66346300D01*
X178846300Y-66653700D02*
X178500000Y-67000000D01*
X181750000Y-55000000D02*
X184000000Y-55000000D01*
X178846300Y-66346300D02*
X178846300Y-66653700D01*
%TO.N,Disconnect In*%
X192962600Y-61750000D02*
X192962600Y-58000000D01*
X192270000Y-62442600D02*
X192962600Y-61750000D01*
X192962600Y-58000000D02*
X192962600Y-55537400D01*
X196000000Y-52500000D02*
X196000000Y-50500000D01*
X192962600Y-55537400D02*
X196000000Y-52500000D01*
X192270000Y-64700000D02*
X192270000Y-62442600D01*
X192270000Y-67020000D02*
X192500000Y-67250000D01*
X192270000Y-64700000D02*
X192270000Y-67020000D01*
X192000000Y-50000000D02*
X191000000Y-51000000D01*
X192750000Y-67500000D02*
X192500000Y-67250000D01*
X192750000Y-72750000D02*
X192750000Y-67500000D01*
X196000000Y-50500000D02*
X195500000Y-50000000D01*
X195500000Y-50000000D02*
X192000000Y-50000000D01*
%TO.N,Hold Out*%
X192270000Y-59750000D02*
X192270000Y-61730000D01*
X191577400Y-62422600D02*
X191577400Y-66672600D01*
X191250000Y-67000000D02*
X191250000Y-68500000D01*
X192270000Y-61730000D02*
X191577400Y-62422600D01*
X195000000Y-51000000D02*
X195000000Y-52500000D01*
X192270000Y-55750000D02*
X192270000Y-59750000D01*
X191577400Y-66672600D02*
X191250000Y-67000000D01*
X195000000Y-52500000D02*
X192270000Y-55230000D01*
X194810000Y-51190000D02*
X195000000Y-51000000D01*
X192270000Y-55230000D02*
X192270000Y-55750000D01*
D34*
%TO.N,Operational Out*%
X196770600Y-66650666D02*
X197250000Y-67130066D01*
X196770600Y-62229400D02*
X196770600Y-66650666D01*
X197350000Y-54150000D02*
X199000000Y-52500000D01*
X197250000Y-67130066D02*
X197250000Y-68500000D01*
X197350000Y-59750000D02*
X197350000Y-54150000D01*
X199000000Y-52500000D02*
X199000000Y-51000000D01*
X197350000Y-59750000D02*
X197350000Y-61650000D01*
X197350000Y-61650000D02*
X196770600Y-62229400D01*
D32*
%TO.N,5V Bus In P*%
X117500000Y-79750000D02*
X117810000Y-80060000D01*
X117040000Y-66460000D02*
X116750000Y-66750000D01*
X117040000Y-64700000D02*
X117040000Y-66460000D01*
X117810000Y-80060000D02*
X117810000Y-84000000D01*
X117500000Y-78250000D02*
X117500000Y-79750000D01*
%TO.N,5V Bus In 0*%
X119080000Y-80250000D02*
X119080000Y-84000000D01*
X118250000Y-79420000D02*
X119080000Y-80250000D01*
X118250000Y-77500000D02*
X118250000Y-79420000D01*
X119580000Y-66420000D02*
X119250000Y-66750000D01*
X119580000Y-64700000D02*
X119580000Y-66420000D01*
%TO.N,5V Bus In 1*%
X123000000Y-67250000D02*
X122120000Y-66370000D01*
X120350000Y-80400000D02*
X120350000Y-84000000D01*
X123750000Y-77000000D02*
X120350000Y-80400000D01*
X123000000Y-67250000D02*
X123750000Y-68000000D01*
X122120000Y-65750000D02*
X122120000Y-66000000D01*
X123750000Y-68000000D02*
X123750000Y-77000000D01*
X122120000Y-65750000D02*
X122120000Y-66370000D01*
X122120000Y-66000000D02*
X122120000Y-66370000D01*
X122120000Y-64700000D02*
X122120000Y-65750000D01*
X122120000Y-64700000D02*
X122120000Y-66370000D01*
%TO.N,5V Bus Out 1*%
X129500000Y-77500000D02*
X134350000Y-77500000D01*
X137350000Y-80500000D02*
X137350000Y-84000000D01*
X122120000Y-59750000D02*
X122120000Y-58750000D01*
X134350000Y-77500000D02*
X137350000Y-80500000D01*
X126500000Y-74500000D02*
X129500000Y-77500000D01*
X126000000Y-66500000D02*
X126000000Y-74000000D01*
X122120000Y-58750000D02*
X122120000Y-58130000D01*
X122120000Y-58130000D02*
X122500000Y-57750000D01*
X126000000Y-74000000D02*
X126500000Y-74500000D01*
%TO.N,5V Bus Out 0*%
X129000000Y-78250000D02*
X133830000Y-78250000D01*
X133830000Y-78250000D02*
X136080000Y-80500000D01*
X125250000Y-74500000D02*
X125750000Y-75000000D01*
X136080000Y-80500000D02*
X136080000Y-84000000D01*
X125250000Y-67500000D02*
X125250000Y-74500000D01*
X119580000Y-58170000D02*
X120000000Y-57750000D01*
X125750000Y-75000000D02*
X129000000Y-78250000D01*
X119580000Y-59750000D02*
X119580000Y-58170000D01*
%TO.N,5V Bus Out P*%
X124500000Y-68500000D02*
X124500000Y-75000000D01*
X117040000Y-59750000D02*
X117040000Y-58210000D01*
X134810000Y-80500000D02*
X134810000Y-84000000D01*
X125000000Y-75500000D02*
X128500000Y-79000000D01*
X124500000Y-75000000D02*
X125000000Y-75500000D01*
X117040000Y-58210000D02*
X117500000Y-57750000D01*
X133310000Y-79000000D02*
X134810000Y-80500000D01*
X128500000Y-79000000D02*
X133310000Y-79000000D01*
%TO.N,5V Bus In 2*%
X121620000Y-84000000D02*
X121620000Y-80380000D01*
X129790000Y-66460000D02*
X129500000Y-66750000D01*
X121620000Y-80380000D02*
X124250000Y-77750000D01*
X129790000Y-64700000D02*
X129790000Y-66460000D01*
%TO.N,5V Bus In 3*%
X122890000Y-80360000D02*
X125500000Y-77750000D01*
X122890000Y-84000000D02*
X122890000Y-80360000D01*
X132330000Y-66420000D02*
X132330000Y-64700000D01*
X132330000Y-66420000D02*
X132000000Y-66750000D01*
D31*
%TO.N,+5V*%
X127250000Y-56250000D02*
X127250000Y-55000000D01*
X127250000Y-59750000D02*
X127250000Y-56250000D01*
X199000000Y-84000000D02*
X199000000Y-82250000D01*
X132270000Y-82520000D02*
X131500000Y-81750000D01*
X165500000Y-81750000D02*
X165500000Y-80250000D01*
X165500000Y-56250000D02*
X165500000Y-55000000D01*
X165000000Y-84000000D02*
X165000000Y-82250000D01*
X178250000Y-56250000D02*
X178250000Y-55000000D01*
X191000000Y-56250000D02*
X191000000Y-55000000D01*
X166270000Y-82520000D02*
X165500000Y-81750000D01*
X114000000Y-84000000D02*
X114000000Y-82250000D01*
X165500000Y-59750000D02*
X165500000Y-56250000D01*
X182500000Y-81750000D02*
X182500000Y-80250000D01*
X166270000Y-84000000D02*
X166270000Y-82520000D01*
X131000000Y-84000000D02*
X131000000Y-82250000D01*
X114500000Y-80250000D02*
X115750000Y-80250000D01*
X115270000Y-82520000D02*
X114500000Y-81750000D01*
X200270000Y-82520000D02*
X199500000Y-81750000D01*
X148000000Y-82250000D02*
X148500000Y-81750000D01*
X148500000Y-80250000D02*
X149750000Y-80250000D01*
X148000000Y-84000000D02*
X148000000Y-82250000D01*
X199000000Y-82250000D02*
X199500000Y-81750000D01*
X199500000Y-80250000D02*
X200750000Y-80250000D01*
X182000000Y-84000000D02*
X182000000Y-82250000D01*
X131000000Y-82250000D02*
X131500000Y-81750000D01*
X114500000Y-59750000D02*
X114500000Y-56250000D01*
X178250000Y-59750000D02*
X178250000Y-56250000D01*
X152750000Y-56250000D02*
X152750000Y-55000000D01*
X139980000Y-59750000D02*
X139980000Y-56270000D01*
X149270000Y-82520000D02*
X148500000Y-81750000D01*
X131500000Y-80250000D02*
X132750000Y-80250000D01*
X114500000Y-80250000D02*
X114500000Y-81750000D01*
X139980000Y-56270000D02*
X140000000Y-56250000D01*
X115270000Y-84000000D02*
X115270000Y-82520000D01*
X148500000Y-81750000D02*
X148500000Y-80250000D01*
X199500000Y-81750000D02*
X199500000Y-80250000D01*
X165500000Y-80250000D02*
X166750000Y-80250000D01*
X152750000Y-59750000D02*
X152750000Y-56250000D01*
X140000000Y-56250000D02*
X140000000Y-55000000D01*
X182500000Y-80250000D02*
X183750000Y-80250000D01*
X182000000Y-82250000D02*
X182500000Y-81750000D01*
X149270000Y-84000000D02*
X149270000Y-82520000D01*
X200270000Y-84000000D02*
X200270000Y-82520000D01*
X132270000Y-84000000D02*
X132270000Y-82520000D01*
X114500000Y-56250000D02*
X114500000Y-55000000D01*
X131500000Y-81750000D02*
X131500000Y-80250000D01*
X183270000Y-82520000D02*
X182500000Y-81750000D01*
X191000000Y-59750000D02*
X191000000Y-56250000D01*
X114000000Y-82250000D02*
X114500000Y-81750000D01*
X165000000Y-82250000D02*
X165500000Y-81750000D01*
X183270000Y-84000000D02*
X183270000Y-82520000D01*
D32*
%TO.N,5V Bus In 4*%
X124160000Y-80340000D02*
X125500000Y-79000000D01*
X134870000Y-66370000D02*
X134870000Y-64700000D01*
X124160000Y-84000000D02*
X124160000Y-80340000D01*
X136500000Y-68000000D02*
X134870000Y-66370000D01*
X136000000Y-76250000D02*
X136500000Y-75750000D01*
X136500000Y-75750000D02*
X136500000Y-68000000D01*
%TO.N,5V Bus Out 4*%
X134870000Y-59750000D02*
X134870000Y-58130000D01*
X138750000Y-78090000D02*
X139080000Y-78420000D01*
X134870000Y-58130000D02*
X135250000Y-57750000D01*
X139080000Y-78420000D02*
X141160000Y-80500000D01*
X141160000Y-80500000D02*
X141160000Y-84000000D01*
X138750000Y-66500000D02*
X138750000Y-78090000D01*
%TO.N,5V Bus Out 3*%
X138000000Y-67500000D02*
X138000000Y-78610000D01*
X139890000Y-80500000D02*
X139890000Y-84000000D01*
X132330000Y-58170000D02*
X132750000Y-57750000D01*
X132330000Y-59750000D02*
X132330000Y-58170000D01*
X138000000Y-78610000D02*
X138695000Y-79305000D01*
X138695000Y-79305000D02*
X139890000Y-80500000D01*
%TO.N,5V Bus Out 2*%
X137250000Y-79130000D02*
X137435000Y-79315000D01*
X137250000Y-68500000D02*
X137250000Y-79130000D01*
X137435000Y-79315000D02*
X138620000Y-80500000D01*
X129790000Y-59750000D02*
X129790000Y-58210000D01*
X138620000Y-80500000D02*
X138620000Y-84000000D01*
X129790000Y-58210000D02*
X130250000Y-57750000D01*
%TO.N,5V Bus In 5*%
X142520000Y-64700000D02*
X142520000Y-66480000D01*
X125430000Y-80320000D02*
X126750000Y-79000000D01*
X142520000Y-66480000D02*
X142250000Y-66750000D01*
X125430000Y-84000000D02*
X125430000Y-80320000D01*
%TO.N,5V Bus In 6*%
X126700000Y-80300000D02*
X126750000Y-80250000D01*
X145060000Y-64700000D02*
X145060000Y-66440000D01*
X126700000Y-84000000D02*
X126700000Y-80300000D01*
X145060000Y-66440000D02*
X144750000Y-66750000D01*
%TO.N,5V Bus In 7*%
X147600000Y-66453632D02*
X147600000Y-64700000D01*
X151750000Y-80250000D02*
X151810000Y-80310000D01*
D34*
X149195633Y-76250000D02*
X149195633Y-68049265D01*
D32*
X151810000Y-80310000D02*
X151810000Y-84000000D01*
X148823184Y-67676816D02*
X147600000Y-66453632D01*
D34*
X149195633Y-68049265D02*
X148823184Y-67676816D01*
D32*
%TO.N,5V Bus Out 7*%
X168810000Y-80560000D02*
X168810000Y-84000000D01*
X152125000Y-75625000D02*
X153250000Y-76750000D01*
X147600000Y-59750000D02*
X147600000Y-58150000D01*
X151500000Y-66500000D02*
X151500000Y-75000000D01*
X147600000Y-58150000D02*
X148000000Y-57750000D01*
X151500000Y-75000000D02*
X152125000Y-75625000D01*
X161500000Y-76750000D02*
X163750000Y-79000000D01*
X153250000Y-76750000D02*
X161500000Y-76750000D01*
X163750000Y-79000000D02*
X167250000Y-79000000D01*
X167250000Y-79000000D02*
X168810000Y-80560000D01*
%TO.N,5V Bus Out 6*%
X143700000Y-80500000D02*
X145225000Y-78975000D01*
X145060000Y-59750000D02*
X145060000Y-58190000D01*
X149775000Y-78975000D02*
X150750000Y-78000000D01*
X150750000Y-78000000D02*
X150750000Y-76500000D01*
X150750000Y-67500000D02*
X150750000Y-76500000D01*
X145225000Y-78975000D02*
X149775000Y-78975000D01*
X143700000Y-84000000D02*
X143700000Y-80500000D01*
X145060000Y-58190000D02*
X145500000Y-57750000D01*
%TO.N,5V Bus Out 5*%
X142430000Y-80570000D02*
X144750000Y-78250000D01*
X142430000Y-84000000D02*
X142430000Y-80570000D01*
X150000000Y-68500000D02*
X150000000Y-76000000D01*
X150000000Y-77500000D02*
X150000000Y-76000000D01*
X142520000Y-59750000D02*
X142520000Y-58230000D01*
X142520000Y-58230000D02*
X143000000Y-57750000D01*
X144750000Y-78250000D02*
X149250000Y-78250000D01*
X149250000Y-78250000D02*
X150000000Y-77500000D01*
%TO.N,5V Operational In*%
X157830000Y-64700000D02*
X157830000Y-66420000D01*
X157830000Y-66420000D02*
X157500000Y-66750000D01*
X153000000Y-79000000D02*
X154350000Y-80350000D01*
X154350000Y-80350000D02*
X154350000Y-84000000D01*
%TO.N,Status In*%
X159100000Y-64700000D02*
X159100000Y-62650000D01*
X165000000Y-51000000D02*
X165000000Y-51600000D01*
X159100000Y-68400000D02*
X159000000Y-68500000D01*
X159750000Y-56850000D02*
X165000000Y-51600000D01*
X159750000Y-62000000D02*
X159750000Y-56850000D01*
X159100000Y-64700000D02*
X159100000Y-68400000D01*
X159100000Y-62650000D02*
X159750000Y-62000000D01*
%TO.N,5V Status In*%
X160370000Y-64700000D02*
X160370000Y-72000000D01*
X160000000Y-75250000D02*
X160370000Y-74880000D01*
X155620000Y-84000000D02*
X155620000Y-81750000D01*
X155620000Y-79630000D02*
X157500000Y-77750000D01*
X155620000Y-81750000D02*
X155620000Y-79630000D01*
X160370000Y-74880000D02*
X160370000Y-72000000D01*
%TO.N,5V Address In*%
X156890000Y-79610000D02*
X156890000Y-84000000D01*
X168040000Y-66460000D02*
X167750000Y-66750000D01*
X168040000Y-64700000D02*
X168040000Y-66460000D01*
X158750000Y-77750000D02*
X156890000Y-79610000D01*
%TO.N,5V Command Out*%
X183330000Y-59750000D02*
X183330000Y-58170000D01*
X204080000Y-80330000D02*
X202000000Y-78250000D01*
X204080000Y-84000000D02*
X204080000Y-80330000D01*
X183330000Y-58170000D02*
X183750000Y-57750000D01*
X202000000Y-78250000D02*
X190750000Y-78250000D01*
X190750000Y-78250000D02*
X189000000Y-76500000D01*
X189000000Y-76500000D02*
X189000000Y-67500000D01*
%TO.N,5V Address Out*%
X176250000Y-78250000D02*
X176250000Y-67500000D01*
X173890000Y-80610000D02*
X176250000Y-78250000D01*
X170580000Y-58170000D02*
X171000000Y-57750000D01*
X170580000Y-59750000D02*
X170580000Y-58170000D01*
X173890000Y-84000000D02*
X173890000Y-80610000D01*
%TO.N,5V Select Out*%
X177000000Y-78750000D02*
X177000000Y-66500000D01*
X173120000Y-59750000D02*
X173120000Y-58130000D01*
X173120000Y-58130000D02*
X173500000Y-57750000D01*
X175160000Y-84000000D02*
X175160000Y-80590000D01*
X175160000Y-80590000D02*
X177000000Y-78750000D01*
%TO.N,5V Service In*%
X160000000Y-79000000D02*
X159430000Y-79570000D01*
X159430000Y-79570000D02*
X159430000Y-84000000D01*
X173120000Y-74880000D02*
X173120000Y-64700000D01*
X172750000Y-75250000D02*
X173120000Y-74880000D01*
D34*
%TO.N,5V Select In*%
X187080000Y-84000000D02*
X187080000Y-80330000D01*
X187080000Y-80330000D02*
X184500000Y-77750000D01*
D32*
X183330000Y-66420000D02*
X183000000Y-66750000D01*
X183330000Y-64700000D02*
X183330000Y-66420000D01*
%TO.N,5V Request In*%
X185810000Y-80310000D02*
X185810000Y-84000000D01*
X180790000Y-64700000D02*
X180790000Y-66460000D01*
X183250000Y-77750000D02*
X185810000Y-80310000D01*
X180790000Y-66460000D02*
X180500000Y-66750000D01*
%TO.N,5V Data Out*%
X180790000Y-59750000D02*
X180790000Y-58210000D01*
X201500000Y-79000000D02*
X190500000Y-79000000D01*
X180790000Y-58210000D02*
X181250000Y-57750000D01*
X202810000Y-84000000D02*
X202810000Y-80310000D01*
X190500000Y-79000000D02*
X188250000Y-76750000D01*
X202810000Y-80310000D02*
X201500000Y-79000000D01*
X188250000Y-76750000D02*
X188250000Y-68500000D01*
%TO.N,5V Service Out*%
X196080000Y-61000000D02*
X196080000Y-61670000D01*
X198000000Y-76750000D02*
X203178092Y-76750000D01*
X195502600Y-62247400D02*
X195502600Y-66750000D01*
X195502600Y-66750000D02*
X195750000Y-66997400D01*
X196080000Y-61000000D02*
X196080000Y-59750000D01*
X195750000Y-66997400D02*
X195750000Y-74500000D01*
X206620000Y-80191908D02*
X206620000Y-84000000D01*
X196080000Y-61670000D02*
X195502600Y-62247400D01*
X203178092Y-76750000D02*
X206620000Y-80191908D01*
X195750000Y-74500000D02*
X198000000Y-76750000D01*
%TO.N,5V Suppress Out*%
X202600000Y-77500000D02*
X205350000Y-80250000D01*
X200750000Y-77500000D02*
X202600000Y-77500000D01*
X185870000Y-59750000D02*
X185870000Y-58130000D01*
X200750000Y-77500000D02*
X201000000Y-77500000D01*
X205350000Y-84000000D02*
X205350000Y-80250000D01*
X189750000Y-74000000D02*
X189750000Y-76000000D01*
X191250000Y-77500000D02*
X201000000Y-77500000D01*
X185870000Y-58130000D02*
X186250000Y-57750000D01*
X189750000Y-76000000D02*
X191250000Y-77500000D01*
X189750000Y-66500000D02*
X189750000Y-74000000D01*
%TO.N,5V Data In*%
X189620000Y-79370000D02*
X187500000Y-77250000D01*
X187500000Y-68000000D02*
X187500000Y-76750000D01*
X187500000Y-77250000D02*
X187500000Y-76750000D01*
X185870000Y-66370000D02*
X187500000Y-68000000D01*
X189620000Y-84000000D02*
X189620000Y-79370000D01*
X185870000Y-64700000D02*
X185870000Y-66370000D01*
%TO.N,5V Disconnect In*%
X188350000Y-80600000D02*
X188350000Y-84000000D01*
X186750000Y-79000000D02*
X188350000Y-80600000D01*
X193540000Y-66460000D02*
X193540000Y-64700000D01*
X193250000Y-66750000D02*
X193540000Y-66460000D01*
%TO.N,5V Enable*%
X136140000Y-61640000D02*
X136750000Y-62250000D01*
X136750000Y-62250000D02*
X139500000Y-62250000D01*
X165500000Y-62750000D02*
X165500000Y-64700000D01*
X123390000Y-61640000D02*
X124000000Y-62250000D01*
X204000000Y-74500000D02*
X204750000Y-74500000D01*
X201250000Y-67000000D02*
X201250000Y-63000000D01*
X187110667Y-55889333D02*
X188000000Y-55000000D01*
X136140000Y-59750000D02*
X136140000Y-56110000D01*
X199890000Y-59750000D02*
X199890000Y-57140000D01*
X152750000Y-62750000D02*
X152750000Y-64700000D01*
X162250000Y-62250000D02*
X165000000Y-62250000D01*
X174390000Y-61640000D02*
X174390000Y-59750000D01*
X126750000Y-62250000D02*
X127250000Y-62750000D01*
X178250000Y-64700000D02*
X178250000Y-62750000D01*
X161640000Y-61640000D02*
X162250000Y-62250000D01*
X114500000Y-62500000D02*
X112500000Y-60500000D01*
X136140000Y-56110000D02*
X138250000Y-54000000D01*
X139980000Y-64700000D02*
X139980000Y-62730000D01*
X177750000Y-62250000D02*
X175000000Y-62250000D01*
X190500000Y-62250000D02*
X191000000Y-62750000D01*
X204750000Y-74500000D02*
X210500000Y-80250000D01*
X187140000Y-61640000D02*
X187750000Y-62250000D01*
X204000000Y-74500000D02*
X200750000Y-74500000D01*
X148870000Y-56130000D02*
X151000000Y-54000000D01*
X127250000Y-62750000D02*
X127250000Y-64700000D01*
X200250000Y-74000000D02*
X200250000Y-68000000D01*
X210500000Y-80750000D02*
X210500000Y-83930000D01*
X176500000Y-54000000D02*
X183500000Y-54000000D01*
X187140000Y-59750000D02*
X187140000Y-61640000D01*
X199890000Y-61640000D02*
X199890000Y-59750000D01*
X148870000Y-61620000D02*
X149500000Y-62250000D01*
X200750000Y-74500000D02*
X200250000Y-74000000D01*
X123390000Y-56110000D02*
X125500000Y-54000000D01*
X148870000Y-59750000D02*
X148870000Y-61620000D01*
X114500000Y-64700000D02*
X114500000Y-62500000D01*
X149500000Y-62250000D02*
X152250000Y-62250000D01*
X124000000Y-62250000D02*
X126750000Y-62250000D01*
X123390000Y-59750000D02*
X123390000Y-56110000D01*
X210500000Y-80250000D02*
X210500000Y-80750000D01*
X210500000Y-83930000D02*
X210430000Y-84000000D01*
X165000000Y-62250000D02*
X165500000Y-62750000D01*
X176500000Y-54000000D02*
X174390000Y-56110000D01*
X161640000Y-56110000D02*
X163750000Y-54000000D01*
X200250000Y-68000000D02*
X201250000Y-67000000D01*
X174390000Y-56110000D02*
X174390000Y-59750000D01*
X161640000Y-59750000D02*
X161640000Y-56110000D01*
X161640000Y-59750000D02*
X161640000Y-61640000D01*
X187750000Y-62250000D02*
X190500000Y-62250000D01*
X175000000Y-62250000D02*
X174390000Y-61640000D01*
X152250000Y-62250000D02*
X152750000Y-62750000D01*
X187110667Y-59720667D02*
X187110667Y-55889333D01*
X148870000Y-59750000D02*
X148870000Y-56130000D01*
X139980000Y-62730000D02*
X139500000Y-62250000D01*
X136140000Y-59750000D02*
X136140000Y-61640000D01*
X191000000Y-62750000D02*
X191000000Y-64700000D01*
X123390000Y-59750000D02*
X123390000Y-61640000D01*
X201250000Y-63000000D02*
X199890000Y-61640000D01*
X187140000Y-59750000D02*
X187110667Y-59720667D01*
X178250000Y-62750000D02*
X177750000Y-62250000D01*
%TO.N,5V Hold Out*%
X193540000Y-59750000D02*
X193540000Y-58210000D01*
X200250000Y-75250000D02*
X204250000Y-75250000D01*
X193540000Y-58210000D02*
X194000000Y-57750000D01*
X199500000Y-74500000D02*
X200250000Y-75250000D01*
X199500000Y-68500000D02*
X199500000Y-74500000D01*
X204250000Y-75250000D02*
X209160000Y-80160000D01*
X209160000Y-80160000D02*
X209160000Y-84000000D01*
%TO.N,5V Mark 0 In*%
X153080000Y-80330000D02*
X153080000Y-84000000D01*
X151750000Y-79000000D02*
X153080000Y-80330000D01*
X155290000Y-64700000D02*
X155290000Y-66460000D01*
X155290000Y-66460000D02*
X155000000Y-66750000D01*
%TO.N,5V Metering In*%
X170580000Y-66000000D02*
X170580000Y-66420000D01*
X158750000Y-79000000D02*
X158160000Y-79590000D01*
X170580000Y-66420000D02*
X170250000Y-66750000D01*
X170580000Y-64700000D02*
X170580000Y-66000000D01*
X158160000Y-79590000D02*
X158160000Y-84000000D01*
%TO.N,5V Metering Out*%
X172620000Y-84000000D02*
X172620000Y-80630000D01*
X168040000Y-58210000D02*
X168500000Y-57750000D01*
X175500000Y-77750000D02*
X175500000Y-68500000D01*
X168040000Y-59750000D02*
X168040000Y-58210000D01*
X172620000Y-80630000D02*
X175500000Y-77750000D01*
%TO.N,5V Clock Out*%
X164250000Y-70250000D02*
X164250000Y-70500000D01*
D34*
X171350000Y-84000000D02*
X171350000Y-82000000D01*
D32*
X160370000Y-58130000D02*
X160750000Y-57750000D01*
X164250000Y-70250000D02*
X164250000Y-71500000D01*
X160370000Y-59750000D02*
X160370000Y-58130000D01*
D34*
X171350000Y-84150000D02*
X171250000Y-84250000D01*
X168250000Y-77500000D02*
X165750000Y-77500000D01*
X164250000Y-76000000D02*
X164250000Y-71500000D01*
X171350000Y-80600000D02*
X168250000Y-77500000D01*
D32*
X164250000Y-66500000D02*
X164250000Y-70250000D01*
D34*
X165750000Y-77500000D02*
X164250000Y-76000000D01*
X164250000Y-71500000D02*
X164250000Y-70500000D01*
X171350000Y-82000000D02*
X171350000Y-80600000D01*
D32*
%TO.N,5V Mark 0 Out*%
X155290000Y-58210000D02*
X155750000Y-57750000D01*
X170080000Y-84000000D02*
X170080000Y-80580000D01*
X170080000Y-80580000D02*
X167750000Y-78250000D01*
X164750000Y-78250000D02*
X167500000Y-78250000D01*
X167750000Y-78250000D02*
X167500000Y-78250000D01*
X164750000Y-78250000D02*
X162750000Y-76250000D01*
X162750000Y-76250000D02*
X162750000Y-68500000D01*
X155290000Y-59750000D02*
X155290000Y-58210000D01*
D31*
%TO.N,+3V3*%
X114500000Y-95500000D02*
X114500000Y-97000000D01*
X148500000Y-97000000D02*
X148500000Y-95500000D01*
X131500000Y-95500000D02*
X131500000Y-97000000D01*
X131000000Y-93300000D02*
X131000000Y-95000000D01*
X199000000Y-93300000D02*
X199000000Y-95000000D01*
X182000000Y-93300000D02*
X182000000Y-95000000D01*
X165500000Y-97000000D02*
X165500000Y-98250000D01*
X114000000Y-95000000D02*
X114500000Y-95500000D01*
X165000000Y-93300000D02*
X165000000Y-95000000D01*
D32*
X166270000Y-93300000D02*
X166270000Y-94520000D01*
D31*
X131500000Y-97000000D02*
X131500000Y-98250000D01*
X148000000Y-95000000D02*
X148500000Y-95500000D01*
X182000000Y-95000000D02*
X182500000Y-95500000D01*
D32*
X200270000Y-94520000D02*
X200750000Y-95000000D01*
X132270000Y-94520000D02*
X132750000Y-95000000D01*
D31*
X199000000Y-95000000D02*
X199500000Y-95500000D01*
D32*
X200270000Y-93300000D02*
X200270000Y-94520000D01*
D31*
X182500000Y-97000000D02*
X182500000Y-98250000D01*
X148000000Y-93300000D02*
X148000000Y-95000000D01*
X114000000Y-93300000D02*
X114000000Y-95000000D01*
X182500000Y-95500000D02*
X182500000Y-97000000D01*
D32*
X132270000Y-93300000D02*
X132270000Y-94520000D01*
D31*
X114500000Y-97000000D02*
X114500000Y-98250000D01*
X199500000Y-97000000D02*
X199500000Y-95500000D01*
X199500000Y-97000000D02*
X199500000Y-98250000D01*
X148500000Y-97000000D02*
X148500000Y-98250000D01*
D32*
X166270000Y-94520000D02*
X166750000Y-95000000D01*
D31*
X131000000Y-95000000D02*
X131500000Y-95500000D01*
X165000000Y-95000000D02*
X165500000Y-95500000D01*
X165500000Y-97000000D02*
X165500000Y-95500000D01*
D34*
%TO.N,3V3 Enable*%
X209250000Y-97250000D02*
X209250000Y-96250000D01*
X173240000Y-114540000D02*
X174490000Y-113290000D01*
X196500000Y-109250000D02*
X197250000Y-109250000D01*
X174490000Y-110000000D02*
X175240000Y-109250000D01*
X174490000Y-113290000D02*
X174490000Y-110000000D01*
X197250000Y-109250000D02*
X209250000Y-97250000D01*
X209160000Y-93300000D02*
X209160000Y-96160000D01*
X209160000Y-96160000D02*
X209250000Y-96250000D01*
X196500000Y-109250000D02*
X196250000Y-109250000D01*
X175240000Y-109250000D02*
X196250000Y-109250000D01*
%TO.N,3V3 Bus Out P*%
X122440000Y-110310000D02*
X133540000Y-99210000D01*
D32*
X133540000Y-97000000D02*
X133540000Y-97500000D01*
X133540000Y-96000000D02*
X133540000Y-97000000D01*
D34*
X133540000Y-99210000D02*
X133540000Y-97000000D01*
D32*
X133540000Y-93300000D02*
X133540000Y-96000000D01*
D34*
X133540000Y-98210000D02*
X133540000Y-96000000D01*
X122440000Y-112000000D02*
X122440000Y-110310000D01*
%TO.N,3V3 Bus Out 0*%
X123750000Y-110310000D02*
X134810000Y-99250000D01*
D32*
X134810000Y-93300000D02*
X134810000Y-96750000D01*
D34*
X123750000Y-111000000D02*
X123750000Y-113230000D01*
X123750000Y-113230000D02*
X122440000Y-114540000D01*
X134810000Y-98250000D02*
X134810000Y-97750000D01*
X134810000Y-97750000D02*
X134810000Y-96750000D01*
X134810000Y-99250000D02*
X134810000Y-98250000D01*
D32*
X134810000Y-96750000D02*
X134810000Y-97560000D01*
D34*
X123750000Y-111000000D02*
X123750000Y-110310000D01*
X134810000Y-97750000D02*
X134810000Y-98940000D01*
D32*
%TO.N,3V3 Bus Out 1*%
X136080000Y-93300000D02*
X136080000Y-98000000D01*
D34*
X136080000Y-99170000D02*
X136080000Y-98000000D01*
X124980000Y-112000000D02*
X124980000Y-110270000D01*
X124980000Y-110270000D02*
X136080000Y-99170000D01*
D32*
%TO.N,3V3 Bus Out 2*%
X137350000Y-93300000D02*
X137350000Y-96000000D01*
X137350000Y-96000000D02*
X137350000Y-98150000D01*
D34*
X137350000Y-97400000D02*
X137350000Y-99150000D01*
X137350000Y-99150000D02*
X126250000Y-110250000D01*
X126250000Y-113270000D02*
X124980000Y-114540000D01*
D32*
X137350000Y-96000000D02*
X137350000Y-97400000D01*
D34*
X126250000Y-110250000D02*
X126250000Y-113270000D01*
D32*
%TO.N,3V3 Bus Out 3*%
X138620000Y-96750000D02*
X138620000Y-97250000D01*
D34*
X138620000Y-98130000D02*
X138620000Y-96750000D01*
X127520000Y-110230000D02*
X138620000Y-99130000D01*
X127520000Y-112000000D02*
X127520000Y-110230000D01*
D32*
X138620000Y-93300000D02*
X138620000Y-96750000D01*
X138620000Y-97250000D02*
X138620000Y-97870000D01*
D34*
X138620000Y-99130000D02*
X138620000Y-97250000D01*
D32*
%TO.N,3V3 Bus Out 4*%
X139890000Y-93300000D02*
X139890000Y-97750000D01*
D34*
X128649400Y-110350600D02*
X139890000Y-99110000D01*
X128649400Y-113410600D02*
X128649400Y-110350600D01*
X139890000Y-99110000D02*
X139890000Y-97750000D01*
X127520000Y-114540000D02*
X128649400Y-113410600D01*
D32*
%TO.N,3V3 Bus Out 5*%
X141160000Y-96250000D02*
X141160000Y-97250000D01*
D34*
X141160000Y-104340000D02*
X141160000Y-97250000D01*
X141160000Y-98090000D02*
X141160000Y-96250000D01*
X135140000Y-112000000D02*
X135140000Y-110360000D01*
D32*
X141160000Y-97250000D02*
X141160000Y-97410000D01*
D34*
X135140000Y-110360000D02*
X141160000Y-104340000D01*
D32*
X141160000Y-93300000D02*
X141160000Y-96250000D01*
D34*
%TO.N,3V3 Bus Out 6*%
X136500000Y-113180000D02*
X136500000Y-110250000D01*
D32*
X142430000Y-93300000D02*
X142430000Y-97750000D01*
D34*
X142430000Y-104320000D02*
X142430000Y-97750000D01*
X136500000Y-110250000D02*
X142430000Y-104320000D01*
X135140000Y-114540000D02*
X136500000Y-113180000D01*
D32*
%TO.N,3V3 Bus Out 7*%
X167540000Y-97460000D02*
X166000000Y-99000000D01*
D34*
X146710600Y-110039400D02*
X152000000Y-104750000D01*
X160250000Y-104750000D02*
X166000000Y-99000000D01*
D32*
X167540000Y-93300000D02*
X167540000Y-97460000D01*
D34*
X145300000Y-114540000D02*
X146710600Y-113129400D01*
X146710600Y-113129400D02*
X146710600Y-110039400D01*
X152000000Y-104750000D02*
X160250000Y-104750000D01*
%TO.N,3V3 Select Out*%
X160540000Y-112000000D02*
X160540000Y-110200000D01*
X173890000Y-95750000D02*
X173890000Y-93300000D01*
X169245000Y-101495000D02*
X173890000Y-96850000D01*
X173890000Y-96850000D02*
X173890000Y-95750000D01*
X160540000Y-110200000D02*
X169245000Y-101495000D01*
%TO.N,3V3 Address Out*%
X172620000Y-96870000D02*
X172620000Y-96250000D01*
X159410600Y-113129400D02*
X158000000Y-114540000D01*
X159410600Y-110079400D02*
X159410600Y-113129400D01*
X168745000Y-100745000D02*
X159410600Y-110079400D01*
X168745000Y-100745000D02*
X172620000Y-96870000D01*
X172620000Y-93300000D02*
X172620000Y-96250000D01*
%TO.N,3V3 Command Out*%
X168160000Y-110080000D02*
X168160000Y-112000000D01*
X202810000Y-93300000D02*
X202810000Y-97440000D01*
X172740000Y-105500000D02*
X168160000Y-110080000D01*
X194750000Y-105500000D02*
X172740000Y-105500000D01*
X202810000Y-97440000D02*
X194750000Y-105500000D01*
%TO.N,3V3 Suppress Out*%
X173240000Y-106250000D02*
X194750000Y-106250000D01*
X168160000Y-114540000D02*
X169470000Y-113230000D01*
X169470000Y-113230000D02*
X169470000Y-110020000D01*
X204080000Y-97420000D02*
X195250000Y-106250000D01*
X169470000Y-110020000D02*
X173240000Y-106250000D01*
X204080000Y-93300000D02*
X204080000Y-97420000D01*
X195250000Y-106250000D02*
X194750000Y-106250000D01*
%TO.N,3V3 Service Out*%
X205350000Y-93300000D02*
X205350000Y-97400000D01*
X205350000Y-97400000D02*
X195750000Y-107000000D01*
X173740000Y-107000000D02*
X170700000Y-110040000D01*
X195750000Y-107000000D02*
X173740000Y-107000000D01*
X170700000Y-110040000D02*
X170700000Y-112000000D01*
%TO.N,3V3 Data Out*%
X194290000Y-104750000D02*
X192750000Y-104750000D01*
X166865000Y-110000000D02*
X166865000Y-113295000D01*
X192750000Y-104750000D02*
X172115000Y-104750000D01*
X201540000Y-97500000D02*
X201540000Y-93300000D01*
X201540000Y-97500000D02*
X194290000Y-104750000D01*
X172115000Y-104750000D02*
X166865000Y-110000000D01*
X166865000Y-113295000D02*
X165620000Y-114540000D01*
%TO.N,3V3 Hold Out*%
X173240000Y-110000000D02*
X174740000Y-108500000D01*
X173240000Y-112000000D02*
X173240000Y-110000000D01*
X174740000Y-108500000D02*
X195750000Y-108500000D01*
X196750000Y-108500000D02*
X195750000Y-108500000D01*
X207890000Y-93300000D02*
X207890000Y-97360000D01*
X207890000Y-97360000D02*
X196750000Y-108500000D01*
%TO.N,3V3 Operational Out*%
X171990000Y-110000000D02*
X174240000Y-107750000D01*
X206620000Y-93300000D02*
X206620000Y-97380000D01*
X174240000Y-107750000D02*
X195250000Y-107750000D01*
X196250000Y-107750000D02*
X195250000Y-107750000D01*
X171990000Y-113250000D02*
X171990000Y-110000000D01*
X170700000Y-114540000D02*
X171990000Y-113250000D01*
X206620000Y-97380000D02*
X196250000Y-107750000D01*
%TO.N,3V3 Mark 0 Out*%
X160500000Y-105500000D02*
X164000000Y-102000000D01*
X147840000Y-110160000D02*
X148000000Y-110000000D01*
X152500000Y-105500000D02*
X160500000Y-105500000D01*
X149000000Y-109000000D02*
X152000000Y-106000000D01*
D32*
X168810000Y-97190000D02*
X164000000Y-102000000D01*
D34*
X152000000Y-106000000D02*
X152500000Y-105500000D01*
X147840000Y-112000000D02*
X147840000Y-110160000D01*
X148000000Y-110000000D02*
X149000000Y-109000000D01*
D32*
X168810000Y-93300000D02*
X168810000Y-97190000D01*
D34*
%TO.N,3V3 Clock Out*%
X147840000Y-114540000D02*
X149240000Y-113140000D01*
X149240000Y-110000000D02*
X152995000Y-106245000D01*
X160750000Y-106250000D02*
X159000000Y-106250000D01*
X153000000Y-106250000D02*
X159000000Y-106250000D01*
X149240000Y-113140000D02*
X149240000Y-110000000D01*
X170080000Y-93300000D02*
X170080000Y-96920000D01*
X152995000Y-106245000D02*
X153000000Y-106250000D01*
X170080000Y-96920000D02*
X160750000Y-106250000D01*
%TO.N,3V3 Metering Out*%
X158000000Y-112000000D02*
X158000000Y-110250000D01*
X158000000Y-110250000D02*
X171350000Y-96900000D01*
X171350000Y-96900000D02*
X171350000Y-93300000D01*
%TO.N,3V3 Bus In P*%
X112280000Y-112000000D02*
X112280000Y-110220000D01*
D32*
X116540000Y-96750000D02*
X116540000Y-93300000D01*
D34*
X112280000Y-110220000D02*
X116540000Y-105960000D01*
X116540000Y-105960000D02*
X116540000Y-96750000D01*
%TO.N,3V3 Bus In 0*%
X117810000Y-105940000D02*
X117810000Y-98500000D01*
D32*
X117810000Y-93300000D02*
X117810000Y-97750000D01*
D34*
X113500000Y-110250000D02*
X117810000Y-105940000D01*
X113500000Y-113320000D02*
X113500000Y-110250000D01*
X112280000Y-114540000D02*
X113500000Y-113320000D01*
D32*
X117810000Y-97750000D02*
X117810000Y-98500000D01*
D34*
%TO.N,3V3 Bus In 1*%
X114820000Y-112000000D02*
X114820000Y-110430000D01*
X119080000Y-106170000D02*
X119080000Y-96250000D01*
D32*
X119080000Y-93300000D02*
X119080000Y-96250000D01*
D34*
X114820000Y-110430000D02*
X119080000Y-106170000D01*
%TO.N,3V3 Bus In 2*%
X114820000Y-114540000D02*
X116230600Y-113129400D01*
X116230600Y-113129400D02*
X116230600Y-110269400D01*
D32*
X120350000Y-93300000D02*
X120350000Y-97250000D01*
D34*
X116230600Y-110269400D02*
X120350000Y-106150000D01*
X120350000Y-106150000D02*
X120350000Y-97250000D01*
%TO.N,3V3 Bus In 3*%
X121620000Y-106130000D02*
X121620000Y-98000000D01*
X117360000Y-110390000D02*
X121620000Y-106130000D01*
X117360000Y-112000000D02*
X117360000Y-110390000D01*
D32*
X121620000Y-93300000D02*
X121620000Y-98000000D01*
%TO.N,3V3 Bus In 4*%
X122890000Y-93300000D02*
X122890000Y-96750000D01*
D34*
X122890000Y-106110000D02*
X122890000Y-96750000D01*
X118770600Y-110229400D02*
X122890000Y-106110000D01*
X117360000Y-114540000D02*
X118770600Y-113129400D01*
X118770600Y-113129400D02*
X118770600Y-110229400D01*
%TO.N,3V3 Bus In 5*%
X124160000Y-99750000D02*
X124160000Y-97000000D01*
X119900000Y-110350000D02*
X124160000Y-106090000D01*
X124160000Y-106090000D02*
X124160000Y-98340000D01*
D32*
X124160000Y-97000000D02*
X124160000Y-98340000D01*
X124160000Y-98340000D02*
X124160000Y-98410000D01*
X124160000Y-93300000D02*
X124160000Y-97000000D01*
D34*
X119900000Y-112000000D02*
X119900000Y-110350000D01*
%TO.N,3V3 Bus In 6*%
X125430000Y-106070000D02*
X125430000Y-97000000D01*
X121250000Y-110250000D02*
X125430000Y-106070000D01*
X119900000Y-114540000D02*
X121250000Y-113190000D01*
D32*
X125430000Y-93300000D02*
X125430000Y-97000000D01*
D34*
X121250000Y-113190000D02*
X121250000Y-110250000D01*
%TO.N,3V3 Bus In 7*%
X137680000Y-110320000D02*
X150540000Y-97460000D01*
X137680000Y-112000000D02*
X137680000Y-110320000D01*
X150540000Y-97460000D02*
X150540000Y-93300000D01*
%TO.N,3V3 Operational In*%
X153080000Y-97420000D02*
X153080000Y-96250000D01*
X140220000Y-110280000D02*
X153080000Y-97420000D01*
X153080000Y-96250000D02*
X153080000Y-93300000D01*
X140220000Y-112000000D02*
X140220000Y-110280000D01*
%TO.N,3V3 Status In*%
X140220000Y-114540000D02*
X141630600Y-113129400D01*
X141630600Y-113129400D02*
X141630600Y-110119400D01*
X154350000Y-97000000D02*
X154350000Y-93300000D01*
X154350000Y-97400000D02*
X154350000Y-97000000D01*
X141630600Y-110119400D02*
X154350000Y-97400000D01*
%TO.N,3V3 Address In*%
X155620000Y-97380000D02*
X155620000Y-96250000D01*
X155620000Y-96250000D02*
X155620000Y-93300000D01*
X142760000Y-110240000D02*
X155620000Y-97380000D01*
X142760000Y-112000000D02*
X142760000Y-110240000D01*
%TO.N,3V3 Service In*%
X158160000Y-97000000D02*
X158160000Y-93300000D01*
X145300000Y-109860000D02*
X158160000Y-97000000D01*
X145300000Y-112000000D02*
X145300000Y-109860000D01*
%TO.N,3V3 Select In*%
X180750000Y-102500000D02*
X170740000Y-102500000D01*
X170740000Y-102500000D02*
X163080000Y-110160000D01*
X185810000Y-97440000D02*
X180750000Y-102500000D01*
X163080000Y-110160000D02*
X163080000Y-112000000D01*
X185810000Y-93300000D02*
X185810000Y-97440000D01*
%TO.N,3V3 Request In*%
X161950600Y-113129400D02*
X160540000Y-114540000D01*
X184540000Y-97500000D02*
X180290000Y-101750000D01*
X170240000Y-101750000D02*
X161950600Y-110039400D01*
X184540000Y-97500000D02*
X184540000Y-93300000D01*
X180290000Y-101750000D02*
X170240000Y-101750000D01*
X161950600Y-110039400D02*
X161950600Y-113129400D01*
%TO.N,3V3 Data In*%
X188350000Y-93300000D02*
X188350000Y-97400000D01*
X181750000Y-104000000D02*
X171740000Y-104000000D01*
X188350000Y-97400000D02*
X181750000Y-104000000D01*
X171740000Y-104000000D02*
X165620000Y-110120000D01*
X165620000Y-110120000D02*
X165620000Y-112000000D01*
%TO.N,3V3 Disconnect In*%
X180750000Y-103250000D02*
X180830000Y-103250000D01*
X180250000Y-103250000D02*
X180750000Y-103250000D01*
X164490000Y-113130000D02*
X164490000Y-110000000D01*
X171240000Y-103250000D02*
X180250000Y-103250000D01*
X181250000Y-103250000D02*
X180250000Y-103250000D01*
X187080000Y-93300000D02*
X187080000Y-97420000D01*
X187080000Y-97420000D02*
X181250000Y-103250000D01*
X163080000Y-114540000D02*
X164490000Y-113130000D01*
X169990000Y-104500000D02*
X171240000Y-103250000D01*
X164490000Y-110000000D02*
X169990000Y-104500000D01*
%TO.N,3V3 Mark 0 In*%
X137680000Y-114540000D02*
X138904700Y-113315300D01*
X151810000Y-97499400D02*
X138904700Y-110404700D01*
X138904700Y-113315300D02*
X138904700Y-110404700D01*
X151810000Y-93300000D02*
X151810000Y-97499400D01*
%TO.N,3V3 Metering In*%
X156890000Y-97184736D02*
X144000000Y-110074736D01*
X144000000Y-110074736D02*
X144000000Y-113300000D01*
X156890000Y-93300000D02*
X156890000Y-97184736D01*
X144000000Y-113300000D02*
X142760000Y-114540000D01*
D31*
%TO.N,Net-(F1-Pad1)*%
X213000000Y-54250000D02*
X211250000Y-52500000D01*
X213000000Y-56500000D02*
X213000000Y-54250000D01*
X208500000Y-52500000D02*
X209500000Y-52500000D01*
X211250000Y-52500000D02*
X209500000Y-52500000D01*
%TO.N,Net-(D1-K)*%
X203750000Y-61550000D02*
X206000000Y-59300000D01*
X203750000Y-64650000D02*
X203650000Y-64750000D01*
X203750000Y-62500000D02*
X203750000Y-61550000D01*
X203750000Y-62500000D02*
X203750000Y-64650000D01*
D32*
%TO.N,unconnected-(U10-B8-Pad14)*%
X211750000Y-83950000D02*
X211700000Y-84000000D01*
D31*
%TO.N,Net-(JP1-A)*%
X212500000Y-64650000D02*
X212400000Y-64750000D01*
X207000000Y-61750000D02*
X207750000Y-61000000D01*
X205950000Y-64750000D02*
X205950000Y-63550000D01*
X207000000Y-62500000D02*
X207000000Y-61750000D01*
X211750000Y-61000000D02*
X212500000Y-61750000D01*
X212500000Y-61750000D02*
X212500000Y-62500000D01*
X207750000Y-61000000D02*
X211750000Y-61000000D01*
X205950000Y-63550000D02*
X207000000Y-62500000D01*
X205950000Y-64750000D02*
X205950000Y-71050000D01*
X212500000Y-62500000D02*
X212500000Y-64650000D01*
%TO.N,Net-(JP2-A)*%
X214700000Y-63550000D02*
X215750000Y-62500000D01*
X214700000Y-64750000D02*
X214700000Y-71050000D01*
X214700000Y-64750000D02*
X214700000Y-63550000D01*
%TO.N,Net-(F1-Pad2)*%
X213000000Y-59300000D02*
X209500000Y-59300000D01*
X209450000Y-59300000D02*
X209500000Y-59250000D01*
D32*
%TO.N,5V Operational Out*%
X198620000Y-61672600D02*
X198042600Y-62250000D01*
D34*
X203750000Y-76000000D02*
X199750000Y-76000000D01*
D32*
X198620000Y-59750000D02*
X198620000Y-61672600D01*
D34*
X207890000Y-81250000D02*
X207890000Y-84000000D01*
X207890000Y-84000000D02*
X207890000Y-82750000D01*
X207890000Y-80140000D02*
X205000000Y-77250000D01*
D32*
X198750000Y-66872763D02*
X198750000Y-75000000D01*
X198042600Y-66165363D02*
X198750000Y-66872763D01*
D34*
X205000000Y-77250000D02*
X203750000Y-76000000D01*
D32*
X198042600Y-62250000D02*
X198042600Y-66165363D01*
D34*
X207890000Y-82750000D02*
X207890000Y-80140000D01*
D32*
X198750000Y-75000000D02*
X199750000Y-76000000D01*
D31*
%TO.N,VDC*%
X209500000Y-56500000D02*
X206000000Y-56500000D01*
%TD*%
M02*
