%TF.GenerationSoftware,KiCad,Pcbnew,7.0.8*%
%TF.CreationDate,2023-10-20T14:11:59-05:00*%
%TF.ProjectId,breakout1,62726561-6b6f-4757-9431-2e6b69636164,rev?*%
%TF.SameCoordinates,Original*%
%TF.FileFunction,Paste,Top*%
%TF.FilePolarity,Positive*%
%FSLAX46Y46*%
G04 Gerber Fmt 4.6, Leading zero omitted, Abs format (unit mm)*
G04 Created by KiCad (PCBNEW 7.0.8) date 2023-10-20 14:11:59*
%MOMM*%
%LPD*%
G01*
G04 APERTURE LIST*
G04 Aperture macros list*
%AMRoundRect*
0 Rectangle with rounded corners*
0 $1 Rounding radius*
0 $2 $3 $4 $5 $6 $7 $8 $9 X,Y pos of 4 corners*
0 Add a 4 corners polygon primitive as box body*
4,1,4,$2,$3,$4,$5,$6,$7,$8,$9,$2,$3,0*
0 Add four circle primitives for the rounded corners*
1,1,$1+$1,$2,$3*
1,1,$1+$1,$4,$5*
1,1,$1+$1,$6,$7*
1,1,$1+$1,$8,$9*
0 Add four rect primitives between the rounded corners*
20,1,$1+$1,$2,$3,$4,$5,0*
20,1,$1+$1,$4,$5,$6,$7,0*
20,1,$1+$1,$6,$7,$8,$9,0*
20,1,$1+$1,$8,$9,$2,$3,0*%
G04 Aperture macros list end*
%ADD10R,1.500000X2.000000*%
%ADD11R,3.800000X2.000000*%
%ADD12RoundRect,0.225000X0.225000X0.250000X-0.225000X0.250000X-0.225000X-0.250000X0.225000X-0.250000X0*%
%ADD13RoundRect,0.250000X-0.450000X0.262500X-0.450000X-0.262500X0.450000X-0.262500X0.450000X0.262500X0*%
%ADD14RoundRect,0.150000X0.150000X-0.825000X0.150000X0.825000X-0.150000X0.825000X-0.150000X-0.825000X0*%
%ADD15RoundRect,0.225000X-0.225000X-0.250000X0.225000X-0.250000X0.225000X0.250000X-0.225000X0.250000X0*%
%ADD16RoundRect,0.200000X-0.200000X-0.275000X0.200000X-0.275000X0.200000X0.275000X-0.200000X0.275000X0*%
%ADD17RoundRect,0.250000X0.625000X-0.375000X0.625000X0.375000X-0.625000X0.375000X-0.625000X-0.375000X0*%
%ADD18RoundRect,0.150000X0.150000X-0.875000X0.150000X0.875000X-0.150000X0.875000X-0.150000X-0.875000X0*%
%ADD19RoundRect,0.250000X-0.625000X0.375000X-0.625000X-0.375000X0.625000X-0.375000X0.625000X0.375000X0*%
G04 APERTURE END LIST*
D10*
%TO.C,U15*%
X217000000Y-64750000D03*
X214700000Y-64750000D03*
D11*
X214700000Y-71050000D03*
D10*
X212400000Y-64750000D03*
%TD*%
D12*
%TO.C,C12*%
X127250000Y-56250000D03*
X125700000Y-56250000D03*
%TD*%
D13*
%TO.C,R6*%
X143250000Y-68500000D03*
X143250000Y-70325000D03*
%TD*%
D12*
%TO.C,C33*%
X131500000Y-95500000D03*
X129950000Y-95500000D03*
%TD*%
D13*
%TO.C,R2*%
X153000000Y-68500000D03*
X153000000Y-70325000D03*
%TD*%
D12*
%TO.C,C13*%
X114500000Y-56250000D03*
X112950000Y-56250000D03*
%TD*%
%TO.C,C15*%
X114500000Y-81750000D03*
X112950000Y-81750000D03*
%TD*%
D14*
%TO.C,U3*%
X139980000Y-64700000D03*
X141250000Y-64700000D03*
X142520000Y-64700000D03*
X143790000Y-64700000D03*
X145060000Y-64700000D03*
X146330000Y-64700000D03*
X147600000Y-64700000D03*
X148870000Y-64700000D03*
X148870000Y-59750000D03*
X147600000Y-59750000D03*
X146330000Y-59750000D03*
X145060000Y-59750000D03*
X143790000Y-59750000D03*
X142520000Y-59750000D03*
X141250000Y-59750000D03*
X139980000Y-59750000D03*
%TD*%
D15*
%TO.C,C41*%
X215750000Y-62500000D03*
X217300000Y-62500000D03*
%TD*%
D12*
%TO.C,C8*%
X152750000Y-57750000D03*
X151200000Y-57750000D03*
%TD*%
%TO.C,C28*%
X131500000Y-80250000D03*
X129950000Y-80250000D03*
%TD*%
D13*
%TO.C,R16*%
X120750000Y-68500000D03*
X120750000Y-70325000D03*
%TD*%
D12*
%TO.C,C14*%
X114500000Y-57750000D03*
X112950000Y-57750000D03*
%TD*%
%TO.C,C36*%
X148500000Y-97000000D03*
X146950000Y-97000000D03*
%TD*%
%TO.C,C9*%
X140000000Y-57750000D03*
X138450000Y-57750000D03*
%TD*%
%TO.C,C29*%
X148500000Y-81750000D03*
X146950000Y-81750000D03*
%TD*%
D13*
%TO.C,R17*%
X119250000Y-72750000D03*
X119250000Y-74575000D03*
%TD*%
D16*
%TO.C,R34*%
X210500000Y-81000000D03*
X212150000Y-81000000D03*
%TD*%
D13*
%TO.C,R23*%
X181500000Y-68500000D03*
X181500000Y-70325000D03*
%TD*%
D12*
%TO.C,C24*%
X199500000Y-80250000D03*
X197950000Y-80250000D03*
%TD*%
D17*
%TO.C,D1*%
X206000000Y-59300000D03*
X206000000Y-56500000D03*
%TD*%
D14*
%TO.C,U2*%
X127250000Y-64700000D03*
X128520000Y-64700000D03*
X129790000Y-64700000D03*
X131060000Y-64700000D03*
X132330000Y-64700000D03*
X133600000Y-64700000D03*
X134870000Y-64700000D03*
X136140000Y-64700000D03*
X136140000Y-59750000D03*
X134870000Y-59750000D03*
X133600000Y-59750000D03*
X132330000Y-59750000D03*
X131060000Y-59750000D03*
X129790000Y-59750000D03*
X128520000Y-59750000D03*
X127250000Y-59750000D03*
%TD*%
%TO.C,U5*%
X178250000Y-64700000D03*
X179520000Y-64700000D03*
X180790000Y-64700000D03*
X182060000Y-64700000D03*
X183330000Y-64700000D03*
X184600000Y-64700000D03*
X185870000Y-64700000D03*
X187140000Y-64700000D03*
X187140000Y-59750000D03*
X185870000Y-59750000D03*
X184600000Y-59750000D03*
X183330000Y-59750000D03*
X182060000Y-59750000D03*
X180790000Y-59750000D03*
X179520000Y-59750000D03*
X178250000Y-59750000D03*
%TD*%
D13*
%TO.C,R32*%
X167250000Y-72750000D03*
X167250000Y-74575000D03*
%TD*%
D12*
%TO.C,C16*%
X114500000Y-80250000D03*
X112950000Y-80250000D03*
%TD*%
D13*
%TO.C,R38*%
X170250000Y-72750000D03*
X170250000Y-74575000D03*
%TD*%
%TO.C,R5*%
X144750000Y-72750000D03*
X144750000Y-74575000D03*
%TD*%
D12*
%TO.C,C37*%
X182500000Y-95500000D03*
X180950000Y-95500000D03*
%TD*%
D13*
%TO.C,R30*%
X180000000Y-72750000D03*
X180000000Y-74575000D03*
%TD*%
D12*
%TO.C,C1*%
X165500000Y-57750000D03*
X163950000Y-57750000D03*
%TD*%
D17*
%TO.C,FB1*%
X209500000Y-59300000D03*
X209500000Y-56500000D03*
%TD*%
D12*
%TO.C,C23*%
X199500000Y-81750000D03*
X197950000Y-81750000D03*
%TD*%
D14*
%TO.C,U6*%
X191000000Y-64700000D03*
X192270000Y-64700000D03*
X193540000Y-64700000D03*
X194810000Y-64700000D03*
X196080000Y-64700000D03*
X197350000Y-64700000D03*
X198620000Y-64700000D03*
X199890000Y-64700000D03*
X199890000Y-59750000D03*
X198620000Y-59750000D03*
X197350000Y-59750000D03*
X196080000Y-59750000D03*
X194810000Y-59750000D03*
X193540000Y-59750000D03*
X192270000Y-59750000D03*
X191000000Y-59750000D03*
%TD*%
D10*
%TO.C,U14*%
X208250000Y-64750000D03*
X205950000Y-64750000D03*
D11*
X205950000Y-71050000D03*
D10*
X203650000Y-64750000D03*
%TD*%
D13*
%TO.C,R15*%
X122250000Y-72750000D03*
X122250000Y-74575000D03*
%TD*%
%TO.C,R40*%
X157500000Y-72750000D03*
X157500000Y-74575000D03*
%TD*%
%TO.C,R21*%
X194250000Y-68500000D03*
X194250000Y-70325000D03*
%TD*%
D12*
%TO.C,C6*%
X191000000Y-56250000D03*
X189450000Y-56250000D03*
%TD*%
D13*
%TO.C,R19*%
X116250000Y-72750000D03*
X116250000Y-74575000D03*
%TD*%
%TO.C,R20*%
X114750000Y-68500000D03*
X114750000Y-70325000D03*
%TD*%
D12*
%TO.C,C3*%
X178250000Y-57750000D03*
X176700000Y-57750000D03*
%TD*%
%TO.C,C19*%
X199500000Y-95500000D03*
X197950000Y-95500000D03*
%TD*%
D13*
%TO.C,R37*%
X178500000Y-68500000D03*
X178500000Y-70325000D03*
%TD*%
D12*
%TO.C,C30*%
X148500000Y-80250000D03*
X146950000Y-80250000D03*
%TD*%
D18*
%TO.C,U8*%
X131000000Y-93300000D03*
X132270000Y-93300000D03*
X133540000Y-93300000D03*
X134810000Y-93300000D03*
X136080000Y-93300000D03*
X137350000Y-93300000D03*
X138620000Y-93300000D03*
X139890000Y-93300000D03*
X141160000Y-93300000D03*
X142430000Y-93300000D03*
X143700000Y-93300000D03*
X144970000Y-93300000D03*
X144970000Y-84000000D03*
X143700000Y-84000000D03*
X142430000Y-84000000D03*
X141160000Y-84000000D03*
X139890000Y-84000000D03*
X138620000Y-84000000D03*
X137350000Y-84000000D03*
X136080000Y-84000000D03*
X134810000Y-84000000D03*
X133540000Y-84000000D03*
X132270000Y-84000000D03*
X131000000Y-84000000D03*
%TD*%
D13*
%TO.C,R22*%
X186000000Y-72750000D03*
X186000000Y-74575000D03*
%TD*%
%TO.C,R29*%
X184500000Y-68500000D03*
X184500000Y-70325000D03*
%TD*%
D18*
%TO.C,U12*%
X148000000Y-93300000D03*
X149270000Y-93300000D03*
X150540000Y-93300000D03*
X151810000Y-93300000D03*
X153080000Y-93300000D03*
X154350000Y-93300000D03*
X155620000Y-93300000D03*
X156890000Y-93300000D03*
X158160000Y-93300000D03*
X159430000Y-93300000D03*
X160700000Y-93300000D03*
X161970000Y-93300000D03*
X161970000Y-84000000D03*
X160700000Y-84000000D03*
X159430000Y-84000000D03*
X158160000Y-84000000D03*
X156890000Y-84000000D03*
X155620000Y-84000000D03*
X154350000Y-84000000D03*
X153080000Y-84000000D03*
X151810000Y-84000000D03*
X150540000Y-84000000D03*
X149270000Y-84000000D03*
X148000000Y-84000000D03*
%TD*%
D12*
%TO.C,C11*%
X127250000Y-57750000D03*
X125700000Y-57750000D03*
%TD*%
%TO.C,C18*%
X114500000Y-97000000D03*
X112950000Y-97000000D03*
%TD*%
D13*
%TO.C,R7*%
X141750000Y-72750000D03*
X141750000Y-74575000D03*
%TD*%
%TO.C,R35*%
X191250000Y-68500000D03*
X191250000Y-70325000D03*
%TD*%
%TO.C,R26*%
X197250000Y-68500000D03*
X197250000Y-70325000D03*
%TD*%
D12*
%TO.C,C2*%
X165500000Y-56250000D03*
X163950000Y-56250000D03*
%TD*%
D18*
%TO.C,U10*%
X199000000Y-93300000D03*
X200270000Y-93300000D03*
X201540000Y-93300000D03*
X202810000Y-93300000D03*
X204080000Y-93300000D03*
X205350000Y-93300000D03*
X206620000Y-93300000D03*
X207890000Y-93300000D03*
X209160000Y-93300000D03*
X210430000Y-93300000D03*
X211700000Y-93300000D03*
X212970000Y-93300000D03*
X212970000Y-84000000D03*
X211700000Y-84000000D03*
X210430000Y-84000000D03*
X209160000Y-84000000D03*
X207890000Y-84000000D03*
X206620000Y-84000000D03*
X205350000Y-84000000D03*
X204080000Y-84000000D03*
X202810000Y-84000000D03*
X201540000Y-84000000D03*
X200270000Y-84000000D03*
X199000000Y-84000000D03*
%TD*%
D12*
%TO.C,C5*%
X191000000Y-57750000D03*
X189450000Y-57750000D03*
%TD*%
D13*
%TO.C,R14*%
X127500000Y-68500000D03*
X127500000Y-70325000D03*
%TD*%
D12*
%TO.C,C35*%
X148500000Y-95500000D03*
X146950000Y-95500000D03*
%TD*%
D13*
%TO.C,R36*%
X183000000Y-72750000D03*
X183000000Y-74575000D03*
%TD*%
D12*
%TO.C,C4*%
X178250000Y-56250000D03*
X176700000Y-56250000D03*
%TD*%
%TO.C,C26*%
X165500000Y-80250000D03*
X163950000Y-80250000D03*
%TD*%
D13*
%TO.C,R13*%
X129000000Y-72750000D03*
X129000000Y-74575000D03*
%TD*%
%TO.C,R1*%
X154500000Y-72750000D03*
X154500000Y-74575000D03*
%TD*%
D15*
%TO.C,C40*%
X203750000Y-62500000D03*
X205300000Y-62500000D03*
%TD*%
D12*
%TO.C,C21*%
X165500000Y-95500000D03*
X163950000Y-95500000D03*
%TD*%
D13*
%TO.C,R33*%
X159000000Y-68500000D03*
X159000000Y-70325000D03*
%TD*%
%TO.C,R31*%
X165750000Y-68500000D03*
X165750000Y-70325000D03*
%TD*%
D12*
%TO.C,C10*%
X140000000Y-56250000D03*
X138450000Y-56250000D03*
%TD*%
D13*
%TO.C,R27*%
X156000000Y-68500000D03*
X156000000Y-70325000D03*
%TD*%
D12*
%TO.C,C38*%
X182500000Y-97000000D03*
X180950000Y-97000000D03*
%TD*%
D13*
%TO.C,R12*%
X130500000Y-68500000D03*
X130500000Y-70325000D03*
%TD*%
%TO.C,R11*%
X132000000Y-72750000D03*
X132000000Y-74575000D03*
%TD*%
D19*
%TO.C,F1*%
X213000000Y-56500000D03*
X213000000Y-59300000D03*
%TD*%
D12*
%TO.C,C7*%
X152750000Y-56250000D03*
X151200000Y-56250000D03*
%TD*%
D13*
%TO.C,R18*%
X117750000Y-68500000D03*
X117750000Y-70325000D03*
%TD*%
%TO.C,R4*%
X146250000Y-68500000D03*
X146250000Y-70325000D03*
%TD*%
D12*
%TO.C,C31*%
X182500000Y-81750000D03*
X180950000Y-81750000D03*
%TD*%
D13*
%TO.C,R9*%
X135000000Y-72750000D03*
X135000000Y-74575000D03*
%TD*%
D16*
%TO.C,R39*%
X209250000Y-96250000D03*
X210900000Y-96250000D03*
%TD*%
D13*
%TO.C,R8*%
X140250000Y-68500000D03*
X140250000Y-70325000D03*
%TD*%
%TO.C,R25*%
X168750000Y-68500000D03*
X168750000Y-70325000D03*
%TD*%
D14*
%TO.C,U4*%
X165500000Y-64700000D03*
X166770000Y-64700000D03*
X168040000Y-64700000D03*
X169310000Y-64700000D03*
X170580000Y-64700000D03*
X171850000Y-64700000D03*
X173120000Y-64700000D03*
X174390000Y-64700000D03*
X174390000Y-59750000D03*
X173120000Y-59750000D03*
X171850000Y-59750000D03*
X170580000Y-59750000D03*
X169310000Y-59750000D03*
X168040000Y-59750000D03*
X166770000Y-59750000D03*
X165500000Y-59750000D03*
%TD*%
D18*
%TO.C,U13*%
X182000000Y-93300000D03*
X183270000Y-93300000D03*
X184540000Y-93300000D03*
X185810000Y-93300000D03*
X187080000Y-93300000D03*
X188350000Y-93300000D03*
X189620000Y-93300000D03*
X190890000Y-93300000D03*
X192160000Y-93300000D03*
X193430000Y-93300000D03*
X194700000Y-93300000D03*
X195970000Y-93300000D03*
X195970000Y-84000000D03*
X194700000Y-84000000D03*
X193430000Y-84000000D03*
X192160000Y-84000000D03*
X190890000Y-84000000D03*
X189620000Y-84000000D03*
X188350000Y-84000000D03*
X187080000Y-84000000D03*
X185810000Y-84000000D03*
X184540000Y-84000000D03*
X183270000Y-84000000D03*
X182000000Y-84000000D03*
%TD*%
D15*
%TO.C,C39*%
X207000000Y-62500000D03*
X208550000Y-62500000D03*
%TD*%
D13*
%TO.C,R28*%
X192750000Y-72750000D03*
X192750000Y-74575000D03*
%TD*%
D12*
%TO.C,C32*%
X182500000Y-80250000D03*
X180950000Y-80250000D03*
%TD*%
%TO.C,C17*%
X114500000Y-95500000D03*
X112950000Y-95500000D03*
%TD*%
D14*
%TO.C,U7*%
X152750000Y-64700000D03*
X154020000Y-64700000D03*
X155290000Y-64700000D03*
X156560000Y-64700000D03*
X157830000Y-64700000D03*
X159100000Y-64700000D03*
X160370000Y-64700000D03*
X161640000Y-64700000D03*
X161640000Y-59750000D03*
X160370000Y-59750000D03*
X159100000Y-59750000D03*
X157830000Y-59750000D03*
X156560000Y-59750000D03*
X155290000Y-59750000D03*
X154020000Y-59750000D03*
X152750000Y-59750000D03*
%TD*%
D12*
%TO.C,C20*%
X199500000Y-97000000D03*
X197950000Y-97000000D03*
%TD*%
%TO.C,C27*%
X131500000Y-81750000D03*
X129950000Y-81750000D03*
%TD*%
D13*
%TO.C,R24*%
X171750000Y-68500000D03*
X171750000Y-70325000D03*
%TD*%
D15*
%TO.C,C42*%
X212500000Y-62500000D03*
X214050000Y-62500000D03*
%TD*%
D12*
%TO.C,C22*%
X165500000Y-97000000D03*
X163950000Y-97000000D03*
%TD*%
D18*
%TO.C,U9*%
X165000000Y-93300000D03*
X166270000Y-93300000D03*
X167540000Y-93300000D03*
X168810000Y-93300000D03*
X170080000Y-93300000D03*
X171350000Y-93300000D03*
X172620000Y-93300000D03*
X173890000Y-93300000D03*
X175160000Y-93300000D03*
X176430000Y-93300000D03*
X177700000Y-93300000D03*
X178970000Y-93300000D03*
X178970000Y-84000000D03*
X177700000Y-84000000D03*
X176430000Y-84000000D03*
X175160000Y-84000000D03*
X173890000Y-84000000D03*
X172620000Y-84000000D03*
X171350000Y-84000000D03*
X170080000Y-84000000D03*
X168810000Y-84000000D03*
X167540000Y-84000000D03*
X166270000Y-84000000D03*
X165000000Y-84000000D03*
%TD*%
%TO.C,U11*%
X114000000Y-93300000D03*
X115270000Y-93300000D03*
X116540000Y-93300000D03*
X117810000Y-93300000D03*
X119080000Y-93300000D03*
X120350000Y-93300000D03*
X121620000Y-93300000D03*
X122890000Y-93300000D03*
X124160000Y-93300000D03*
X125430000Y-93300000D03*
X126700000Y-93300000D03*
X127970000Y-93300000D03*
X127970000Y-84000000D03*
X126700000Y-84000000D03*
X125430000Y-84000000D03*
X124160000Y-84000000D03*
X122890000Y-84000000D03*
X121620000Y-84000000D03*
X120350000Y-84000000D03*
X119080000Y-84000000D03*
X117810000Y-84000000D03*
X116540000Y-84000000D03*
X115270000Y-84000000D03*
X114000000Y-84000000D03*
%TD*%
D12*
%TO.C,C34*%
X131500000Y-97000000D03*
X129950000Y-97000000D03*
%TD*%
D13*
%TO.C,R10*%
X133500000Y-68500000D03*
X133500000Y-70325000D03*
%TD*%
D12*
%TO.C,C25*%
X165500000Y-81750000D03*
X163950000Y-81750000D03*
%TD*%
D13*
%TO.C,R3*%
X147750000Y-72750000D03*
X147750000Y-74575000D03*
%TD*%
D14*
%TO.C,U1*%
X114500000Y-64700000D03*
X115770000Y-64700000D03*
X117040000Y-64700000D03*
X118310000Y-64700000D03*
X119580000Y-64700000D03*
X120850000Y-64700000D03*
X122120000Y-64700000D03*
X123390000Y-64700000D03*
X123390000Y-59750000D03*
X122120000Y-59750000D03*
X120850000Y-59750000D03*
X119580000Y-59750000D03*
X118310000Y-59750000D03*
X117040000Y-59750000D03*
X115770000Y-59750000D03*
X114500000Y-59750000D03*
%TD*%
M02*
