%TF.GenerationSoftware,KiCad,Pcbnew,7.0.8*%
%TF.CreationDate,2023-10-20T14:11:59-05:00*%
%TF.ProjectId,breakout1,62726561-6b6f-4757-9431-2e6b69636164,rev?*%
%TF.SameCoordinates,Original*%
%TF.FileFunction,Copper,L4,Bot*%
%TF.FilePolarity,Positive*%
%FSLAX46Y46*%
G04 Gerber Fmt 4.6, Leading zero omitted, Abs format (unit mm)*
G04 Created by KiCad (PCBNEW 7.0.8) date 2023-10-20 14:11:59*
%MOMM*%
%LPD*%
G01*
G04 APERTURE LIST*
G04 Aperture macros list*
%AMRoundRect*
0 Rectangle with rounded corners*
0 $1 Rounding radius*
0 $2 $3 $4 $5 $6 $7 $8 $9 X,Y pos of 4 corners*
0 Add a 4 corners polygon primitive as box body*
4,1,4,$2,$3,$4,$5,$6,$7,$8,$9,$2,$3,0*
0 Add four circle primitives for the rounded corners*
1,1,$1+$1,$2,$3*
1,1,$1+$1,$4,$5*
1,1,$1+$1,$6,$7*
1,1,$1+$1,$8,$9*
0 Add four rect primitives between the rounded corners*
20,1,$1+$1,$2,$3,$4,$5,0*
20,1,$1+$1,$4,$5,$6,$7,0*
20,1,$1+$1,$6,$7,$8,$9,0*
20,1,$1+$1,$8,$9,$2,$3,0*%
G04 Aperture macros list end*
%TA.AperFunction,ComponentPad*%
%ADD10C,4.500000*%
%TD*%
%TA.AperFunction,ComponentPad*%
%ADD11R,1.700000X1.700000*%
%TD*%
%TA.AperFunction,ComponentPad*%
%ADD12O,1.700000X1.700000*%
%TD*%
%TA.AperFunction,ComponentPad*%
%ADD13RoundRect,0.250000X0.350000X0.350000X-0.350000X0.350000X-0.350000X-0.350000X0.350000X-0.350000X0*%
%TD*%
%TA.AperFunction,ComponentPad*%
%ADD14C,1.200000*%
%TD*%
%TA.AperFunction,ComponentPad*%
%ADD15R,3.500000X3.500000*%
%TD*%
%TA.AperFunction,ComponentPad*%
%ADD16RoundRect,0.750000X-1.000000X0.750000X-1.000000X-0.750000X1.000000X-0.750000X1.000000X0.750000X0*%
%TD*%
%TA.AperFunction,ComponentPad*%
%ADD17RoundRect,0.875000X-0.875000X0.875000X-0.875000X-0.875000X0.875000X-0.875000X0.875000X0.875000X0*%
%TD*%
%TA.AperFunction,ViaPad*%
%ADD18C,0.700000*%
%TD*%
%TA.AperFunction,ViaPad*%
%ADD19C,0.900000*%
%TD*%
%TA.AperFunction,ViaPad*%
%ADD20C,0.685800*%
%TD*%
%TA.AperFunction,Conductor*%
%ADD21C,0.250000*%
%TD*%
%TA.AperFunction,Conductor*%
%ADD22C,0.254000*%
%TD*%
G04 APERTURE END LIST*
D10*
%TO.P,H1,1,1*%
%TO.N,GND*%
X109750000Y-42500000D03*
%TD*%
D11*
%TO.P,J6,1,Pin_1*%
%TO.N,GPIO0*%
X213040000Y-114540000D03*
D12*
%TO.P,J6,2,Pin_2*%
%TO.N,GND*%
X210500000Y-114540000D03*
%TO.P,J6,3,Pin_3*%
%TO.N,GPIO1*%
X213040000Y-112000000D03*
%TO.P,J6,4,Pin_4*%
%TO.N,GND*%
X210500000Y-112000000D03*
%TD*%
D11*
%TO.P,JP1,1,A*%
%TO.N,Net-(JP1-A)*%
X217000000Y-81500000D03*
D12*
%TO.P,JP1,2,B*%
%TO.N,+5V*%
X217000000Y-84040000D03*
%TD*%
D13*
%TO.P,J1,1,Pin_1*%
%TO.N,Mark 0 In*%
X153750000Y-51000000D03*
D14*
%TO.P,J1,2,Pin_2*%
%TO.N,GND*%
X153750000Y-49000000D03*
%TO.P,J1,3,Pin_3*%
%TO.N,Mark 0 Out*%
X151750000Y-51000000D03*
%TO.P,J1,4,Pin_4*%
%TO.N,GND*%
X151750000Y-49000000D03*
%TO.P,J1,5,Pin_5*%
%TO.N,Bus In 7*%
X149750000Y-51000000D03*
%TO.P,J1,6,Pin_6*%
%TO.N,GND*%
X149750000Y-49000000D03*
%TO.P,J1,7,Pin_7*%
%TO.N,Bus Out 7*%
X147750000Y-51000000D03*
%TO.P,J1,8,Pin_8*%
%TO.N,GND*%
X147750000Y-49000000D03*
%TO.P,J1,9,Pin_9*%
%TO.N,Bus In 6*%
X145750000Y-51000000D03*
%TO.P,J1,10,Pin_10*%
%TO.N,GND*%
X145750000Y-49000000D03*
%TO.P,J1,11,Pin_11*%
%TO.N,Bus Out 6*%
X143750000Y-51000000D03*
%TO.P,J1,12,Pin_12*%
%TO.N,GND*%
X143750000Y-49000000D03*
%TO.P,J1,13,Pin_13*%
%TO.N,Bus In 5*%
X141750000Y-51000000D03*
%TO.P,J1,14,Pin_14*%
%TO.N,GND*%
X141750000Y-49000000D03*
%TO.P,J1,15,Pin_15*%
%TO.N,Bus Out 5*%
X139750000Y-51000000D03*
%TO.P,J1,16,Pin_16*%
%TO.N,GND*%
X139750000Y-49000000D03*
%TO.P,J1,17,Pin_17*%
%TO.N,Bus In 4*%
X137750000Y-51000000D03*
%TO.P,J1,18,Pin_18*%
%TO.N,GND*%
X137750000Y-49000000D03*
%TO.P,J1,19,Pin_19*%
%TO.N,Bus Out 4*%
X135750000Y-51000000D03*
%TO.P,J1,20,Pin_20*%
%TO.N,GND*%
X135750000Y-49000000D03*
%TO.P,J1,21,Pin_21*%
%TO.N,Bus In 3*%
X133750000Y-51000000D03*
%TO.P,J1,22,Pin_22*%
%TO.N,GND*%
X133750000Y-49000000D03*
%TO.P,J1,23,Pin_23*%
%TO.N,Bus Out 3*%
X131750000Y-51000000D03*
%TO.P,J1,24,Pin_24*%
%TO.N,GND*%
X131750000Y-49000000D03*
%TO.P,J1,25,Pin_25*%
%TO.N,Bus In 2*%
X129750000Y-51000000D03*
%TO.P,J1,26,Pin_26*%
%TO.N,GND*%
X129750000Y-49000000D03*
%TO.P,J1,27,Pin_27*%
%TO.N,Bus Out 2*%
X127750000Y-51000000D03*
%TO.P,J1,28,Pin_28*%
%TO.N,GND*%
X127750000Y-49000000D03*
%TO.P,J1,29,Pin_29*%
%TO.N,Bus In 1*%
X125750000Y-51000000D03*
%TO.P,J1,30,Pin_30*%
%TO.N,GND*%
X125750000Y-49000000D03*
%TO.P,J1,31,Pin_31*%
%TO.N,Bus Out 1*%
X123750000Y-51000000D03*
%TO.P,J1,32,Pin_32*%
%TO.N,GND*%
X123750000Y-49000000D03*
%TO.P,J1,33,Pin_33*%
%TO.N,Bus In 0*%
X121750000Y-51000000D03*
%TO.P,J1,34,Pin_34*%
%TO.N,GND*%
X121750000Y-49000000D03*
%TO.P,J1,35,Pin_35*%
%TO.N,Bus Out 0*%
X119750000Y-51000000D03*
%TO.P,J1,36,Pin_36*%
%TO.N,GND*%
X119750000Y-49000000D03*
%TO.P,J1,37,Pin_37*%
%TO.N,Bus In P*%
X117750000Y-51000000D03*
%TO.P,J1,38,Pin_38*%
%TO.N,GND*%
X117750000Y-49000000D03*
%TO.P,J1,39,Pin_39*%
%TO.N,Bus Out P*%
X115750000Y-51000000D03*
%TO.P,J1,40,Pin_40*%
%TO.N,GND*%
X115750000Y-49000000D03*
%TD*%
D10*
%TO.P,H2,1,1*%
%TO.N,GND*%
X218250000Y-42500000D03*
%TD*%
D15*
%TO.P,J4,1*%
%TO.N,Net-(F1-Pad1)*%
X209500000Y-52500000D03*
D16*
%TO.P,J4,2*%
%TO.N,GND*%
X209500000Y-46500000D03*
D17*
%TO.P,J4,3*%
%TO.N,N/C*%
X204800000Y-49500000D03*
%TD*%
D11*
%TO.P,JP2,1,A*%
%TO.N,Net-(JP2-A)*%
X217000000Y-94250000D03*
D12*
%TO.P,JP2,2,B*%
%TO.N,+3V3*%
X217000000Y-96790000D03*
%TD*%
D14*
%TO.P,J2,40,Pin_40*%
%TO.N,GND*%
X161000000Y-49000000D03*
%TO.P,J2,39,Pin_39*%
%TO.N,Operational In*%
X161000000Y-51000000D03*
%TO.P,J2,38,Pin_38*%
%TO.N,GND*%
X163000000Y-49000000D03*
%TO.P,J2,37,Pin_37*%
%TO.N,Clock Out*%
X163000000Y-51000000D03*
%TO.P,J2,36,Pin_36*%
%TO.N,GND*%
X165000000Y-49000000D03*
%TO.P,J2,35,Pin_35*%
%TO.N,Status In*%
X165000000Y-51000000D03*
%TO.P,J2,34,Pin_34*%
%TO.N,GND*%
X167000000Y-49000000D03*
%TO.P,J2,33,Pin_33*%
%TO.N,Metering Out*%
X167000000Y-51000000D03*
%TO.P,J2,32,Pin_32*%
%TO.N,GND*%
X169000000Y-49000000D03*
%TO.P,J2,31,Pin_31*%
%TO.N,Address In*%
X169000000Y-51000000D03*
%TO.P,J2,30,Pin_30*%
%TO.N,GND*%
X171000000Y-49000000D03*
%TO.P,J2,29,Pin_29*%
%TO.N,Metering In*%
X171000000Y-51000000D03*
%TO.P,J2,28,Pin_28*%
%TO.N,GND*%
X173000000Y-49000000D03*
%TO.P,J2,27,Pin_27*%
%TO.N,Service In*%
X173000000Y-51000000D03*
%TO.P,J2,26,Pin_26*%
%TO.N,GND*%
X175000000Y-49000000D03*
%TO.P,J2,25,Pin_25*%
%TO.N,Request In*%
X175000000Y-51000000D03*
%TO.P,J2,24,Pin_24*%
%TO.N,GND*%
X177000000Y-49000000D03*
%TO.P,J2,23,Pin_23*%
%TO.N,Select In*%
X177000000Y-51000000D03*
%TO.P,J2,22,Pin_22*%
%TO.N,GND*%
X179000000Y-49000000D03*
%TO.P,J2,21,Pin_21*%
%TO.N,Data In*%
X179000000Y-51000000D03*
%TO.P,J2,20,Pin_20*%
%TO.N,GND*%
X181000000Y-49000000D03*
%TO.P,J2,19,Pin_19*%
%TO.N,Select Out*%
X181000000Y-51000000D03*
%TO.P,J2,18,Pin_18*%
%TO.N,unconnected-(J2-Pin_18-Pad18)*%
X183000000Y-49000000D03*
%TO.P,J2,17,Pin_17*%
%TO.N,unconnected-(J2-Pin_17-Pad17)*%
X183000000Y-51000000D03*
%TO.P,J2,16,Pin_16*%
%TO.N,GND*%
X185000000Y-49000000D03*
%TO.P,J2,15,Pin_15*%
%TO.N,Address Out*%
X185000000Y-51000000D03*
%TO.P,J2,14,Pin_14*%
%TO.N,GND*%
X187000000Y-49000000D03*
%TO.P,J2,13,Pin_13*%
%TO.N,Data Out*%
X187000000Y-51000000D03*
%TO.P,J2,12,Pin_12*%
%TO.N,GND*%
X189000000Y-49000000D03*
%TO.P,J2,11,Pin_11*%
%TO.N,Command Out*%
X189000000Y-51000000D03*
%TO.P,J2,10,Pin_10*%
%TO.N,GND*%
X191000000Y-49000000D03*
%TO.P,J2,9,Pin_9*%
%TO.N,Disconnect In*%
X191000000Y-51000000D03*
%TO.P,J2,8,Pin_8*%
%TO.N,GND*%
X193000000Y-49000000D03*
%TO.P,J2,7,Pin_7*%
%TO.N,Suppress Out*%
X193000000Y-51000000D03*
%TO.P,J2,6,Pin_6*%
%TO.N,GND*%
X195000000Y-49000000D03*
%TO.P,J2,5,Pin_5*%
%TO.N,Hold Out*%
X195000000Y-51000000D03*
%TO.P,J2,4,Pin_4*%
%TO.N,GND*%
X197000000Y-49000000D03*
%TO.P,J2,3,Pin_3*%
%TO.N,Service Out*%
X197000000Y-51000000D03*
%TO.P,J2,2,Pin_2*%
%TO.N,GND*%
X199000000Y-49000000D03*
D13*
%TO.P,J2,1,Pin_1*%
%TO.N,Operational Out*%
X199000000Y-51000000D03*
%TD*%
D11*
%TO.P,J3,1,Pin_1*%
%TO.N,GND*%
X109740000Y-114540000D03*
D12*
%TO.P,J3,2,Pin_2*%
X109740000Y-112000000D03*
%TO.P,J3,3,Pin_3*%
%TO.N,3V3 Bus In 0*%
X112280000Y-114540000D03*
%TO.P,J3,4,Pin_4*%
%TO.N,3V3 Bus In P*%
X112280000Y-112000000D03*
%TO.P,J3,5,Pin_5*%
%TO.N,3V3 Bus In 2*%
X114820000Y-114540000D03*
%TO.P,J3,6,Pin_6*%
%TO.N,3V3 Bus In 1*%
X114820000Y-112000000D03*
%TO.P,J3,7,Pin_7*%
%TO.N,3V3 Bus In 4*%
X117360000Y-114540000D03*
%TO.P,J3,8,Pin_8*%
%TO.N,3V3 Bus In 3*%
X117360000Y-112000000D03*
%TO.P,J3,9,Pin_9*%
%TO.N,3V3 Bus In 6*%
X119900000Y-114540000D03*
%TO.P,J3,10,Pin_10*%
%TO.N,3V3 Bus In 5*%
X119900000Y-112000000D03*
%TO.P,J3,11,Pin_11*%
%TO.N,3V3 Bus Out 0*%
X122440000Y-114540000D03*
%TO.P,J3,12,Pin_12*%
%TO.N,3V3 Bus Out P*%
X122440000Y-112000000D03*
%TO.P,J3,13,Pin_13*%
%TO.N,3V3 Bus Out 2*%
X124980000Y-114540000D03*
%TO.P,J3,14,Pin_14*%
%TO.N,3V3 Bus Out 1*%
X124980000Y-112000000D03*
%TO.P,J3,15,Pin_15*%
%TO.N,3V3 Bus Out 4*%
X127520000Y-114540000D03*
%TO.P,J3,16,Pin_16*%
%TO.N,3V3 Bus Out 3*%
X127520000Y-112000000D03*
%TO.P,J3,17,Pin_17*%
%TO.N,GND*%
X130060000Y-114540000D03*
%TO.P,J3,18,Pin_18*%
X130060000Y-112000000D03*
%TO.P,J3,19,Pin_19*%
%TO.N,unconnected-(J3-Pin_19-Pad19)*%
X132600000Y-114540000D03*
%TO.P,J3,20,Pin_20*%
%TO.N,unconnected-(J3-Pin_20-Pad20)*%
X132600000Y-112000000D03*
%TO.P,J3,21,Pin_21*%
%TO.N,3V3 Bus Out 6*%
X135140000Y-114540000D03*
%TO.P,J3,22,Pin_22*%
%TO.N,3V3 Bus Out 5*%
X135140000Y-112000000D03*
%TO.P,J3,23,Pin_23*%
%TO.N,3V3 Mark 0 In*%
X137680000Y-114540000D03*
%TO.P,J3,24,Pin_24*%
%TO.N,3V3 Bus In 7*%
X137680000Y-112000000D03*
%TO.P,J3,25,Pin_25*%
%TO.N,3V3 Status In*%
X140220000Y-114540000D03*
%TO.P,J3,26,Pin_26*%
%TO.N,3V3 Operational In*%
X140220000Y-112000000D03*
%TO.P,J3,27,Pin_27*%
%TO.N,3V3 Metering In*%
X142760000Y-114540000D03*
%TO.P,J3,28,Pin_28*%
%TO.N,3V3 Address In*%
X142760000Y-112000000D03*
%TO.P,J3,29,Pin_29*%
%TO.N,3V3 Bus Out 7*%
X145300000Y-114540000D03*
%TO.P,J3,30,Pin_30*%
%TO.N,3V3 Service In*%
X145300000Y-112000000D03*
%TO.P,J3,31,Pin_31*%
%TO.N,3V3 Clock Out*%
X147840000Y-114540000D03*
%TO.P,J3,32,Pin_32*%
%TO.N,3V3 Mark 0 Out*%
X147840000Y-112000000D03*
%TO.P,J3,33,Pin_33*%
%TO.N,GPIO0*%
X150380000Y-114540000D03*
%TO.P,J3,34,Pin_34*%
%TO.N,GPIO1*%
X150380000Y-112000000D03*
%TO.P,J3,35,Pin_35*%
%TO.N,GND*%
X152920000Y-114540000D03*
%TO.P,J3,36,Pin_36*%
X152920000Y-112000000D03*
%TO.P,J3,37,Pin_37*%
%TO.N,unconnected-(J3-Pin_37-Pad37)*%
X155460000Y-114540000D03*
%TO.P,J3,38,Pin_38*%
%TO.N,unconnected-(J3-Pin_38-Pad38)*%
X155460000Y-112000000D03*
%TO.P,J3,39,Pin_39*%
%TO.N,3V3 Address Out*%
X158000000Y-114540000D03*
%TO.P,J3,40,Pin_40*%
%TO.N,3V3 Metering Out*%
X158000000Y-112000000D03*
%TO.P,J3,41,Pin_41*%
%TO.N,3V3 Request In*%
X160540000Y-114540000D03*
%TO.P,J3,42,Pin_42*%
%TO.N,3V3 Select Out*%
X160540000Y-112000000D03*
%TO.P,J3,43,Pin_43*%
%TO.N,3V3 Disconnect In*%
X163080000Y-114540000D03*
%TO.P,J3,44,Pin_44*%
%TO.N,3V3 Select In*%
X163080000Y-112000000D03*
%TO.P,J3,45,Pin_45*%
%TO.N,3V3 Data Out*%
X165620000Y-114540000D03*
%TO.P,J3,46,Pin_46*%
%TO.N,3V3 Data In*%
X165620000Y-112000000D03*
%TO.P,J3,47,Pin_47*%
%TO.N,3V3 Suppress Out*%
X168160000Y-114540000D03*
%TO.P,J3,48,Pin_48*%
%TO.N,3V3 Command Out*%
X168160000Y-112000000D03*
%TO.P,J3,49,Pin_49*%
%TO.N,3V3 Operational Out*%
X170700000Y-114540000D03*
%TO.P,J3,50,Pin_50*%
%TO.N,3V3 Service Out*%
X170700000Y-112000000D03*
%TO.P,J3,51,Pin_51*%
%TO.N,3V3 Enable*%
X173240000Y-114540000D03*
%TO.P,J3,52,Pin_52*%
%TO.N,3V3 Hold Out*%
X173240000Y-112000000D03*
%TO.P,J3,53,Pin_53*%
%TO.N,GND*%
X175780000Y-114540000D03*
%TO.P,J3,54,Pin_54*%
X175780000Y-112000000D03*
%TO.P,J3,55,Pin_55*%
%TO.N,unconnected-(J3-Pin_55-Pad55)*%
X178320000Y-114540000D03*
%TO.P,J3,56,Pin_56*%
%TO.N,unconnected-(J3-Pin_56-Pad56)*%
X178320000Y-112000000D03*
%TD*%
D18*
%TO.N,GND*%
X158250000Y-57750000D03*
D19*
X162000000Y-95000000D03*
X149250000Y-66500000D03*
D18*
X160750000Y-82250000D03*
D19*
X130500000Y-71500000D03*
X123750000Y-66500000D03*
X147750000Y-75750000D03*
X179000000Y-82250000D03*
X128750000Y-96000000D03*
D18*
X184500000Y-82250000D03*
D19*
X191250000Y-71500000D03*
X159000000Y-71500000D03*
X214250000Y-61250000D03*
X196000000Y-95000000D03*
X150000000Y-57750000D03*
X196750000Y-81250000D03*
X145000000Y-95000000D03*
X143250000Y-71500000D03*
X162000000Y-82250000D03*
X162750000Y-56250000D03*
D20*
X194882800Y-66750000D03*
D19*
X186000000Y-75750000D03*
X145750000Y-97000000D03*
X140250000Y-71500000D03*
X200250000Y-66500000D03*
X179750000Y-80250000D03*
X124500000Y-57750000D03*
X154500000Y-75750000D03*
X162750000Y-57750000D03*
X128750000Y-97000000D03*
X145750000Y-80250000D03*
X143750000Y-95000000D03*
X119250000Y-75750000D03*
X179750000Y-81250000D03*
D18*
X133500000Y-82250000D03*
D19*
X165750000Y-71500000D03*
X136500000Y-66500000D03*
D20*
X210250000Y-95000000D03*
D19*
X188250000Y-56250000D03*
X196750000Y-80250000D03*
D18*
X183750000Y-95000000D03*
D19*
X111750000Y-56250000D03*
D18*
X150500000Y-82250000D03*
D19*
X197250000Y-71500000D03*
X162750000Y-97000000D03*
D20*
X212000000Y-80000000D03*
D19*
X167250000Y-75750000D03*
X196750000Y-97000000D03*
X156000000Y-71500000D03*
X145750000Y-81250000D03*
X170250000Y-75750000D03*
X187500000Y-66500000D03*
X128750000Y-81250000D03*
X145750000Y-96000000D03*
X196000000Y-82250000D03*
X217250000Y-61250000D03*
X126750000Y-95000000D03*
X145000000Y-82250000D03*
X213000000Y-82250000D03*
D20*
X175250000Y-95000000D03*
D18*
X149750000Y-95000000D03*
D19*
X183000000Y-75750000D03*
X137250000Y-57750000D03*
D20*
X210750000Y-97250000D03*
D19*
X181500000Y-71500000D03*
X111750000Y-57750000D03*
X179000000Y-95000000D03*
X162750000Y-81250000D03*
X132000000Y-75750000D03*
X162750000Y-80250000D03*
X111750000Y-80250000D03*
X213000000Y-95000000D03*
X128750000Y-80250000D03*
X135000000Y-75750000D03*
X174750000Y-66500000D03*
D20*
X176500000Y-95000000D03*
D19*
X111750000Y-97000000D03*
X188250000Y-57750000D03*
X209750000Y-62500000D03*
D18*
X167500000Y-82250000D03*
D19*
X111750000Y-81750000D03*
X122250000Y-75750000D03*
X175500000Y-57750000D03*
X179750000Y-96000000D03*
X162750000Y-96000000D03*
X116250000Y-75750000D03*
X157500000Y-75750000D03*
X117750000Y-71500000D03*
X160750000Y-95000000D03*
X161250000Y-66500000D03*
X146250000Y-71500000D03*
X205500000Y-61250000D03*
X150000000Y-56250000D03*
X144750000Y-75750000D03*
X128000000Y-82250000D03*
D20*
X197750000Y-66750000D03*
X192000000Y-82250000D03*
D19*
X175500000Y-56250000D03*
X171750000Y-71500000D03*
X211750000Y-95000000D03*
X179750000Y-97000000D03*
X168750000Y-71500000D03*
D18*
X116500000Y-82250000D03*
D19*
X196750000Y-96000000D03*
X192750000Y-75750000D03*
X153000000Y-71500000D03*
D20*
X190750000Y-82250000D03*
D19*
X178500000Y-71500000D03*
X124500000Y-56250000D03*
X129000000Y-75750000D03*
D18*
X201500000Y-82250000D03*
D19*
X128000000Y-95000000D03*
X184500000Y-71500000D03*
X177750000Y-95000000D03*
X141750000Y-75750000D03*
X194250000Y-71500000D03*
D20*
X194500000Y-82250000D03*
D19*
X127500000Y-71500000D03*
X111750000Y-95500000D03*
X114750000Y-71500000D03*
X120750000Y-71500000D03*
X180000000Y-75750000D03*
D18*
X115750000Y-95000000D03*
D20*
X193250000Y-82250000D03*
D19*
X137250000Y-56250000D03*
X133500000Y-71500000D03*
X194750000Y-95000000D03*
D20*
%TO.N,Select In*%
X182750000Y-57750000D03*
%TO.N,Request In*%
X180212600Y-57750000D03*
%TO.N,Data In*%
X185250000Y-57750000D03*
D18*
%TO.N,5V Bus In P*%
X116750000Y-66750000D03*
X117500000Y-78250000D03*
%TO.N,5V Bus In 0*%
X119250000Y-66750000D03*
X118250000Y-77500000D03*
D20*
%TO.N,5V Bus Out 1*%
X126000000Y-66500000D03*
D18*
X122500000Y-57750000D03*
D20*
%TO.N,5V Bus Out 0*%
X125250000Y-67500000D03*
D18*
X120000000Y-57750000D03*
D20*
%TO.N,5V Bus Out P*%
X124500000Y-68500000D03*
D18*
X117500000Y-57750000D03*
%TO.N,5V Bus In 2*%
X124250000Y-77750000D03*
X129500000Y-66750000D03*
%TO.N,5V Bus In 3*%
X132000000Y-66750000D03*
X125500000Y-77750000D03*
D19*
%TO.N,+5V*%
X115750000Y-80250000D03*
X114500000Y-55000000D03*
X200750000Y-80250000D03*
X127250000Y-55000000D03*
X183750000Y-80250000D03*
X132750000Y-80250000D03*
X191000000Y-55000000D03*
X140000000Y-55000000D03*
X178250000Y-55000000D03*
X149750000Y-80250000D03*
X152750000Y-55000000D03*
X166750000Y-80250000D03*
X165500000Y-55000000D03*
D18*
%TO.N,5V Bus In 4*%
X125500000Y-79000000D03*
D20*
X136000000Y-76250000D03*
%TO.N,5V Bus Out 4*%
X138750000Y-66500000D03*
D18*
X135250000Y-57750000D03*
%TO.N,5V Bus Out 3*%
X132750000Y-57750000D03*
D20*
X138000000Y-67500000D03*
D18*
%TO.N,5V Bus Out 2*%
X130250000Y-57750000D03*
D20*
X137250000Y-68500000D03*
D18*
%TO.N,5V Bus In 5*%
X142250000Y-66750000D03*
X126750000Y-79000000D03*
%TO.N,5V Bus In 6*%
X126750000Y-80250000D03*
X144750000Y-66750000D03*
D20*
%TO.N,5V Bus In 7*%
X149195633Y-76250000D03*
X151750000Y-80250000D03*
D18*
%TO.N,5V Bus Out 7*%
X148000000Y-57750000D03*
D20*
X151500000Y-66500000D03*
D18*
%TO.N,5V Bus Out 6*%
X145500000Y-57750000D03*
D20*
X150750000Y-67500000D03*
%TO.N,5V Bus Out 5*%
X150000000Y-68500000D03*
D18*
X143000000Y-57750000D03*
D20*
%TO.N,5V Operational In*%
X153000000Y-79000000D03*
D18*
X157500000Y-66750000D03*
D20*
%TO.N,5V Status In*%
X157500000Y-77750000D03*
X160000000Y-75250000D03*
%TO.N,5V Address In*%
X158750000Y-77750000D03*
D18*
X167750000Y-66750000D03*
%TO.N,5V Command Out*%
X183750000Y-57750000D03*
D20*
X189000000Y-67500000D03*
%TO.N,5V Address Out*%
X176250000Y-67500000D03*
D18*
X171000000Y-57750000D03*
D20*
%TO.N,5V Select Out*%
X177000000Y-66500000D03*
D18*
X173500000Y-57750000D03*
D20*
%TO.N,5V Service In*%
X172750000Y-75250000D03*
X160000000Y-79000000D03*
%TO.N,5V Select In*%
X184500000Y-77750000D03*
D18*
X183000000Y-66750000D03*
%TO.N,5V Request In*%
X180500000Y-66750000D03*
D20*
X183250000Y-77750000D03*
D18*
%TO.N,5V Data Out*%
X181250000Y-57750000D03*
D20*
X188250000Y-68500000D03*
D18*
%TO.N,5V Suppress Out*%
X186250000Y-57750000D03*
D20*
X189750000Y-66500000D03*
D18*
%TO.N,5V Disconnect In*%
X193250000Y-66750000D03*
D20*
X186750000Y-79000000D03*
D18*
%TO.N,5V Enable*%
X138250000Y-54000000D03*
X151000000Y-54000000D03*
X125500000Y-54000000D03*
X183500000Y-54000000D03*
D20*
X188000000Y-55000000D03*
D18*
X112500000Y-60500000D03*
X176500000Y-54000000D03*
X163750000Y-54000000D03*
X199890000Y-57140000D03*
%TO.N,5V Hold Out*%
X199500000Y-68500000D03*
X194000000Y-57750000D03*
D20*
%TO.N,5V Mark 0 In*%
X151750000Y-79000000D03*
D18*
X155000000Y-66750000D03*
D20*
%TO.N,5V Metering In*%
X158750000Y-79000000D03*
D18*
X170250000Y-66750000D03*
D20*
%TO.N,5V Metering Out*%
X175500000Y-68500000D03*
D18*
X168500000Y-57750000D03*
%TO.N,5V Clock Out*%
X160750000Y-57750000D03*
D20*
X164250000Y-66500000D03*
D18*
%TO.N,5V Mark 0 Out*%
X155750000Y-57750000D03*
D20*
X162750000Y-68500000D03*
D18*
%TO.N,+3V3*%
X132750000Y-95000000D03*
X166750000Y-95000000D03*
D19*
X148500000Y-98250000D03*
X165500000Y-98250000D03*
X182500000Y-98250000D03*
X131500000Y-98250000D03*
X114500000Y-98250000D03*
D18*
X200750000Y-95000000D03*
D19*
X199500000Y-98250000D03*
%TD*%
D21*
%TO.N,Select In*%
X182750000Y-56750000D02*
X177000000Y-51000000D01*
X182750000Y-57750000D02*
X182750000Y-56750000D01*
%TO.N,Request In*%
X180212600Y-57750000D02*
X180212600Y-55712600D01*
X175000000Y-51000000D02*
X175000000Y-52500000D01*
X177750000Y-53250000D02*
X175750000Y-53250000D01*
X180212600Y-55712600D02*
X177750000Y-53250000D01*
X175750000Y-53250000D02*
X175000000Y-52500000D01*
%TO.N,Data In*%
X185250000Y-57750000D02*
X185250000Y-57250000D01*
X185250000Y-57250000D02*
X179000000Y-51000000D01*
%TO.N,5V Bus In P*%
X116250000Y-71000000D02*
X116250000Y-71750000D01*
X116250000Y-67250000D02*
X116250000Y-71000000D01*
X117500000Y-73000000D02*
X117500000Y-78250000D01*
X116750000Y-66750000D02*
X116250000Y-67250000D01*
X116250000Y-71750000D02*
X117500000Y-73000000D01*
%TO.N,5V Bus In 0*%
X119250000Y-72000000D02*
X118250000Y-73000000D01*
X119250000Y-66750000D02*
X119250000Y-72000000D01*
X118250000Y-73000000D02*
X118250000Y-77500000D01*
%TO.N,5V Bus Out 1*%
X126000000Y-61250000D02*
X126000000Y-66500000D01*
X122500000Y-57750000D02*
X125000000Y-60250000D01*
X125000000Y-60250000D02*
X126000000Y-61250000D01*
%TO.N,5V Bus Out 0*%
X120000000Y-57750000D02*
X125250000Y-63000000D01*
X125250000Y-63000000D02*
X125250000Y-67500000D01*
%TO.N,5V Bus Out P*%
X124500000Y-68500000D02*
X124500000Y-68750000D01*
X124500000Y-64750000D02*
X124500000Y-68500000D01*
X117500000Y-57750000D02*
X124500000Y-64750000D01*
%TO.N,5V Bus In 2*%
X129500000Y-66750000D02*
X129000000Y-67250000D01*
X129000000Y-70500000D02*
X129000000Y-71750000D01*
X129000000Y-71750000D02*
X129000000Y-72000000D01*
X129000000Y-71250000D02*
X129000000Y-72000000D01*
X129000000Y-73000000D02*
X129000000Y-71750000D01*
X124250000Y-77750000D02*
X129000000Y-73000000D01*
X129000000Y-70500000D02*
X129000000Y-71250000D01*
X129000000Y-67250000D02*
X129000000Y-70500000D01*
%TO.N,5V Bus In 3*%
X132000000Y-70500000D02*
X132000000Y-71028699D01*
X132000000Y-71250000D02*
X132000000Y-70500000D01*
X132000000Y-71250000D02*
X125500000Y-77750000D01*
X132000000Y-70500000D02*
X132000000Y-66750000D01*
%TO.N,5V Bus In 4*%
X128250000Y-76750000D02*
X128000000Y-76750000D01*
X128500000Y-76750000D02*
X129250000Y-76750000D01*
X128500000Y-76750000D02*
X133750000Y-76750000D01*
X127750000Y-76750000D02*
X129250000Y-76750000D01*
X128250000Y-76750000D02*
X127750000Y-76750000D01*
X125500000Y-79000000D02*
X127750000Y-76750000D01*
X128250000Y-76750000D02*
X128500000Y-76750000D01*
X133750000Y-76750000D02*
X135500000Y-76750000D01*
X135500000Y-76750000D02*
X136000000Y-76250000D01*
%TO.N,5V Bus Out 4*%
X138750000Y-61250000D02*
X138750000Y-66500000D01*
X135250000Y-57750000D02*
X138750000Y-61250000D01*
%TO.N,5V Bus Out 3*%
X138000000Y-63000000D02*
X138000000Y-67500000D01*
X137500000Y-62500000D02*
X138000000Y-63000000D01*
X132750000Y-57750000D02*
X137500000Y-62500000D01*
%TO.N,5V Bus Out 2*%
X134750000Y-62250000D02*
X137250000Y-64750000D01*
X137250000Y-64750000D02*
X137250000Y-68500000D01*
X134750000Y-62250000D02*
X134375000Y-61875000D01*
X130250000Y-57750000D02*
X134375000Y-61875000D01*
%TO.N,5V Bus In 5*%
X138000000Y-76000000D02*
X137250000Y-76750000D01*
X138750000Y-75250000D02*
X138500000Y-75500000D01*
X141750000Y-67250000D02*
X141750000Y-72250000D01*
X140250000Y-73750000D02*
X138750000Y-75250000D01*
X138500000Y-75500000D02*
X138000000Y-76000000D01*
X136500000Y-77500000D02*
X128250000Y-77500000D01*
X126750000Y-79000000D02*
X128250000Y-77500000D01*
X141750000Y-72250000D02*
X140250000Y-73750000D01*
X142250000Y-66750000D02*
X141750000Y-67250000D01*
X138750000Y-75250000D02*
X136500000Y-77500000D01*
%TO.N,5V Bus In 6*%
X137000000Y-78250000D02*
X128750000Y-78250000D01*
X144750000Y-71250000D02*
X143500000Y-72500000D01*
X142750000Y-72500000D02*
X137000000Y-78250000D01*
X143500000Y-72500000D02*
X142750000Y-72500000D01*
X128750000Y-78250000D02*
X126750000Y-80250000D01*
X144750000Y-66750000D02*
X144750000Y-71250000D01*
D22*
%TO.N,5V Bus In 7*%
X149195633Y-77695633D02*
X150125000Y-78625000D01*
D21*
X149250000Y-77750000D02*
X150125000Y-78625000D01*
X150125000Y-78625000D02*
X151750000Y-80250000D01*
D22*
X149195633Y-76250000D02*
X149195633Y-77695633D01*
D21*
%TO.N,5V Bus Out 7*%
X151500000Y-61250000D02*
X151500000Y-66500000D01*
X148000000Y-57750000D02*
X151500000Y-61250000D01*
%TO.N,5V Bus Out 6*%
X150750000Y-63000000D02*
X150750000Y-67500000D01*
X150500000Y-62750000D02*
X150750000Y-63000000D01*
X145500000Y-57750000D02*
X150500000Y-62750000D01*
%TO.N,5V Bus Out 5*%
X149750000Y-64500000D02*
X150000000Y-64750000D01*
X147500000Y-62250000D02*
X149750000Y-64500000D01*
X149750000Y-64500000D02*
X149977400Y-64727400D01*
X150000000Y-64750000D02*
X150000000Y-68500000D01*
X147500000Y-62250000D02*
X143000000Y-57750000D01*
%TO.N,5V Operational In*%
X157500000Y-71250000D02*
X153000000Y-75750000D01*
X157500000Y-66750000D02*
X157500000Y-71250000D01*
X153000000Y-75750000D02*
X153000000Y-79000000D01*
%TO.N,5V Status In*%
X157500000Y-77750000D02*
X160000000Y-75250000D01*
%TO.N,5V Address In*%
X167250000Y-68250000D02*
X167250000Y-68750000D01*
X167250000Y-68000000D02*
X167250000Y-68250000D01*
X167250000Y-71750000D02*
X167250000Y-71250000D01*
X167250000Y-71750000D02*
X166250000Y-72750000D01*
X163750000Y-72750000D02*
X158750000Y-77750000D01*
X167250000Y-67250000D02*
X167250000Y-68000000D01*
X167250000Y-68500000D02*
X167250000Y-68250000D01*
X167750000Y-66750000D02*
X167250000Y-67250000D01*
X166250000Y-72750000D02*
X163750000Y-72750000D01*
X167250000Y-71250000D02*
X167250000Y-68500000D01*
%TO.N,5V Command Out*%
X189000000Y-63000000D02*
X189000000Y-67500000D01*
X183750000Y-57750000D02*
X189000000Y-63000000D01*
%TO.N,5V Address Out*%
X175000000Y-61750000D02*
X176250000Y-63000000D01*
X171000000Y-57750000D02*
X175000000Y-61750000D01*
X176250000Y-63000000D02*
X176250000Y-67500000D01*
%TO.N,5V Select Out*%
X177000000Y-61250000D02*
X177000000Y-66500000D01*
X176000000Y-60250000D02*
X177000000Y-61250000D01*
X173500000Y-57750000D02*
X176000000Y-60250000D01*
%TO.N,5V Service In*%
X171250000Y-76750000D02*
X172750000Y-75250000D01*
X162250000Y-76750000D02*
X171250000Y-76750000D01*
X160000000Y-79000000D02*
X162250000Y-76750000D01*
%TO.N,5V Select In*%
X184500000Y-77750000D02*
X184500000Y-78000000D01*
X183000000Y-71250000D02*
X184500000Y-72750000D01*
X184500000Y-72750000D02*
X184500000Y-77750000D01*
X183000000Y-66750000D02*
X183000000Y-67750000D01*
X183000000Y-67750000D02*
X183000000Y-71250000D01*
%TO.N,5V Request In*%
X181500000Y-76000000D02*
X183250000Y-77750000D01*
X180500000Y-66750000D02*
X180000000Y-67250000D01*
X181500000Y-74750000D02*
X181500000Y-76000000D01*
X180500000Y-66750000D02*
X180500000Y-67000000D01*
X180000000Y-73250000D02*
X181500000Y-74750000D01*
X180000000Y-67250000D02*
X180000000Y-73250000D01*
%TO.N,5V Data Out*%
X181250000Y-57750000D02*
X186000000Y-62500000D01*
X188250000Y-64750000D02*
X188250000Y-68500000D01*
X186000000Y-62500000D02*
X188250000Y-64750000D01*
%TO.N,5V Suppress Out*%
X189750000Y-61250000D02*
X189750000Y-66500000D01*
X186250000Y-57750000D02*
X189250000Y-60750000D01*
X189250000Y-60750000D02*
X189750000Y-61250000D01*
%TO.N,5V Disconnect In*%
X192500000Y-73250000D02*
X187500000Y-78250000D01*
X193250000Y-66750000D02*
X192750000Y-67250000D01*
X192750000Y-67500000D02*
X192750000Y-70750000D01*
X192750000Y-67250000D02*
X192750000Y-67500000D01*
X192750000Y-73000000D02*
X192500000Y-73250000D01*
X187500000Y-78250000D02*
X186750000Y-79000000D01*
X192750000Y-70750000D02*
X192750000Y-73000000D01*
%TO.N,5V Enable*%
X117500000Y-54000000D02*
X112500000Y-59000000D01*
X196750000Y-54000000D02*
X199750000Y-57000000D01*
X125500000Y-54000000D02*
X117500000Y-54000000D01*
X189000000Y-54000000D02*
X190250000Y-54000000D01*
X112500000Y-60500000D02*
X112500000Y-59000000D01*
X188000000Y-55000000D02*
X189000000Y-54000000D01*
X183500000Y-54000000D02*
X190250000Y-54000000D01*
X190250000Y-54000000D02*
X196750000Y-54000000D01*
X125500000Y-54000000D02*
X151000000Y-54000000D01*
X151000000Y-54000000D02*
X176500000Y-54000000D01*
%TO.N,5V Hold Out*%
X198250000Y-62000000D02*
X199500000Y-63250000D01*
X199500000Y-63250000D02*
X199500000Y-68500000D01*
X194000000Y-57750000D02*
X196250000Y-60000000D01*
X196250000Y-60000000D02*
X198250000Y-62000000D01*
%TO.N,5V Mark 0 In*%
X154500000Y-71750000D02*
X153250000Y-73000000D01*
X151750000Y-74500000D02*
X151750000Y-79000000D01*
X153250000Y-73000000D02*
X151750000Y-74500000D01*
X155000000Y-66750000D02*
X154500000Y-67250000D01*
X154500000Y-67250000D02*
X154500000Y-71250000D01*
X154500000Y-71250000D02*
X154500000Y-71750000D01*
%TO.N,5V Metering In*%
X170250000Y-71750000D02*
X169500000Y-72500000D01*
X168250000Y-72500000D02*
X167000000Y-73750000D01*
X164000000Y-73750000D02*
X158750000Y-79000000D01*
X170250000Y-71028699D02*
X170250000Y-71750000D01*
X170250000Y-67069080D02*
X170250000Y-66750000D01*
X169500000Y-72500000D02*
X168250000Y-72500000D01*
X170250000Y-66750000D02*
X170250000Y-71028699D01*
X167000000Y-73750000D02*
X164000000Y-73750000D01*
%TO.N,5V Metering Out*%
X175500000Y-64750000D02*
X175500000Y-68500000D01*
X168500000Y-57750000D02*
X172750000Y-62000000D01*
X172750000Y-62000000D02*
X175500000Y-64750000D01*
%TO.N,5V Clock Out*%
X160750000Y-57750000D02*
X164250000Y-61250000D01*
X164250000Y-61250000D02*
X164250000Y-66500000D01*
%TO.N,5V Mark 0 Out*%
X162250000Y-64250000D02*
X162750000Y-64750000D01*
X162750000Y-64750000D02*
X162750000Y-68500000D01*
X155750000Y-57750000D02*
X162250000Y-64250000D01*
D22*
%TO.N,GPIO0*%
X204000000Y-107750000D02*
X209500000Y-113250000D01*
X154000000Y-107750000D02*
X204000000Y-107750000D01*
X151750000Y-110000000D02*
X154000000Y-107750000D01*
X150380000Y-114540000D02*
X151750000Y-113170000D01*
X151750000Y-113170000D02*
X151750000Y-110000000D01*
X209500000Y-113250000D02*
X211750000Y-113250000D01*
X211750000Y-113250000D02*
X213040000Y-114540000D01*
%TO.N,GPIO1*%
X153500000Y-107000000D02*
X208040000Y-107000000D01*
X150380000Y-112000000D02*
X150380000Y-110120000D01*
X208040000Y-107000000D02*
X213040000Y-112000000D01*
X150380000Y-110120000D02*
X153500000Y-107000000D01*
%TD*%
M02*
