M48
; DRILL file {KiCad 7.0.8} date Fri 20 Oct 2023 02:12:03 PM CDT
; FORMAT={-:-/ absolute / inch / decimal}
; #@! TF.CreationDate,2023-10-20T14:12:03-05:00
; #@! TF.GenerationSoftware,Kicad,Pcbnew,7.0.8
; #@! TF.FileFunction,Plated,1,4,PTH
FMAT,2
INCH
; #@! TA.AperFunction,Plated,PTH,ViaDrill
T1C0.0118
; #@! TA.AperFunction,Plated,PTH,ViaDrill
T2C0.0130
; #@! TA.AperFunction,Plated,PTH,ViaDrill
T3C0.0197
; #@! TA.AperFunction,Plated,PTH,ComponentDrill
T4C0.0295
; #@! TA.AperFunction,Plated,PTH,ComponentDrill
T5C0.0394
; #@! TA.AperFunction,Plated,PTH,ComponentDrill
T6C0.1063
%
G90
G05
T1
X4.4291Y-2.3819
X4.5571Y-3.7402
X4.5866Y-3.2382
X4.5965Y-2.628
X4.626Y-2.2736
X4.626Y-3.0807
X4.6555Y-3.0512
X4.6949Y-2.628
X4.7244Y-2.2736
X4.8228Y-2.2736
X4.8917Y-3.061
X4.9409Y-2.126
X4.9409Y-3.061
X4.9409Y-3.1102
X4.9902Y-3.1102
X4.9902Y-3.1594
X5.0984Y-2.628
X5.128Y-2.2736
X5.1969Y-2.628
X5.2264Y-2.2736
X5.2264Y-3.7402
X5.2559Y-3.2382
X5.3248Y-2.2736
X5.4429Y-2.126
X5.6004Y-2.628
X5.6299Y-2.2736
X5.6988Y-2.628
X5.7283Y-2.2736
X5.8268Y-2.2736
X5.8957Y-3.7402
X5.9252Y-3.2382
X5.9449Y-2.126
X6.1024Y-2.628
X6.1319Y-2.2736
X6.2008Y-2.628
X6.2303Y-2.2736
X6.3287Y-2.2736
X6.3287Y-3.2382
X6.4469Y-2.126
X6.565Y-3.7402
X6.5945Y-3.2382
X6.6043Y-2.628
X6.6339Y-2.2736
X6.7028Y-2.628
X6.7323Y-2.2736
X6.8307Y-2.2736
X6.9488Y-2.126
X7.1063Y-2.628
X7.1358Y-2.2736
X7.2047Y-2.628
X7.2244Y-2.126
X7.2343Y-2.2736
X7.2343Y-3.7402
X7.2638Y-3.2382
X7.3327Y-2.2736
X7.6083Y-2.628
X7.6378Y-2.2736
X7.8543Y-2.6969
X7.8697Y-2.2496
X7.9035Y-3.7402
X7.9331Y-3.2382
T2
X4.9016Y-2.6969
X4.9311Y-2.6575
X4.9606Y-2.6181
X5.3543Y-3.002
X5.4035Y-2.6969
X5.4331Y-2.6575
X5.4626Y-2.6181
X5.8738Y-3.002
X5.9055Y-2.6969
X5.935Y-2.6575
X5.9646Y-2.6181
X5.9744Y-3.1102
X5.9744Y-3.1594
X6.0236Y-3.1102
X6.2008Y-3.061
X6.25Y-3.061
X6.25Y-3.1102
X6.2992Y-2.9626
X6.2992Y-3.1102
X6.4075Y-2.6969
X6.4665Y-2.6181
X6.8012Y-2.9626
X6.8996Y-3.7402
X6.9094Y-2.6969
X6.939Y-2.6575
X6.9488Y-3.7402
X6.9685Y-2.6181
X7.095Y-2.2736
X7.1949Y-2.2736
X7.2146Y-3.061
X7.2638Y-3.061
X7.2933Y-2.2736
X7.3524Y-3.1102
X7.4016Y-2.1654
X7.4114Y-2.6969
X7.4409Y-2.6575
X7.4705Y-2.6181
X7.5098Y-3.2382
X7.5591Y-3.2382
X7.6083Y-3.2382
X7.6575Y-3.2382
X7.6726Y-2.628
X7.7854Y-2.628
X8.2776Y-3.7402
X8.2972Y-3.8287
X8.3465Y-3.1496
T3
X4.3996Y-2.2146
X4.3996Y-2.2736
X4.3996Y-3.1594
X4.3996Y-3.2185
X4.3996Y-3.7598
X4.3996Y-3.8189
X4.5079Y-2.1654
X4.5079Y-3.8681
X4.5177Y-2.815
X4.5571Y-3.1594
X4.5768Y-2.9823
X4.6358Y-2.815
X4.6949Y-2.9823
X4.7539Y-2.815
X4.813Y-2.9823
X4.872Y-2.6181
X4.9016Y-2.2146
X4.9016Y-2.2736
X4.9902Y-3.7402
X5.0098Y-2.1654
X5.0197Y-2.815
X5.0394Y-3.2382
X5.0394Y-3.7402
X5.0689Y-3.1594
X5.0689Y-3.1988
X5.0689Y-3.7795
X5.0689Y-3.8189
X5.0787Y-2.9823
X5.1378Y-2.815
X5.1772Y-3.8681
X5.1969Y-2.9823
X5.2264Y-3.1594
X5.2559Y-2.815
X5.315Y-2.9823
X5.374Y-2.6181
X5.4035Y-2.2146
X5.4035Y-2.2736
X5.5118Y-2.1654
X5.5217Y-2.815
X5.5807Y-2.9823
X5.6398Y-2.815
X5.6594Y-3.7402
X5.6988Y-2.9823
X5.7087Y-3.2382
X5.7087Y-3.7402
X5.7382Y-3.1594
X5.7382Y-3.1988
X5.7382Y-3.7795
X5.7382Y-3.8189
X5.7579Y-2.815
X5.8169Y-2.9823
X5.8465Y-3.8681
X5.876Y-2.6181
X5.8957Y-3.1594
X5.9055Y-2.2146
X5.9055Y-2.2736
X6.0138Y-2.1654
X6.0236Y-2.815
X6.0827Y-2.9823
X6.1417Y-2.815
X6.2008Y-2.9823
X6.2598Y-2.815
X6.3287Y-3.7402
X6.3484Y-2.6181
X6.378Y-3.2382
X6.378Y-3.7402
X6.4075Y-2.2146
X6.4075Y-2.2736
X6.4075Y-3.1594
X6.4075Y-3.1988
X6.4075Y-3.7795
X6.4075Y-3.8189
X6.5157Y-2.1654
X6.5157Y-3.8681
X6.5256Y-2.815
X6.565Y-3.1594
X6.5846Y-2.9823
X6.6437Y-2.815
X6.7028Y-2.9823
X6.7618Y-2.815
X6.8799Y-2.6181
X6.9094Y-2.2146
X6.9094Y-2.2736
X6.998Y-3.7402
X7.0177Y-2.1654
X7.0276Y-2.815
X7.0472Y-3.2382
X7.0472Y-3.7402
X7.0768Y-3.1594
X7.0768Y-3.1988
X7.0768Y-3.7795
X7.0768Y-3.8189
X7.0866Y-2.9823
X7.1457Y-2.815
X7.185Y-3.8681
X7.2047Y-2.9823
X7.2343Y-3.1594
X7.2638Y-2.815
X7.3228Y-2.9823
X7.3819Y-2.6181
X7.4114Y-2.2146
X7.4114Y-2.2736
X7.5197Y-2.1654
X7.5295Y-2.815
X7.5886Y-2.9823
X7.6476Y-2.815
X7.6673Y-3.7402
X7.7165Y-3.2382
X7.7165Y-3.7402
X7.7461Y-3.1594
X7.7461Y-3.1988
X7.7461Y-3.7795
X7.7461Y-3.8189
X7.7657Y-2.815
X7.8543Y-3.8681
X7.8839Y-2.6181
X7.9035Y-3.1594
X8.0906Y-2.4114
X8.2579Y-2.4606
X8.3366Y-3.7402
X8.3858Y-3.2382
X8.3858Y-3.7402
X8.435Y-2.4114
X8.5531Y-2.4114
T4
X4.5571Y-1.9291
X4.5571Y-2.0079
X4.6358Y-1.9291
X4.6358Y-2.0079
X4.7146Y-1.9291
X4.7146Y-2.0079
X4.7933Y-1.9291
X4.7933Y-2.0079
X4.872Y-1.9291
X4.872Y-2.0079
X4.9508Y-1.9291
X4.9508Y-2.0079
X5.0295Y-1.9291
X5.0295Y-2.0079
X5.1083Y-1.9291
X5.1083Y-2.0079
X5.187Y-1.9291
X5.187Y-2.0079
X5.2657Y-1.9291
X5.2657Y-2.0079
X5.3445Y-1.9291
X5.3445Y-2.0079
X5.4232Y-1.9291
X5.4232Y-2.0079
X5.502Y-1.9291
X5.502Y-2.0079
X5.5807Y-1.9291
X5.5807Y-2.0079
X5.6594Y-1.9291
X5.6594Y-2.0079
X5.7382Y-1.9291
X5.7382Y-2.0079
X5.8169Y-1.9291
X5.8169Y-2.0079
X5.8957Y-1.9291
X5.8957Y-2.0079
X5.9744Y-1.9291
X5.9744Y-2.0079
X6.0531Y-1.9291
X6.0531Y-2.0079
X6.3386Y-1.9291
X6.3386Y-2.0079
X6.4173Y-1.9291
X6.4173Y-2.0079
X6.4961Y-1.9291
X6.4961Y-2.0079
X6.5748Y-1.9291
X6.5748Y-2.0079
X6.6535Y-1.9291
X6.6535Y-2.0079
X6.7323Y-1.9291
X6.7323Y-2.0079
X6.811Y-1.9291
X6.811Y-2.0079
X6.8898Y-1.9291
X6.8898Y-2.0079
X6.9685Y-1.9291
X6.9685Y-2.0079
X7.0472Y-1.9291
X7.0472Y-2.0079
X7.126Y-1.9291
X7.126Y-2.0079
X7.2047Y-1.9291
X7.2047Y-2.0079
X7.2835Y-1.9291
X7.2835Y-2.0079
X7.3622Y-1.9291
X7.3622Y-2.0079
X7.4409Y-1.9291
X7.4409Y-2.0079
X7.5197Y-1.9291
X7.5197Y-2.0079
X7.5984Y-1.9291
X7.5984Y-2.0079
X7.6772Y-1.9291
X7.6772Y-2.0079
X7.7559Y-1.9291
X7.7559Y-2.0079
X7.8346Y-1.9291
X7.8346Y-2.0079
T5
X4.3205Y-4.4094
X4.3205Y-4.5094
X4.4205Y-4.4094
X4.4205Y-4.5094
X4.5205Y-4.4094
X4.5205Y-4.5094
X4.6205Y-4.4094
X4.6205Y-4.5094
X4.7205Y-4.4094
X4.7205Y-4.5094
X4.8205Y-4.4094
X4.8205Y-4.5094
X4.9205Y-4.4094
X4.9205Y-4.5094
X5.0205Y-4.4094
X5.0205Y-4.5094
X5.1205Y-4.4094
X5.1205Y-4.5094
X5.2205Y-4.4094
X5.2205Y-4.5094
X5.3205Y-4.4094
X5.3205Y-4.5094
X5.4205Y-4.4094
X5.4205Y-4.5094
X5.5205Y-4.4094
X5.5205Y-4.5094
X5.6205Y-4.4094
X5.6205Y-4.5094
X5.7205Y-4.4094
X5.7205Y-4.5094
X5.8205Y-4.4094
X5.8205Y-4.5094
X5.9205Y-4.4094
X5.9205Y-4.5094
X6.0205Y-4.4094
X6.0205Y-4.5094
X6.1205Y-4.4094
X6.1205Y-4.5094
X6.2205Y-4.4094
X6.2205Y-4.5094
X6.3205Y-4.4094
X6.3205Y-4.5094
X6.4205Y-4.4094
X6.4205Y-4.5094
X6.5205Y-4.4094
X6.5205Y-4.5094
X6.6205Y-4.4094
X6.6205Y-4.5094
X6.7205Y-4.4094
X6.7205Y-4.5094
X6.8205Y-4.4094
X6.8205Y-4.5094
X6.9205Y-4.4094
X6.9205Y-4.5094
X7.0205Y-4.4094
X7.0205Y-4.5094
X8.2874Y-4.4094
X8.2874Y-4.5094
X8.3874Y-4.4094
X8.3874Y-4.5094
X8.5433Y-3.2087
X8.5433Y-3.3087
X8.5433Y-3.7106
X8.5433Y-3.8106
T6
X4.3209Y-1.6732
X8.5925Y-1.6732
T5
G00X8.063Y-1.9094
M15
G01X8.063Y-1.9882
M16
G05
G00X8.2874Y-1.8307
M15
G01X8.2087Y-1.8307
M16
G05
G00X8.2874Y-2.0669
M15
G01X8.2087Y-2.0669
M16
G05
T0
M30
